<svg width="161" height="88"
  xmlns="http://www.w3.org/2000/svg"
  xmlns:xlink="http://www.w3.org/1999/xlink">
  <defs>
    <path d="M5.514 0C2.435 0 0 2.553 0 5.674 0 12.057 6.25 13.712 10.477 20 14.521 13.759 21 11.82 21 5.674 21 2.554 18.519 0 15.486 0c-2.206 0-4.136 1.324-5.009 3.262C9.604 1.324 7.72 0 5.514 0z" id="a"/>
  </defs>
  <g fill="none" fill-rule="evenodd">
    <path d="M126.966 47.723c-.084.676-.272 1.53-.563 2.546a18.152 18.152 0 01-1.152 2.959 10.022 10.022 0 01-1.681 2.45c-.65.68-1.376 1.015-2.173 1.015-.494 0-.906-.125-1.227-.373a2.672 2.672 0 01-.779-.979 4.61 4.61 0 01-.404-1.37 10.772 10.772 0 01-.117-1.578c0-.92.129-1.903.374-2.948.246-1.042.676-2.254 1.277-3.636.604-1.378 1.216-2.538 1.843-3.473a15.306 15.306 0 012.052-2.508 9.433 9.433 0 012.376-1.737c.838-.428 1.7-.646 2.587-.646l-2.413 10.278zM86.137 30.669c.582-2.856.869-4.282.869-4.282s.476-1.545 1.428-4.622c.948-3.074 1.764-5.298 2.448-6.665.684-1.364 1.371-2.45 2.051-3.248.684-.801 1.322-1.2 1.915-1.2.167 0 .261.214.291.653.03.436.046.961.046 1.578-.193 1.936-.65 4.02-1.36 6.259a72.32 72.32 0 01-2.531 6.742 110.513 110.513 0 01-3.094 6.57 150.874 150.874 0 01-3.098 5.737c.11-2.161.457-4.666 1.035-7.522zm-51.394.251c-.276 3.222-.544 6.31-.794 9.255a74.84 74.84 0 01-6.202-4.744c-1.87-1.6-3.483-3.218-4.84-4.85-1.352-1.634-2.413-3.282-3.165-4.948-.752-1.663-1.13-3.336-1.13-5.025 0-1.03.151-2.08.457-3.144a17.058 17.058 0 011.21-3.096 17.57 17.57 0 011.79-2.83 16.068 16.068 0 012.198-2.324c.779-.665 1.572-1.186 2.392-1.563.82-.38 1.628-.572 2.425-.572.82 0 1.602.24 2.342.713.744.476 1.39 1.249 1.942 2.324.547 1.075.982 2.471 1.307 4.19.32 1.714.483 3.816.483 6.302 0 3.647-.14 7.083-.415 10.312zm-6.388 31.592c-1.647 3.943-3.374 7.194-5.187 9.754-1.806 2.564-3.611 4.456-5.41 5.675-1.801 1.223-3.41 1.836-4.831 1.836-1.402 0-2.523-.554-3.377-1.659-.854-1.108-1.277-2.734-1.277-4.888 0-1.348.26-2.863.79-4.537.532-1.677 1.284-3.387 2.266-5.135.975-1.751 2.157-3.488 3.536-5.206a33.764 33.764 0 014.639-4.725 31.048 31.048 0 015.557-3.713 22.76 22.76 0 016.286-2.202l1.197.728c-1.144 5.442-2.538 10.127-4.19 14.072zm116.69-14.6c1.402-1.368 2.146 5.682 1.553 6.956-.593 1.271-1.156 1.478-1.987 2.398a24.31 24.31 0 01-2.796 2.62 17.283 17.283 0 01-3.328 2.11c-1.186.572-2.368.86-3.554.86-1.432 0-2.626-.44-3.582-1.326-.955-.887-1.783-2.176-2.474-3.865a16.014 16.014 0 01-1.923 1.785 17.64 17.64 0 01-2.493 1.64c-.899.488-1.836.894-2.814 1.204-.979.31-1.957.47-2.935.47a7.66 7.66 0 01-3.019-.621 7.996 7.996 0 01-2.606-1.788c-.446-.458-.73-1.101-1.07-1.685-.932.599-1.873 1.19-2.916 1.707a29.156 29.156 0 01-4.09 1.663c-1.391.44-2.706.66-3.956.66-1.122 0-2.063-.154-2.83-.461-.766-.303-1.386-.728-1.858-1.278-.299-.34-.446-.817-.638-1.256-.08.04-.163.1-.242.144-.843.417-1.712.835-2.61 1.248-.9.407-1.803.773-2.713 1.094-.91.318-1.798.58-2.66.768-.868.189-1.677.285-2.432.285-1.16 0-2.24-.491-3.234-1.478-.97-.957-1.81-2.239-2.535-3.831-.842.69-1.726 1.43-2.228 1.751-1.693 1.086-2.637 1.522-3.604 1.888-.971.358-1.915.65-2.841.872-.925.214-1.787.329-2.576.329-.805 0-1.492-.16-2.067-.47a4.545 4.545 0 01-1.473-1.307c-.415-.566-.763-1.234-1.05-2.014a20.679 20.679 0 01-.748-2.6 25.56 25.56 0 01-2.456 2.696 20.744 20.744 0 01-2.636 2.14c-.9.598-1.802 1.074-2.72 1.418-.914.34-1.81.514-2.667.514a5.66 5.66 0 01-1.999-.348 4.064 4.064 0 01-1.654-1.17c-.487-.548-.869-1.272-1.149-2.166-.275-.894-.415-2.006-.415-3.329.004-.554.053-.968.072-1.47-.506-.1-1.005-.196-1.564-.347a29.715 29.715 0 01-4.972-1.863c-.948 3.89-2.085 7.456-3.407 10.693-1.326 3.229-2.776 6.129-4.348 8.704-1.575 2.564-3.237 4.803-4.994 6.71-1.757 1.906-3.532 3.49-5.33 4.75-1.802 1.264-3.585 2.214-5.364 2.846-1.78.631-3.487.949-5.127.949-1.7 0-3.279-.34-4.73-1.012-1.454-.673-2.72-1.678-3.796-3.015C2.384 81.75 1.534 80.09.922 78.118.306 76.142 0 73.836 0 71.206c0-2.845.555-5.749 1.662-8.705 1.11-2.966 2.69-5.77 4.737-8.416 2.048-2.645 4.51-5.01 7.4-7.082 2.887-2.077 6.105-3.654 9.664-4.73a58.285 58.285 0 01-5.142-4.58c-1.594-1.608-2.984-3.245-4.166-4.918-1.186-1.678-2.12-3.362-2.8-5.062-.676-1.696-1.016-3.392-1.016-5.076 0-2.176.242-4.245.73-6.21a25.215 25.215 0 012.005-5.458 22.647 22.647 0 013.019-4.548 21.033 21.033 0 013.75-3.458A16.892 16.892 0 0124.027.768C25.484.258 26.938 0 28.404 0c1.942 0 3.811.491 5.61 1.47 1.798.983 3.4 2.535 4.797 4.67 1.402 2.128 2.52 4.888 3.362 8.273.839 3.388 1.262 7.481 1.262 12.277 0 1.44-.212 4.038-.627 7.795-.42 3.75-.808 7.353-1.175 10.803a145.97 145.97 0 003.993 2.357c.748.422 1.511.846 2.27 1.268.56-2.114 1.085-4.995 1.576-8.738.06-.31.14-.739.241-1.275.099-.543.253-1.127.457-1.762.208-.632.458-1.27.76-1.925a9.208 9.208 0 011.065-1.773 5.444 5.444 0 011.44-1.293 3.703 3.703 0 011.858-.54c1.14.052 1.96.24 2.46.543.494.31.74.691.74 1.15a86.988 86.988 0 01-.654 4.097c-.238 1.308-.487 2.63-.725 3.96-.25 1.33-.522 2.812-.82 4.437-.298 1.633-.54 2.934-.718 3.92-.181.983-.328 1.774-.442 2.38-.106.613-.166.923-.166.942 0 .395.038.768.117 1.13.072.355.185.68.344.957.147.285.34.518.578.684.238.18.521.262.842.262a3.23 3.23 0 001.458-.366 4.76 4.76 0 001.398-1.079c.453-.428.854-.986 1.201-1.67.344-.672.605-1.44.779-2.32l3.562-17.224c.102-.506.525-.93 1.262-1.282.736-.343 1.575-.52 2.512-.52 1.061 0 1.907.188 2.527.568.627.38.937.865.937 1.456 0 .569-.019 1.341-.06 2.32a21.03 21.03 0 01-.386 3.214c-.223 1.16-.487 2.56-.8 4.205-.31 1.651-.571 3.007-.779 4.082-.204 1.08-.381 2.025-.536 2.83-.155.806-.23 1.39-.23 1.759 0 .595.01 1.138.03 1.633.018.502.071.931.166 1.3.09.37.238.662.434.858.196.203.48.303.85.303.472 0 1.05-.115 1.726-.348.68-.232 2.225-1.09 2.883-1.636a42.084 42.084 0 001.828-1.622c-.034-.174-.087-.325-.125-.5a36.881 36.881 0 01-.627-6.893c0-2.07.31-4.829.933-8.28.624-3.45.93-5.176.93-5.176l1.416-5.176c.945-3.447 1.885-6.214 2.834-8.294a52.923 52.923 0 013.082-5.838c1.11-1.814 2.27-3.388 3.494-4.736 1.217-1.341 2.49-2.398 3.816-3.167 1.33-.768 2.674-1.152 4.05-1.152.997 0 1.82.184 2.466.558a4.18 4.18 0 011.534 1.474c.374.613.63 1.304.782 2.076.15.776.23 1.567.23 2.365 0 1.991-.242 4.02-.721 6.085a45.31 45.31 0 01-1.953 6.232 69.934 69.934 0 01-2.837 6.274 172.38 172.38 0 01-3.362 6.247 371.635 371.635 0 01-3.51 6.1 132.101 132.101 0 00-3.256 5.875c-.11.214-.22.49-.344.827-.117.34-.227.71-.336 1.101-.11.395-.22.813-.325 1.26-.11.447-.193.883-.26 1.304v.447c0 .554.06 1.094.177 1.615.117.513.264.983.438 1.4.174.414.359.743.552.983.196.251.377.37.551.37.423 0 .903-.086 1.44-.252.54-.174 1.114-.399 1.718-.687a24.48 24.48 0 001.87-.99 54.208 54.208 0 001.859-1.13c.423-.278.903-.651 1.34-.954.012-.067.016-.126.027-.196.624-3.661 1.02-5.715 1.198-6.17.294-.901.884-2.89 1.76-5.985.82-2.512 1.326-4.15 1.519-4.914.106-.532.4-1.012.888-1.437.445-.38.948-.698 1.507-.942a8.749 8.749 0 011.745-.543 8.563 8.563 0 011.636-.174c.887 0 1.492.163 1.81.488.317.329.475.764.475 1.311 0 .466-.11 1.12-.332 1.966-.22.85-.472 1.81-.756 2.893-.28 1.086-.699 2.475-1.258 4.178-.551 1.7-.933 3.155-1.14 4.352a38.983 38.983 0 01-.767 3.58c-.31 1.186-.465 2.262-.465 3.23 0 .95.11 1.7.325 2.26.215.555.657.84 1.326.84.774 0 1.635-.267 2.584-.795a22.81 22.81 0 002.874-1.91c.065-.048.118-.1.182-.148 0-.015-.004-.03-.004-.044 0-1.574.227-3.189.684-4.851.453-1.66 1.156-3.45 2.111-5.383.952-1.932 1.976-3.602 3.075-5.01a22.313 22.313 0 013.59-3.684 17.655 17.655 0 014.113-2.505c1.443-.617 2.909-.927 4.405-.927.498 0 .887.096 1.167.288.287.192.517.407.703.654.185.24.362.484.532.717.174.236.393.406.65.514.264.107.529.177.797.206.272.034.552.048.831.048.238 0 .484-.003.73-.014.252-.011.494-.015.736-.015.325 0 .627.03.906.092.284.067.533.204.748.418.22.21.386.51.503.894.117.38.177.901.177 1.566 0 1.005-.105 2.125-.32 3.351-.22 1.227-.465 2.483-.741 3.773-.28 1.289-.597 2.76-.952 4.407-.355 1.648-.533 3.04-.533 4.168 0 .964.087 1.721.272 2.264.185.544.578.817 1.183.817.45 0 .925-.11 1.42-.329a9.48 9.48 0 001.504-.86 17.371 17.371 0 001.518-1.209 20.27 20.27 0 001.436-1.396c1.057-1.127 1.798-2.446 3.2-3.82zm-43.441-22.924c0-.606.094-1.2.295-1.78.2-.58.506-1.098.921-1.556.416-.458.956-.82 1.621-1.09.661-.273 1.447-.406 2.353-.406 1.568 0 2.758.358 3.574 1.064.812.71 1.217 1.721 1.217 3.037 0 .066-.004.236-.023.506a4.719 4.719 0 01-.185.938 5.998 5.998 0 01-.484 1.123 3.9 3.9 0 01-.922 1.101c-.4.337-.899.614-1.507.835-.604.222-1.34.33-2.21.33a6.927 6.927 0 01-1.904-.241 4.112 4.112 0 01-1.458-.735 3.26 3.26 0 01-.948-1.264c-.23-.517-.34-1.134-.34-1.862zm58.176 29.84c.816.71 1.22 1.722 1.22 3.038 0 .066-.011.24-.03.506-.015.266-.08.58-.182.938a6.484 6.484 0 01-.48 1.127 3.99 3.99 0 01-.921 1.097c-.4.337-.903.614-1.507.84-.605.217-1.341.328-2.214.328a6.93 6.93 0 01-1.9-.244 4.098 4.098 0 01-1.462-.735 3.336 3.336 0 01-.948-1.264c-.227-.513-.34-1.134-.34-1.858 0-.61.098-1.208.298-1.785.2-.58.506-1.097.922-1.555.415-.458.956-.82 1.617-1.09.657-.27 1.443-.406 2.353-.406 1.572 0 2.762.358 3.574 1.064z" fill="#FFF"/>
    <g transform="translate(140 6)">
      <mask id="bb" fill="#fff">
        <use xlink:href="#a"/>
      </mask>
      <use fill="#FFF" fill-rule="nonzero" xlink:href="#a"/>
      <g mask="url(#bb)">
        <path fill="#E21A00" d="M21.57-.54v3.507H-.502V-.54z"/>
        <path fill="#FF8E00" d="M21.57 2.967v3.506H-.502V2.967z"/>
        <path fill="#FFEC01" d="M21.57 6.473V9.98H-.502V6.473z"/>
        <path fill="#107F1B" d="M21.57 9.98v3.507H-.502V9.98z"/>
        <path fill="#0050FF" d="M21.57 13.487v3.507H-.502v-3.507z"/>
        <path fill="#73118A" d="M21.57 16.994V20.5H-.502v-3.507z"/>
      </g>
    </g>
  </g>
</svg>