<svg viewBox="0 0 200 108" xmlns="http://www.w3.org/2000/svg">
  <path d="M157.721 59.045c-.103.832-.338 1.883-.699 3.133-.37 1.25-.84 2.46-1.431 3.643a12.333 12.333 0 01-2.088 3.015c-.808.836-1.709 1.25-2.699 1.25-.615 0-1.126-.154-1.525-.46a3.295 3.295 0 01-.967-1.204c-.244-.491-.408-1.055-.502-1.687a13.139 13.139 0 01-.145-1.942c0-1.132.16-2.342.464-3.629.305-1.282.84-2.774 1.587-4.474.75-1.697 1.51-3.124 2.29-4.275a18.876 18.876 0 012.548-3.088c.92-.9 1.905-1.614 2.951-2.137 1.042-.527 2.112-.796 3.215-.796l-2.999 12.651zm-50.718-20.99c.722-3.516 1.079-5.27 1.079-5.27s.591-1.902 1.774-5.69c1.178-3.783 2.191-6.52 3.04-8.203.85-1.678 1.704-3.015 2.549-3.997.85-.987 1.642-1.478 2.379-1.478.206 0 .324.264.361.805.038.536.057 1.182.057 1.941-.24 2.383-.807 4.948-1.69 7.704a88.501 88.501 0 01-3.144 8.299 135.113 135.113 0 01-3.843 8.085 185.157 185.157 0 01-3.848 7.062c.136-2.66.568-5.743 1.286-9.259zm-63.844.309c-.343 3.965-.676 7.767-.986 11.39a92.88 92.88 0 01-7.705-5.838c-2.323-1.969-4.327-3.96-6.012-5.97-1.68-2.01-2.998-4.039-3.932-6.09-.934-2.046-1.403-4.106-1.403-6.184 0-1.269.188-2.56.568-3.87a20.88 20.88 0 011.501-3.81 21.6 21.6 0 012.225-3.484 19.854 19.854 0 012.73-2.86c.968-.819 1.953-1.46 2.971-1.924 1.019-.468 2.023-.704 3.013-.704 1.018 0 1.99.295 2.91.877.924.587 1.726 1.537 2.412 2.86.68 1.324 1.22 3.043 1.623 5.157.4 2.11.6 4.698.6 7.758 0 4.488-.173 8.717-.515 12.692zm-7.936 38.884c-2.046 4.852-4.19 8.854-6.443 12.005-2.243 3.156-4.486 5.484-6.72 6.985-2.238 1.505-4.237 2.26-6.002 2.26-1.74 0-3.134-.682-4.195-2.042-1.06-1.364-1.586-3.365-1.586-6.016 0-1.66.324-3.524.98-5.584.662-2.065 1.596-4.17 2.816-6.32 1.211-2.156 2.68-4.294 4.393-6.408a41.742 41.742 0 015.762-5.816 38.596 38.596 0 016.903-4.57 28.447 28.447 0 017.809-2.71l1.488.895c-1.422 6.699-3.154 12.465-5.205 17.321zM180.18 59.277c1.741-1.682 2.666 6.994 1.93 8.563-.738 1.564-1.437 1.819-2.47 2.951a30.088 30.088 0 01-3.472 3.224 21.498 21.498 0 01-4.134 2.597c-1.474.704-2.942 1.06-4.416 1.06-1.778 0-3.261-.542-4.449-1.633-1.187-1.092-2.215-2.679-3.073-4.757a19.822 19.822 0 01-2.389 2.196 21.954 21.954 0 01-3.097 2.02c-1.117.6-2.28 1.1-3.496 1.482a12.11 12.11 0 01-3.646.577 9.59 9.59 0 01-3.75-.763 9.936 9.936 0 01-3.238-2.201c-.553-.564-.905-1.356-1.328-2.074-1.159.737-2.327 1.464-3.622 2.1a36.411 36.411 0 01-5.083 2.047c-1.727.541-3.36.814-4.913.814-1.394 0-2.562-.19-3.515-.568-.952-.373-1.722-.896-2.309-1.574-.37-.418-.553-1.005-.793-1.546-.098.05-.201.123-.3.178a125.28 125.28 0 01-3.243 1.537c-1.116.5-2.238.95-3.369 1.346-1.13.39-2.234.714-3.304.945-1.079.232-2.083.35-3.022.35-1.44 0-2.782-.604-4.017-1.818-1.206-1.178-2.247-2.756-3.148-4.716-1.047.85-2.145 1.76-2.77 2.156-2.101 1.336-3.275 1.873-4.476 2.323-1.206.441-2.38.8-3.529 1.073-1.15.264-2.22.405-3.2.405-1 0-1.854-.195-2.567-.577a5.63 5.63 0 01-1.83-1.61c-.516-.696-.948-1.519-1.305-2.478a25.273 25.273 0 01-.929-3.202 31.567 31.567 0 01-3.05 3.32 25.726 25.726 0 01-3.276 2.633c-1.117.736-2.238 1.323-3.378 1.746-1.136.418-2.248.632-3.314.632a7.09 7.09 0 01-2.482-.428c-.774-.286-1.46-.763-2.055-1.441-.606-.673-1.08-1.564-1.427-2.665-.342-1.1-.516-2.469-.516-4.097.005-.682.066-1.191.089-1.81-.629-.123-1.248-.24-1.943-.427-2.018-.541-4.078-1.305-6.175-2.292-1.178 4.788-2.59 9.176-4.233 13.16-1.647 3.974-3.45 7.544-5.401 10.714-1.957 3.155-4.022 5.911-6.204 8.258-2.182 2.346-4.388 4.297-6.622 5.847-2.238 1.556-4.453 2.724-6.663 3.502-2.21.778-4.331 1.169-6.368 1.169-2.112 0-4.073-.419-5.875-1.246-1.807-.828-3.38-2.065-4.716-3.711-1.338-1.642-2.394-3.683-3.154-6.112C.38 94.023 0 91.186 0 87.948c0-3.501.69-7.076 2.065-10.713 1.38-3.652 3.341-7.103 5.884-10.36 2.544-3.255 5.603-6.166 9.193-8.717 3.586-2.555 7.584-4.497 12.004-5.82a72.19 72.19 0 01-6.386-5.639c-1.98-1.978-3.708-3.993-5.176-6.053-1.474-2.064-2.633-4.138-3.478-6.23-.84-2.087-1.262-4.174-1.262-6.248 0-2.678.3-5.224.906-7.644.6-2.419 1.43-4.656 2.491-6.716a27.855 27.855 0 013.75-5.598c1.445-1.669 2.998-3.083 4.66-4.256a21.052 21.052 0 015.194-2.701c1.812-.628 3.619-.946 5.44-.946 2.411 0 4.734.605 6.968 1.81 2.234 1.21 4.223 3.12 5.96 5.747 1.74 2.62 3.13 6.017 4.176 10.182 1.042 4.17 1.568 9.208 1.568 15.111 0 1.773-.263 4.97-.78 9.595-.52 4.615-1.004 9.05-1.459 13.296 1.633.992 3.285 1.956 4.96 2.902.93.518 1.877 1.041 2.82 1.56.695-2.602 1.347-6.149 1.957-10.755.076-.382.174-.91.3-1.569.123-.668.315-1.387.569-2.17.258-.777.567-1.563.943-2.368.375-.805.816-1.533 1.323-2.183a6.742 6.742 0 011.788-1.592c.685-.418 1.455-.636 2.309-.663 1.417.063 2.435.295 3.055.668.615.382.92.85.92 1.414-.24 1.75-.512 3.429-.812 5.043-.296 1.61-.606 3.238-.901 4.875-.31 1.637-.648 3.46-1.019 5.461-.37 2.01-.67 3.611-.891 4.825-.225 1.21-.408 2.183-.55 2.929-.13.755-.206 1.137-.206 1.16 0 .486.047.945.146 1.39.089.437.23.837.427 1.179.183.35.422.636.718.84.295.224.647.324 1.046.324.592 0 1.197-.146 1.812-.45a5.907 5.907 0 001.736-1.328c.563-.528 1.06-1.215 1.492-2.056.427-.827.751-1.773.967-2.856l4.425-21.2c.127-.622.652-1.145 1.567-1.577.916-.423 1.957-.642 3.121-.642 1.319 0 2.37.232 3.14.7.778.47 1.163 1.065 1.163 1.792 0 .7-.023 1.651-.075 2.856-.042 1.21-.202 2.524-.478 3.956-.277 1.428-.606 3.152-.995 5.175a899.404 899.404 0 01-.967 5.025c-.253 1.328-.474 2.492-.666 3.483-.193.992-.287 1.71-.287 2.165 0 .732.014 1.4.038 2.01.023.618.09 1.146.206 1.6.113.455.296.815.54 1.056.244.25.596.372 1.056.372.587 0 1.304-.14 2.144-.427.845-.286 2.764-1.341 3.581-2.014a52.125 52.125 0 002.271-1.997c-.042-.213-.108-.4-.155-.614-.516-2.692-.779-5.52-.779-8.485 0-2.547.385-5.943 1.16-10.19.774-4.248 1.154-6.372 1.154-6.372l1.76-6.37c1.173-4.243 2.341-7.65 3.52-10.21a64.935 64.935 0 013.828-7.184c1.38-2.233 2.82-4.17 4.341-5.83 1.511-1.65 3.093-2.951 4.74-3.897 1.652-.946 3.322-1.419 5.03-1.419 1.24 0 2.262.228 3.065.687a5.172 5.172 0 011.905 1.814c.464.755.784 1.606.971 2.556.188.955.287 1.928.287 2.91 0 2.451-.3 4.948-.897 7.49a55.395 55.395 0 01-2.426 7.671 85.69 85.69 0 01-3.524 7.722 211.54 211.54 0 01-4.177 7.69c-1.44 2.541-2.9 5.042-4.36 7.507-1.459 2.47-2.81 4.875-4.044 7.23a9.9 9.9 0 00-.427 1.019c-.146.418-.282.873-.418 1.355-.136.487-.272 1-.403 1.55-.137.55-.24 1.087-.324 1.606v.55c0 .682.075 1.346.22 1.987.146.632.329 1.21.545 1.724.216.51.445.914.685 1.21.244.309.47.454.685.454.526 0 1.121-.104 1.788-.31a17.28 17.28 0 002.135-.845c.756-.355 1.53-.76 2.323-1.219a67.46 67.46 0 002.309-1.391c.525-.341 1.121-.8 1.666-1.173.014-.082.018-.155.032-.241.775-4.507 1.267-7.035 1.488-7.594.366-1.11 1.098-3.557 2.187-7.367 1.018-3.092 1.647-5.107 1.886-6.048.132-.655.498-1.246 1.103-1.77a7.485 7.485 0 011.872-1.159c.7-.3 1.422-.518 2.168-.668.751-.146 1.427-.214 2.032-.214 1.103 0 1.854.2 2.248.6.394.405.591.942.591 1.615 0 .573-.136 1.378-.412 2.419-.273 1.046-.587 2.228-.939 3.56-.347 1.337-.868 3.047-1.563 5.144-.685 2.091-1.159 3.883-1.417 5.356a47.599 47.599 0 01-.952 4.407c-.385 1.46-.578 2.783-.578 3.974 0 1.169.136 2.092.404 2.783.267.682.816 1.032 1.647 1.032.962 0 2.032-.327 3.21-.977a28.358 28.358 0 003.571-2.351c.08-.06.145-.123.225-.182 0-.018-.004-.037-.004-.055 0-1.937.281-3.924.849-5.97.563-2.042 1.436-4.248 2.623-6.626 1.183-2.378 2.454-4.434 3.82-6.166a27.582 27.582 0 014.458-4.534 21.97 21.97 0 015.11-3.083c1.793-.76 3.614-1.141 5.472-1.141.62 0 1.103.118 1.45.354.357.237.643.5.873.805.23.296.45.596.662.882.215.291.488.5.807.632.328.132.657.219.99.255.338.041.685.06 1.032.06.296 0 .6-.005.906-.019a20.9 20.9 0 01.915-.018c.404 0 .779.036 1.126.113.352.082.662.25.93.514.272.26.478.628.624 1.1.145.47.22 1.11.22 1.929 0 1.237-.131 2.615-.399 4.124-.272 1.51-.577 3.056-.92 4.643-.347 1.587-.741 3.397-1.182 5.425-.441 2.028-.662 3.743-.662 5.13 0 1.187.108 2.119.338 2.787.23.669.718 1.005 1.469 1.005.558 0 1.15-.136 1.764-.405.62-.272 1.235-.627 1.868-1.06a21.548 21.548 0 001.887-1.486 25.076 25.076 0 001.783-1.719c1.314-1.387 2.233-3.01 3.974-4.702zm-53.964-28.214c0-.746.118-1.478.366-2.192a5.468 5.468 0 011.145-1.915c.516-.563 1.188-1.01 2.013-1.341.822-.337 1.798-.5 2.924-.5 1.947 0 3.426.44 4.44 1.31 1.008.872 1.51 2.118 1.51 3.737 0 .082-.004.291-.028.623a5.76 5.76 0 01-.23 1.155 7.347 7.347 0 01-.6 1.383 4.84 4.84 0 01-1.145 1.355c-.498.414-1.117.755-1.873 1.028-.75.272-1.666.404-2.745.404-.868 0-1.657-.095-2.365-.295-.7-.2-1.305-.5-1.812-.905a4.017 4.017 0 01-1.177-1.555c-.287-.637-.423-1.397-.423-2.292zm72.268 36.728c1.014.873 1.516 2.12 1.516 3.738 0 .082-.014.296-.038.623-.018.327-.098.714-.225 1.155a7.94 7.94 0 01-.596 1.387c-.272.487-.657.937-1.145 1.35-.497.414-1.121.755-1.872 1.033-.751.268-1.666.405-2.75.405-.864 0-1.652-.1-2.36-.3-.704-.2-1.31-.5-1.817-.906a4.11 4.11 0 01-1.177-1.555c-.282-.632-.423-1.396-.423-2.287 0-.75.122-1.487.37-2.196a5.468 5.468 0 011.146-1.915c.516-.564 1.187-1.01 2.008-1.341.817-.332 1.793-.5 2.924-.5 1.952 0 3.43.44 4.44 1.31z" fill="currentColor" fill-rule="evenodd"/>
</svg>