<svg viewBox="0 0 200 121" fill="none" xmlns="http://www.w3.org/2000/svg">
  <path fill-rule="evenodd" clip-rule="evenodd" d="M157.721 72.045c-.103.832-.338 1.883-.699 3.133-.37 1.25-.84 2.46-1.431 3.643a12.348 12.348 0 01-2.088 3.015c-.808.836-1.709 1.25-2.699 1.25-.615 0-1.126-.154-1.525-.46a3.293 3.293 0 01-.967-1.204c-.244-.491-.408-1.055-.502-1.687a13.15 13.15 0 01-.145-1.942c0-1.132.16-2.342.464-3.63.305-1.281.84-2.773 1.587-4.473.75-1.697 1.51-3.124 2.29-4.275a18.87 18.87 0 012.548-3.088c.92-.9 1.905-1.614 2.951-2.137 1.042-.527 2.112-.796 3.215-.796l-2.999 12.65zm-50.718-20.99c.722-3.516 1.079-5.27 1.079-5.27s.591-1.902 1.774-5.69c1.178-3.783 2.191-6.52 3.04-8.203.85-1.678 1.704-3.015 2.549-3.997.85-.987 1.642-1.478 2.379-1.478.206 0 .324.264.361.805.038.536.057 1.182.057 1.94-.24 2.384-.807 4.949-1.69 7.705a88.656 88.656 0 01-3.144 8.299 134.869 134.869 0 01-3.843 8.085 184.142 184.142 0 01-3.848 7.062c.136-2.66.568-5.743 1.286-9.26v.002zm-63.844.309c-.343 3.965-.676 7.767-.986 11.39a92.891 92.891 0 01-7.705-5.838c-2.323-1.97-4.327-3.96-6.012-5.97-1.68-2.01-2.998-4.04-3.932-6.09-.934-2.046-1.403-4.106-1.403-6.184 0-1.27.188-2.56.568-3.87a20.877 20.877 0 011.501-3.81 21.603 21.603 0 012.225-3.484c.813-1.042 1.727-2 2.73-2.86.968-.82 1.953-1.46 2.971-1.924 1.019-.468 2.023-.704 3.013-.704 1.018 0 1.99.295 2.91.877.924.587 1.726 1.537 2.412 2.86.68 1.324 1.22 3.043 1.623 5.157.4 2.11.6 4.698.6 7.758 0 4.488-.173 8.717-.515 12.692zm-7.936 38.884c-2.046 4.852-4.19 8.854-6.443 12.005-2.243 3.156-4.486 5.484-6.72 6.985-2.238 1.505-4.237 2.26-6.002 2.26-1.74 0-3.134-.682-4.195-2.042-1.06-1.364-1.586-3.365-1.586-6.016 0-1.66.324-3.524.98-5.584.662-2.065 1.596-4.17 2.816-6.32 1.211-2.156 2.68-4.294 4.393-6.408a41.74 41.74 0 015.762-5.816 38.595 38.595 0 016.903-4.57 28.446 28.446 0 017.809-2.71l1.488.895c-1.422 6.699-3.154 12.465-5.205 17.32zM180.18 72.277c1.741-1.682 2.666 6.994 1.93 8.563-.738 1.564-1.437 1.819-2.47 2.95a30.131 30.131 0 01-3.472 3.225 21.507 21.507 0 01-4.134 2.597c-1.474.704-2.942 1.06-4.416 1.06-1.778 0-3.261-.542-4.449-1.633-1.187-1.092-2.215-2.68-3.073-4.757a19.831 19.831 0 01-2.389 2.196c-.974.76-2.01 1.435-3.097 2.02-1.117.6-2.28 1.1-3.496 1.482a12.111 12.111 0 01-3.646.577 9.588 9.588 0 01-3.75-.763 9.936 9.936 0 01-3.238-2.201c-.553-.564-.905-1.356-1.328-2.074-1.159.737-2.327 1.464-3.622 2.1a36.458 36.458 0 01-5.083 2.047c-1.727.54-3.36.814-4.913.814-1.394 0-2.562-.19-3.515-.568-.952-.373-1.722-.896-2.309-1.574-.37-.418-.553-1.005-.793-1.546-.098.05-.201.123-.3.178-1.074.528-2.155 1.04-3.243 1.537-1.116.5-2.238.95-3.369 1.346-1.13.39-2.234.714-3.304.945-1.079.232-2.083.35-3.022.35-1.44 0-2.782-.604-4.017-1.818-1.206-1.178-2.247-2.756-3.148-4.716-1.047.85-2.145 1.76-2.77 2.156-2.101 1.336-3.275 1.873-4.476 2.323-1.206.44-2.38.8-3.529 1.073-1.15.264-2.22.405-3.2.405-1 0-1.854-.195-2.567-.577a5.631 5.631 0 01-1.83-1.61c-.516-.696-.948-1.52-1.305-2.478a25.266 25.266 0 01-.929-3.202 31.57 31.57 0 01-3.05 3.32 25.737 25.737 0 01-3.276 2.633c-1.117.736-2.238 1.323-3.378 1.746-1.136.418-2.248.632-3.314.632a7.092 7.092 0 01-2.482-.428c-.774-.286-1.46-.763-2.055-1.441-.606-.673-1.08-1.564-1.427-2.665-.342-1.1-.516-2.47-.516-4.097.005-.682.066-1.191.089-1.81-.629-.123-1.248-.24-1.943-.427-2.018-.541-4.078-1.305-6.175-2.292-1.178 4.788-2.59 9.176-4.233 13.16-1.647 3.974-3.45 7.544-5.401 10.714-1.957 3.155-4.022 5.911-6.204 8.258-2.182 2.346-4.388 4.297-6.622 5.847-2.238 1.556-4.453 2.724-6.663 3.502-2.21.778-4.331 1.169-6.368 1.169-2.112 0-4.073-.419-5.875-1.246-1.807-.828-3.38-2.065-4.716-3.711-1.338-1.642-2.394-3.683-3.154-6.112C.38 107.023 0 104.186 0 100.948c0-3.501.69-7.076 2.065-10.713 1.38-3.652 3.341-7.103 5.884-10.36 2.544-3.255 5.603-6.166 9.193-8.717 3.586-2.555 7.584-4.497 12.004-5.82a72.197 72.197 0 01-6.386-5.64c-1.98-1.977-3.708-3.992-5.176-6.052-1.474-2.064-2.633-4.138-3.478-6.23-.84-2.087-1.262-4.174-1.262-6.248 0-2.678.3-5.224.906-7.644.6-2.42 1.43-4.656 2.491-6.716a27.856 27.856 0 013.75-5.598c1.445-1.67 2.998-3.083 4.66-4.256a21.049 21.049 0 015.194-2.701c1.812-.628 3.619-.946 5.44-.946 2.411 0 4.734.605 6.968 1.81 2.234 1.21 4.223 3.12 5.96 5.747 1.74 2.62 3.13 6.017 4.176 10.182 1.042 4.17 1.568 9.208 1.568 15.11 0 1.774-.263 4.97-.78 9.596-.52 4.615-1.004 9.05-1.459 13.296 1.633.992 3.285 1.956 4.96 2.902.93.518 1.877 1.04 2.82 1.56.695-2.602 1.347-6.15 1.957-10.755.076-.382.174-.91.3-1.57.123-.667.315-1.386.569-2.17.258-.776.567-1.562.943-2.367.375-.805.816-1.533 1.323-2.183a6.741 6.741 0 011.788-1.592c.685-.418 1.455-.636 2.309-.663 1.417.063 2.435.295 3.055.668.615.382.92.85.92 1.414a107.54 107.54 0 01-.812 5.043c-.296 1.61-.606 3.238-.901 4.875-.31 1.637-.648 3.46-1.019 5.46-.37 2.01-.67 3.612-.891 4.826-.225 1.21-.408 2.183-.55 2.929-.13.755-.206 1.137-.206 1.16 0 .486.047.945.146 1.39.089.437.23.837.427 1.179.183.35.422.636.718.84.295.224.647.324 1.046.324.592 0 1.197-.146 1.812-.45a5.907 5.907 0 001.736-1.328c.563-.528 1.06-1.215 1.492-2.056.427-.827.751-1.773.967-2.856l4.425-21.2c.127-.622.652-1.145 1.567-1.577.916-.423 1.957-.642 3.121-.642 1.319 0 2.37.232 3.14.7.778.47 1.163 1.065 1.163 1.792 0 .7-.023 1.65-.075 2.856-.042 1.21-.202 2.524-.478 3.956-.277 1.428-.606 3.152-.995 5.175-.318 1.676-.64 3.35-.967 5.025-.253 1.328-.474 2.492-.666 3.483-.193.992-.287 1.71-.287 2.165 0 .732.014 1.4.038 2.01.023.618.09 1.146.206 1.6.113.455.296.815.54 1.056.244.25.596.372 1.056.372.587 0 1.304-.14 2.144-.427.845-.286 2.764-1.341 3.581-2.014a52.102 52.102 0 002.271-1.997c-.042-.213-.108-.4-.155-.614-.516-2.692-.779-5.52-.779-8.485 0-2.547.385-5.943 1.16-10.19.774-4.248 1.154-6.372 1.154-6.372l1.76-6.37c1.173-4.243 2.341-7.65 3.52-10.21a64.842 64.842 0 013.828-7.184c1.38-2.233 2.82-4.17 4.341-5.83 1.511-1.65 3.093-2.951 4.74-3.897 1.652-.946 3.322-1.42 5.03-1.42 1.24 0 2.262.229 3.065.688a5.17 5.17 0 011.905 1.814c.464.755.784 1.606.971 2.556.188.955.287 1.928.287 2.91 0 2.45-.3 4.948-.897 7.49a55.377 55.377 0 01-2.426 7.67 85.452 85.452 0 01-3.524 7.723 211.711 211.711 0 01-4.177 7.69c-1.44 2.54-2.9 5.042-4.36 7.507a163.096 163.096 0 00-4.044 7.23 9.876 9.876 0 00-.427 1.019c-.146.418-.282.873-.418 1.355-.136.487-.272 1-.403 1.55-.137.55-.24 1.087-.324 1.606v.55c0 .682.075 1.346.22 1.987.146.632.329 1.21.545 1.724.216.51.445.914.685 1.21.244.309.47.454.685.454.526 0 1.121-.104 1.788-.31.73-.234 1.443-.516 2.135-.845.756-.355 1.53-.76 2.323-1.22a67.1 67.1 0 002.309-1.39c.525-.341 1.121-.8 1.666-1.173.014-.082.018-.155.032-.241.775-4.507 1.267-7.035 1.488-7.594.366-1.11 1.098-3.557 2.187-7.367 1.018-3.092 1.647-5.107 1.886-6.048.132-.655.498-1.246 1.103-1.77a7.47 7.47 0 011.872-1.16c.7-.3 1.422-.517 2.168-.667a10.7 10.7 0 012.032-.214c1.103 0 1.854.2 2.248.6.394.405.591.942.591 1.615 0 .573-.136 1.378-.412 2.419-.273 1.046-.587 2.228-.939 3.56-.347 1.337-.868 3.047-1.563 5.144-.685 2.09-1.159 3.883-1.417 5.356a47.678 47.678 0 01-.952 4.407c-.385 1.46-.578 2.783-.578 3.974 0 1.169.136 2.092.404 2.783.267.682.816 1.032 1.647 1.032.962 0 2.032-.327 3.21-.977a28.31 28.31 0 003.571-2.351c.08-.06.145-.123.225-.182 0-.018-.004-.037-.004-.055 0-1.937.281-3.924.849-5.97.563-2.042 1.436-4.248 2.623-6.626 1.183-2.378 2.454-4.434 3.82-6.166a27.562 27.562 0 014.458-4.534 21.957 21.957 0 015.11-3.083c1.793-.76 3.614-1.141 5.472-1.141.62 0 1.103.118 1.45.354.357.237.643.5.873.805.23.296.45.596.662.882.215.29.488.5.807.632.328.132.657.219.99.255a8.6 8.6 0 001.032.06c.296 0 .6-.005.906-.02.305-.012.61-.018.915-.017.404 0 .779.036 1.126.113.352.082.662.25.93.514.272.26.478.628.624 1.1.145.47.22 1.11.22 1.929 0 1.237-.131 2.615-.399 4.124a136.56 136.56 0 01-.92 4.643c-.347 1.587-.741 3.397-1.182 5.425-.441 2.028-.662 3.743-.662 5.13 0 1.187.108 2.119.338 2.787.23.669.718 1.005 1.469 1.005.558 0 1.15-.136 1.764-.405.62-.272 1.235-.627 1.868-1.06.656-.46 1.286-.956 1.887-1.486a25.219 25.219 0 001.783-1.72c1.314-1.386 2.233-3.01 3.974-4.701zm-53.964-28.214c0-.746.118-1.478.366-2.192a5.47 5.47 0 011.145-1.915c.516-.563 1.188-1.01 2.013-1.341.822-.337 1.798-.5 2.924-.5 1.947 0 3.426.44 4.44 1.31 1.008.872 1.51 2.118 1.51 3.737 0 .082-.004.29-.028.623a5.755 5.755 0 01-.23 1.155c-.152.48-.353.944-.6 1.383a4.84 4.84 0 01-1.145 1.355c-.498.414-1.117.755-1.873 1.028-.75.272-1.666.404-2.745.404-.868 0-1.657-.095-2.365-.295-.7-.2-1.305-.5-1.812-.905a4.022 4.022 0 01-1.177-1.555c-.287-.637-.423-1.397-.423-2.292zm72.268 36.728c1.014.873 1.516 2.12 1.516 3.738 0 .082-.014.296-.038.623-.018.327-.098.714-.225 1.155a7.95 7.95 0 01-.596 1.387c-.272.487-.657.937-1.145 1.35-.497.414-1.121.755-1.872 1.033-.751.268-1.666.405-2.75.405-.864 0-1.652-.1-2.36-.3-.704-.2-1.31-.5-1.817-.906a4.116 4.116 0 01-1.177-1.555c-.282-.632-.423-1.396-.423-2.287 0-.75.122-1.487.37-2.196a5.457 5.457 0 011.146-1.915c.516-.564 1.187-1.01 2.008-1.341.817-.332 1.793-.5 2.924-.5 1.952 0 3.43.44 4.44 1.31l-.001-.001z" fill="currentColor"/>
  <path fill-rule="evenodd" clip-rule="evenodd" d="M83.625 48.899c-.194-.434-.385-.865-.577-1.299l-.029.013-6.041-13.576.037-.017c-.158-.348-.323-.704-.491-1.084h.05l-6.4-14.381c-.361-.305-.449-.805-.22-1.465.383-1.115-.1-2.24-1.14-2.649-1.001-.395-2.172.086-2.61 1.071-.476 1.078-.11 2.252.998 2.675.604.23.802.632 1.019 1.118 5.483 12.331 10.978 24.655 16.431 36.998.383.868.77.631 1.36.367.56-.25.96-.383.573-1.185-1.047-2.166-1.982-4.387-2.96-6.586z" fill="#fff"/>
  <path fill-rule="evenodd" clip-rule="evenodd" d="M114.065 10.97c-4.055-.349-7.715.846-11.167 2.857-2.849 1.659-5.337 3.807-7.836 5.943-.558.477-1.16 1.445-1.7 1.258a.521.521 0 01-.213-.155l1.425 3.234c2.709-2.342 5.373-4.74 8.382-6.7 1.876-1.22 3.845-2.244 6.012-2.883 2.329-.687 4.672-.978 7.183-.625-.34-.772-.675-1.417-.908-2.098-.207-.608-.564-.78-1.178-.831z" fill="#FE4A4A"/>
  <mask id="a" maskUnits="userSpaceOnUse" x="88" y="0" width="26" height="19">
    <path d="M88.202 0h25.467v18.913H88.202V0z" fill="#fff"/>
  </mask>
  <g mask="url(#a)" fill-rule="evenodd" clip-rule="evenodd" fill="#FE4A4A">
    <path d="M111.58 5.657c-5.258-.42-9.72 1.573-13.86 4.514-2.44 1.734-4.69 3.707-7.02 5.68l1.37 3.062c-.038-.292.133-.505.401-.723 1.765-1.439 3.493-2.927 5.3-4.312 3.115-2.385 6.43-4.383 10.381-5.142 1.796-.345 3.584-.397 5.517-.192-.344-.77-.691-1.405-.911-2.08-.202-.619-.586-.76-1.178-.807z"/>
    <path d="M89.594 13.385c-.063-.277.04-.478.358-.732 1.731-1.379 3.378-2.866 5.125-4.224 3.488-2.71 7.252-4.859 11.735-5.492 1.419-.2 2.841-.078 4.343-.012-.37-.825-.706-1.535-1.006-2.261-.148-.357-.352-.506-.759-.556-2.748-.34-5.387.15-7.938 1.087-3.59 1.32-6.61 3.573-9.548 5.951-1.256 1.015-2.475 2.078-3.702 3.128l1.392 3.11z"/>
  </g>
  <path fill-rule="evenodd" clip-rule="evenodd" d="M79.737 40.321c-.302-.747-.651-1.48-1.012-2.287 5.723.208 10.384-2.123 14.714-5.434 3.187-2.434 6.112-5.182 9.298-7.615 3.472-2.65 7.151-4.824 11.582-5.447 1.463-.206 2.919-.123 4.472-.046-.38-.85-.737-1.59-1.04-2.35-.161-.408-.447-.44-.813-.481-2.849-.324-5.574.203-8.212 1.22-3.212 1.241-5.969 3.23-8.626 5.373-4.046 3.263-7.764 6.943-12.38 9.473-3.02 1.657-6.223 2.535-9.673 2.488-.284-.004-.571.006-.734-.328l2.424 5.434zM77.252 34.665c-.078-.126-.159-.251-.243-.377l-.015.005.258.372zM82.376 46.355c-.303-.747-.652-1.478-1.013-2.288 5.723.21 10.386-2.123 14.714-5.432 3.188-2.436 6.112-5.183 9.3-7.617 3.47-2.65 7.15-4.824 11.582-5.447 1.461-.205 2.918-.123 4.471-.043-.381-.852-.738-1.592-1.04-2.354-.16-.405-.448-.438-.813-.479-2.849-.326-5.573.202-8.211 1.22-3.213 1.24-5.971 3.23-8.627 5.372-4.047 3.263-7.765 6.945-12.38 9.474-3.021 1.657-6.224 2.535-9.674 2.488-.284-.004-.57.006-.733-.328l2.424 5.434z" fill="#FE4A4A"/>
  <path fill-rule="evenodd" clip-rule="evenodd" d="M80.21 16.052c-2.913 1.524-5.882 2.675-9.245 2.435a2.205 2.205 0 01-.506-.096l-.25.112 6.23 13.98c1.513.025 2.918.11 4.286-.203 4.01-.918 7.46-2.963 10.651-5.462a95.315 95.315 0 003.106-2.562l-6.244-14.012c-2.506 2.153-5.054 4.253-8.028 5.808z" fill="#fff"/>
  <path fill-rule="evenodd" clip-rule="evenodd" d="M88.526 14.451c-.802-.126-1.05.32-1.276.883-.13-.55-.151-1.148-1.063-.897.834-.375.826-.944.74-1.62.304.574.706.492 1.233.15-.141.588-.456 1.133.366 1.484zm2.659 6.022c-.563.073-1.146-.082-1.123.773-.282-.57-.518-.932-1.138-.82.71-.383.78-.928.602-1.66.412.328.659.98 1.289.195-.284.675-.154 1.093.37 1.512zm-.36 4.831c-.874-.206-1.075.314-1.303 1.107-.105-.786-.122-1.41-1.014-1.229.629-.364.931-.8.666-1.589.376.695.788.484 1.29.167-.147.612-.43 1.171.362 1.544zm-4.187-1.492c-.023-.694-.33-.997-.997-1.031.602-.326.864-.743.657-1.431.383.407.764.613 1.37.065-.268.697-.48 1.214.274 1.593-.751-.137-1.15.084-1.304.803zm.795 3.82c-.755-.202-1.102.128-1.315.78.012-.705-.295-1.087-1.225-1.091.776-.322 1.29-.567.873-1.432.454.733.885.463 1.399.19-.188.594-.413 1.135.268 1.554zm-4.318-1.82c.052-.774-.387-.996-1.244-1.091.83-.27 1.186-.61 1.005-1.333.363.617.784.654 1.417.177-.31.682-.54 1.213.24 1.614-.709-.186-1.145-.051-1.418.634zm.877 3.665c-.686.017-1.367-.358-1.502.62-.052-.7-.253-1.138-1.21-1.16.75-.317 1.2-.56.716-1.369.61.43 1.005.895 1.647.438-.369.573-.364 1.01.349 1.471zm-4.668-2.24c.131-.97-.492-1.07-1.182-1.275.615-.166 1.33-.136.788-1.147.614.388.97.995 1.658.489-.45.587-.29 1.037.386 1.522-.728-.094-1.342-.546-1.65.411zm.505 3.324c-.408.09-.815-.44-1.13.115-.076.132-.352.094-.312-.123.099-.552-.376-.556-.749-.809.469-.211.888-.449.467-1.176.617.467.938 1.161 1.725.613-.338.497-.36.932 0 1.38zm-4.631-2.783c.034-.829-.29-1.162-1.082-1.21.885-.348.885-.348.868-1 .524.252.765 1.15 1.66.572-.4.49-.44.879-.013 1.32-.54.034-1.084-.626-1.433.318zm-2.913-8.255c.487.516.914.9 1.926.559-.823.657-.572 1.058.002 1.482-.668-.075-1.19-.653-1.702.118.064-.747-.362-1.042-1.171-1.284.692-.098 1.327-.041.945-.875zm3.724 3.26c.274.193.53-.125 1.02-.036-.685.548-.338.957.167 1.432-.67-.193-1.213-.545-1.667.506-.008-.865-.095-1.378-.852-1.393.666-.458.666-.458.654-1.082.344.056.437.404.678.573zm.381-3.89c.473.391.85.924 1.547.372-.473.6-.36 1.046.193 1.479-.587-.105-1.188-.426-1.372.583-.289-.57-.067-1.35-1.044-1.22.51-.32.995-.527.676-1.214zm2.73 2.174c.595.378.966.979 1.655.428-.482.577-.372 1.018.192 1.447-.585-.097-1.148-.258-1.378.546-.033-.685-.325-1.076-1.027-1.165.528-.237 1.025-.418.558-1.256zm.965-3.722c.499.616.936.686 1.572.075-.24.747-.77 1.29.235 1.65-.612.132-1.31-.25-1.397.726-.014-.834-.489-.976-1.221-1.074.706-.312 1.284-.506.81-1.377zm4.104 2.09c-.094.655-.372 1.199.284 1.643-.723-.18-1.06.13-1.245.762-.042-.66-.304-1.063-1.042-1.112.67-.225.89-.622.576-1.504.554.516.927 1.042 1.427.21zm-.63-4.13c.45.502.847.566 1.399.07-.208.676-.424 1.212.253 1.627-.785-.198-1.044.25-1.255.842-.09-.578-.165-1.123-1.108-.948.589-.478 1.124-.793.71-1.59zm2.705 1.827c.405.463.793.532 1.373-.123-.179.761-.667 1.348.302 1.715-.937-.165-1.07.432-1.361.916-.006-.657-.119-1.152-1.035-1.007.798-.316.887-.812.721-1.5zM80.2 16.05c-2.913 1.523-5.883 2.675-9.245 2.435a2.21 2.21 0 01-.507-.096l-.25.112 6.23 13.98c1.513.025 2.918.11 4.286-.203 4.01-.918 7.46-2.963 10.652-5.462a95.315 95.315 0 003.105-2.562l-6.244-14.012c-2.506 2.153-5.054 4.253-8.027 5.808z" fill="#2E4CA8"/>
</svg>