<svg viewBox="0 0 400 370" fill="none" xmlns="http://www.w3.org/2000/svg">
<g clip-path="url(#clip0_644_4554)">
<path d="M220.179 265.315H158.431V270.275H220.179V265.315Z" fill="#FFB53D"/>
<path d="M161.353 257.584H154.503V378.163H161.353V257.584Z" fill="#FFB53D"/>
<path d="M224.229 259.567H217.379V378.098H224.229V259.567Z" fill="#FFB53D"/>
<path d="M220.179 348.719H158.431V356.866H220.179V348.719Z" fill="#FFB53D"/>
<path d="M226.7 254.563H151.821V260.607H226.7V254.563Z" fill="#FFB53D"/>
<path d="M249.031 118.823L249.241 119.777L249.169 119.81L249.069 119.856H248.762L248.114 119.906C247.801 119.941 247.379 119.945 246.987 119.966C246.569 119.988 246.1 120.032 245.58 120.15L245.557 120.155L245.532 120.158C242.415 120.551 239.347 121.409 236.398 122.714L236.397 122.715C232.008 124.643 227.865 127.33 224.1 130.698L224.101 130.699C221.876 132.696 219.764 134.874 217.781 137.22C215.668 139.755 213.713 142.48 211.933 145.371L211.932 145.373C210.09 148.335 208.452 151.386 206.944 154.389C205.438 157.391 204.066 160.362 202.8 163.215L202.799 163.214C200.286 168.929 198.222 174.197 196.579 178.678C194.936 183.16 193.687 186.832 192.871 189.387L192.872 189.388C192.472 190.648 192.162 191.574 191.929 192.329L191.926 192.338L191.673 193.106L191.672 193.105C191.639 193.223 191.595 193.337 191.538 193.442L190.601 193.171C190.608 193.044 190.633 192.918 190.673 192.795H190.672L190.887 192.006L190.888 192.004C191.075 191.331 191.349 190.296 191.796 188.987C192.564 186.393 193.77 182.679 195.396 178.172C197.026 173.654 199.054 168.3 201.561 162.56L201.562 162.558C202.831 159.686 204.193 156.688 205.729 153.654C207.278 150.496 208.962 147.439 210.775 144.496C214.276 138.768 218.482 133.726 223.246 129.547C226.895 126.321 230.892 123.717 235.124 121.809L235.974 121.436C239.039 120.122 242.231 119.294 245.473 118.97V118.969C246.355 118.862 247.243 118.813 248.132 118.824V118.823H249.031Z" fill="#7B8D96" stroke="#7B8D96"/>
<path d="M147.508 163.399C151.659 163.23 155.804 163.924 159.761 165.447C163.496 166.884 166.942 169.229 169.892 172.33L170.476 172.96L170.482 172.967L170.49 172.976C171.786 174.553 172.884 176.348 173.754 178.302H173.753C174.512 179.956 175.202 181.656 175.818 183.395L176.615 185.655C176.863 186.369 177.095 187.044 177.311 187.674C177.526 188.306 177.726 188.892 177.911 189.43L178.426 190.895L178.427 190.896C178.737 191.76 178.984 192.428 179.161 192.881C179.278 193.107 179.375 193.345 179.45 193.591L178.548 194.002C178.407 193.775 178.287 193.534 178.188 193.283L178.015 192.902C177.83 192.48 177.61 191.939 177.348 191.284C176.653 189.55 175.761 186.947 174.601 183.85L174.146 182.658C173.677 181.442 173.153 180.163 172.541 178.899L172.536 178.888C171.708 177.07 170.672 175.41 169.461 173.955C166.504 170.741 163.025 168.34 159.259 166.906H159.258C155.472 165.451 151.517 164.778 147.555 164.912L147.556 164.913C144.303 165.027 141.067 165.534 137.896 166.427L137.893 166.428C135.167 167.177 133.01 168.002 131.517 168.6H131.516L129.794 169.288C129.576 169.39 129.352 169.472 129.122 169.53L128.698 168.646C128.906 168.489 129.129 168.36 129.365 168.263C129.759 168.059 130.342 167.793 131.074 167.47C132.925 166.645 134.808 165.932 136.718 165.334L137.538 165.084C140.803 164.1 144.145 163.536 147.508 163.4V163.399Z" fill="#7B8D96" stroke="#7B8D96"/>
<path d="M162.916 182.147C164.761 181.96 166.608 182.396 168.25 183.397L168.759 183.712C169.938 184.463 171.057 185.344 172.1 186.346L172.101 186.347C173.711 187.901 175.01 189.344 176.027 190.479L176.952 191.505L176.954 191.507L178.223 192.911C178.402 193.064 178.568 193.237 178.719 193.425L178.027 194.136C177.839 193.994 177.66 193.835 177.491 193.663V193.664C177.169 193.361 176.704 192.906 176.123 192.298V192.297C174.955 191.096 173.36 189.316 171.242 187.347L171.24 187.345C170.252 186.418 169.196 185.606 168.087 184.919L167.604 184.629C166.207 183.797 164.66 183.444 163.124 183.598C161.393 183.964 159.731 184.741 158.233 185.888C156.57 187.165 154.997 188.61 153.531 190.209L153.524 190.215L153.519 190.222C152.76 190.991 152.034 191.811 151.35 192.678L151.351 192.679C150.688 193.561 150.085 194.476 149.483 195.405C148.314 197.252 147.259 199.122 146.262 200.916L146.263 200.917C144.308 204.529 142.676 207.881 141.367 210.742C140.059 213.597 139.121 215.981 138.543 217.651C138.255 218.482 138.059 219.144 137.929 219.596C137.865 219.818 137.814 220.003 137.775 220.126C137.757 220.185 137.735 220.249 137.713 220.302C137.704 220.324 137.681 220.376 137.644 220.429C137.626 220.453 137.58 220.515 137.501 220.566C137.409 220.625 137.235 220.69 137.037 220.61L136.694 220.471L136.727 220.104C136.75 219.834 136.8 219.566 136.875 219.307C136.985 218.786 137.115 218.27 137.266 217.763L137.424 217.255C138.209 214.82 139.117 212.444 140.142 210.143C141.415 207.22 143.038 203.814 144.996 200.158L144.998 200.153C145.995 198.336 147.047 196.43 148.252 194.521L148.255 194.516C148.857 193.587 149.486 192.619 150.182 191.695L150.187 191.689C150.904 190.766 151.669 189.898 152.476 189.09C153.999 187.449 155.635 185.969 157.368 184.665C159.039 183.389 160.91 182.532 162.872 182.154L162.894 182.15L162.916 182.147Z" fill="#7B8D96" stroke="#7B8D96"/>
<path d="M175.829 54.6738C175.886 54.7975 175.935 54.9255 175.976 55.0557L176.3 56.041L176.302 56.0459C176.591 56.9584 176.985 58.2345 177.506 59.8418V59.8428C177.77 60.6583 178.025 61.6074 178.289 62.6514L179.125 66.0283L179.128 66.041C179.388 67.2001 179.769 68.5392 180.03 69.9336C180.292 71.3262 180.559 72.7841 180.847 74.3047H180.848C181.49 77.3994 181.891 80.8714 182.436 84.5039H182.435C182.651 85.8803 182.785 87.3346 182.935 88.7861L183.094 90.2354L183.268 91.7197C183.438 93.2145 183.594 94.752 183.689 96.3281L183.822 97.9014C184.468 105.818 184.826 114.478 184.995 123.528C185.175 133.188 184.95 142.419 184.635 150.778C184.32 159.14 183.825 166.692 183.312 173.048C183.06 176.191 182.817 179.045 182.536 181.551C182.26 184.023 182.077 186.199 181.853 187.952V187.953C181.628 189.704 181.465 191.016 181.349 191.969L181.348 191.979C181.285 192.413 181.241 192.758 181.205 193.062L181.204 193.061C181.189 193.214 181.158 193.363 181.112 193.506L180.137 193.353V192.97L180.139 192.947L180.238 191.852V191.846C180.337 190.881 180.481 189.521 180.661 187.804C180.841 186.088 181.039 183.903 181.272 181.415C181.506 178.934 181.73 176.08 181.964 172.928V172.926C182.458 166.65 182.863 159.134 183.195 150.793C183.528 142.46 183.626 133.293 183.519 123.631C183.41 113.975 182.952 104.844 182.261 96.5332V96.5225C182.135 94.4471 181.859 92.4783 181.677 90.4824C181.496 88.5181 181.327 86.6175 181.051 84.8066V84.8037C180.516 81.1198 180.152 77.7181 179.535 74.6699L179.532 74.6562C179.263 73.1125 178.994 71.6517 178.75 70.2783V70.2773C178.509 68.9153 178.168 67.6625 177.899 66.4082V66.4072C177.391 64.2774 177.018 62.4397 176.578 60.9326L176.385 60.3057C175.843 58.6582 175.516 57.3364 175.256 56.459L175.253 56.4502L174.975 55.4434C174.919 55.2707 174.886 55.0913 174.876 54.9111L175.829 54.6738Z" fill="#7B8D96" stroke="#7B8D96"/>
<path d="M217.849 12.0526C217.843 12.2299 217.826 12.4073 217.798 12.5838L217.799 12.5848C217.753 12.9253 217.692 13.3826 217.62 13.9705L217.619 13.9754C217.457 15.1922 217.214 17.0062 216.825 19.3143C216.105 23.9315 214.907 30.572 213.415 38.7567C210.41 55.1841 206.039 77.7218 201.236 102.652C198.844 115.123 196.568 126.999 194.59 137.825L194.591 137.826C194.113 140.55 193.62 143.167 193.197 145.737V145.74C192.977 147.029 192.76 148.296 192.551 149.541L192.552 149.542C192.364 150.782 192.183 152.009 191.994 153.221L191.995 153.221C191.354 158.125 190.35 162.61 189.571 166.665L189.57 166.668C187.951 174.816 186.927 181.483 186.953 186.113V186.12C186.944 187.138 186.979 188.157 187.059 189.17L187.137 189.798C187.164 189.997 187.192 190.187 187.22 190.368L187.371 191.343V191.344C187.406 191.585 187.467 191.808 187.533 192.02C187.592 192.208 187.671 192.437 187.717 192.618C187.77 192.811 187.807 193.01 187.824 193.212L186.858 193.432V193.431L186.854 193.424C186.853 193.418 186.85 193.411 186.847 193.401C186.839 193.382 186.829 193.352 186.815 193.314C186.788 193.239 186.75 193.126 186.699 192.975L186.694 192.964V192.963L186.29 191.638L186.279 191.606L186.274 191.573C186.178 190.986 186.031 190.209 185.913 189.301L185.911 189.292V189.283C185.811 188.234 185.759 187.18 185.756 186.125L185.753 185.205C185.8 180.492 186.763 174.044 188.247 166.388C189.015 162.275 189.98 157.858 190.607 153.015L190.608 153.007H190.609C190.789 151.789 190.968 150.552 191.147 149.297L191.149 149.286C191.356 148.04 191.574 146.763 191.788 145.475C192.202 142.887 192.689 140.253 193.174 137.542C195.118 126.698 197.385 114.805 199.777 102.333V102.332C204.589 77.4099 208.934 54.8438 212.091 38.4842C213.629 30.3042 214.868 23.6861 215.641 19.1043L215.642 19.0984C216.055 16.8011 216.332 15.0283 216.541 13.8035C216.627 13.2437 216.703 12.7039 216.77 12.4002C216.793 12.2363 216.824 12.0744 216.863 11.9158L217.849 12.0526Z" fill="#7B8D96" stroke="#7B8D96"/>
<path d="M186.261 121.079L186.269 121.08C187.763 121.203 189.145 121.975 190.176 123.213L190.377 123.467L190.381 123.472L190.386 123.479C191.547 125.111 192.366 127.053 192.778 129.138L192.956 130.005C193.349 132.034 193.595 134.102 193.688 136.185L193.729 137.195C193.916 142.251 193.806 147.317 193.399 152.355C192.571 163.738 191.229 173.979 190.476 181.371V181.372C190.089 185.071 189.811 188.076 189.658 190.117C189.586 191.117 189.523 191.909 189.487 192.508C189.469 192.806 189.461 192.998 189.455 193.116C189.452 193.173 189.451 193.221 189.448 193.254C189.447 193.268 189.445 193.296 189.44 193.324C189.439 193.335 189.432 193.374 189.416 193.42C189.409 193.441 189.388 193.497 189.342 193.558C189.298 193.615 189.168 193.755 188.943 193.755H188.486L188.445 193.301C188.418 192.999 188.417 192.694 188.443 192.392C188.443 191.841 188.444 191.023 188.526 189.965C188.635 187.865 188.86 184.85 189.21 181.195C189.887 173.721 191.162 163.543 191.989 152.2V152.196C192.418 146.892 192.53 141.556 192.32 136.232C192.203 133.937 191.905 131.661 191.432 129.435L191.43 129.426C191.064 127.531 190.343 125.773 189.328 124.289C188.488 123.17 187.35 122.507 186.158 122.394V122.395C185.197 122.312 184.231 122.426 183.298 122.732L183.297 122.731C182.499 122.997 181.893 123.264 181.481 123.454C181.286 123.544 181.105 123.632 180.994 123.682C180.94 123.706 180.871 123.736 180.807 123.755C180.781 123.763 180.71 123.783 180.624 123.782C180.555 123.781 180.25 123.755 180.142 123.437L180.026 123.098L180.31 122.879C180.524 122.714 180.753 122.57 180.994 122.453C181.191 122.336 181.394 122.229 181.601 122.133L181.814 122.037C182.182 121.858 182.556 121.704 182.938 121.575C183.875 121.223 184.854 121.05 185.837 121.063L186.261 121.079Z" fill="#7B8D96" stroke="#7B8D96"/>
<path d="M131.019 102.77C131.295 102.782 131.568 102.823 131.838 102.888L131.839 102.887C132.342 102.976 133.068 103.12 133.997 103.329C136.641 103.891 139.26 104.628 141.838 105.536C145.461 106.802 148.949 108.579 152.229 110.828L152.882 111.284L152.888 111.288C157.125 114.381 160.831 118.429 163.81 123.208L163.811 123.209C166.759 127.956 169.193 133.142 171.054 138.64L171.616 140.318C172.902 144.244 174.012 148.252 174.944 152.324H174.945C175.62 155.29 176.174 157.846 176.599 159.882L176.98 161.742L176.981 161.748C177.187 162.836 177.356 163.674 177.482 164.31C177.564 164.635 177.619 164.968 177.646 165.305L176.669 165.491V165.49L176.668 165.489C176.668 165.488 176.667 165.487 176.667 165.486C176.666 165.483 176.666 165.478 176.664 165.473C176.661 165.463 176.656 165.448 176.65 165.429C176.639 165.39 176.622 165.333 176.602 165.257C176.56 165.107 176.5 164.883 176.427 164.588L176.425 164.578L175.85 162.029C175.345 159.834 174.636 156.611 173.675 152.696V152.694C172.572 148.106 171.256 143.6 169.73 139.196V139.195C167.876 133.819 165.475 128.752 162.583 124.11C159.701 119.49 156.136 115.576 152.076 112.568L151.444 112.123C148.27 109.928 144.901 108.182 141.404 106.916L141.396 106.914C138.212 105.707 135.57 105.002 133.731 104.521V104.52L131.626 103.977C131.344 103.926 131.068 103.843 130.803 103.731L131.019 102.77Z" fill="#7B8D96" stroke="#7B8D96"/>
<path d="M160 193.737L171.468 254.562H208.158L217.907 193.737H160Z" fill="#A54AF6"/>
<path d="M131.119 29.9947L128.329 31.4291C123.984 33.6728 119.967 36.5023 116.391 39.8385C120.855 39.9123 125.274 40.7492 129.456 42.3131C135.431 44.3607 141.077 46.3973 146.264 49.9779C147.642 50.9305 149.185 52.2992 148.835 53.9417C148.518 55.409 146.712 56.1317 145.235 55.836C143.793 55.4064 142.465 54.658 141.35 53.6461C132.871 47.2572 122.403 44.0836 111.806 44.6892C109.236 47.7342 107.093 51.1161 105.437 54.741C108.996 53.1148 112.933 52.4987 116.818 52.9603C120.702 53.4218 124.385 54.9432 127.465 57.358C128.307 58.026 129.182 58.9676 128.964 60.0079C128.69 61.3328 126.983 61.6941 125.681 61.6284C121.687 61.4204 117.857 59.8874 113.885 59.5042C109.913 59.1209 104.409 59.8765 102.625 63.457C101.619 66.501 102.188 69.1728 102.877 72.2168C104.912 81.2284 107.976 85.9697 112.9 89.3093C116.949 87.4849 120.469 84.6633 123.131 81.108C126.731 76.6515 129.533 71.5598 133.395 67.3332C134.172 66.4792 135.19 65.6032 136.328 65.8003C136.791 65.9229 137.208 66.1812 137.523 66.5421C137.839 66.903 138.04 67.3501 138.101 67.826C138.207 68.7839 138.079 69.7534 137.728 70.651C135.955 75.7458 133.052 80.3727 129.237 84.1849C126.245 87.2153 123.042 90.0292 119.652 92.6052C122.54 93.7002 125.954 94.6528 130.014 95.7478C140.272 88.5083 147.457 77.6946 150.159 65.428C150.325 64.2279 150.695 63.0651 151.253 61.9898C151.543 61.4575 151.98 61.0203 152.512 60.7309C153.044 60.4414 153.648 60.312 154.252 60.3582C155.959 60.632 156.746 62.6139 157.009 64.3221C158.103 71.3189 155.674 78.5567 151.472 84.2834C147.434 89.7583 141.887 93.9192 135.978 97.2698C143.853 99.1651 151.966 99.881 160.051 99.394C162.517 96.094 164.337 92.3563 165.413 88.3786C166.765 83.1183 167.42 77.7028 167.36 72.2716C167.32 71.6289 167.409 70.9846 167.623 70.3773C167.731 70.0714 167.926 69.8042 168.185 69.6093C168.444 69.4145 168.755 69.3007 169.078 69.2823C170.173 69.2823 170.676 70.7386 170.785 71.8664C171.685 81.029 170.041 90.2623 166.036 98.5509C175.37 96.7113 183.172 92.1344 186.827 83.4841C194.706 64.6615 176.027 54.8615 176.027 54.8615C181.378 43.1343 177.373 34.1993 177.373 34.1993C174.44 28.9982 171.081 25.6257 167.459 23.611C170.1 28.4591 172.154 33.6054 173.576 38.9406C173.775 39.5398 173.857 40.1718 173.817 40.802C173.821 41.129 173.724 41.4492 173.537 41.7178C173.351 41.9864 173.086 42.19 172.778 42.2998C172.47 42.4097 172.136 42.4205 171.822 42.3306C171.507 42.2406 171.229 42.0546 171.026 41.7985C170.587 41.3221 170.245 40.7641 170.02 40.156C168.225 36.0061 166.967 31.6371 165.041 27.5419C164.04 25.3316 162.764 23.2566 161.244 21.3663C154.405 20.1837 147.019 22.4612 140.136 25.5272C147.983 30.2814 154.185 37.3283 157.906 45.7185C158.169 46.3207 158.399 47.0872 157.972 47.5909C157.545 48.0946 156.32 47.788 155.641 47.2405C152.446 44.6673 150.29 41.0539 147.467 38.0974C143.105 33.6043 137.335 30.7442 131.119 29.9947ZM175.699 61.0919C176.105 61.7893 176.313 62.5843 176.3 63.3913C176.213 64.1907 175.502 64.99 174.714 64.8476C174.266 64.7182 173.879 64.4352 173.62 64.0483C172.86 63.1092 172.319 62.0136 172.033 60.84C171.864 60.3094 171.864 59.7392 172.033 59.2085C172.129 58.9487 172.313 58.7307 172.553 58.5926C172.793 58.4545 173.073 58.4051 173.346 58.453C173.879 58.7196 174.352 59.0922 174.736 59.548C175.125 60.0166 175.449 60.5359 175.699 61.0919Z" fill="#84F752"/>
<g opacity="0.3">
<path d="M177.602 56.0659C177.449 56.0659 175.173 66.8185 179.276 71.8883C181.706 74.9143 184.744 77.3952 188.194 79.1698C188.194 79.1698 190.722 59.9093 177.602 56.0659Z" fill="black"/>
</g>
<path d="M161.594 220.859C158.344 218.553 154.594 217.052 150.651 216.479C149.669 216.432 148.71 216.17 147.839 215.713C147.413 215.476 147.089 215.091 146.928 214.631C146.766 214.171 146.779 213.667 146.964 213.216C147.456 212.351 148.66 212.253 149.656 212.329C153.673 212.627 157.544 213.97 160.882 216.227C159.788 209.855 157.6 203.756 149.776 202.934C138.374 201.73 136.579 205.179 136.579 205.179C136.579 205.179 132.082 199.628 119.334 201.128C111.543 202.047 104.551 207.61 99.8348 212.964C105.478 211.583 111.229 210.69 117.025 210.293C118.021 210.216 119.214 210.293 119.706 211.18C119.853 211.563 119.862 211.985 119.732 212.374C119.603 212.764 119.342 213.096 118.995 213.315C118.294 213.739 117.503 213.994 116.686 214.059L96.563 217.125C95.5383 218.547 94.6758 220.078 93.9915 221.691C93.2399 223.809 92.6151 225.97 92.1204 228.163L92.5581 227.955C98.2679 225.284 104.252 223.246 110.405 221.877C112.867 221.33 115.482 220.892 117.89 221.68C118.398 221.792 118.846 222.089 119.148 222.513C119.296 222.836 119.338 223.198 119.267 223.546C119.197 223.894 119.017 224.211 118.754 224.451C118.223 224.921 117.59 225.262 116.905 225.447C111.543 227.33 105.963 228.579 100.776 230.922C96.5342 232.697 92.8461 235.579 90.096 239.266C89.432 244.413 89.2087 249.607 89.4285 254.792C93.5972 247.827 99.6014 242.145 106.783 238.368C108.948 237.18 111.28 236.323 113.699 235.827C114.276 235.666 114.88 235.624 115.475 235.703C116.069 235.782 116.641 235.981 117.157 236.287C118.678 237.382 118.371 239.944 117.091 241.346C115.811 242.748 113.896 243.35 112.134 244.04C107.359 245.949 103.007 248.782 99.3264 252.376C95.6463 255.971 92.7105 260.256 90.6869 264.987C91.29 267.98 92.1654 270.912 93.3021 273.746C96.4967 268.453 100.675 263.822 105.612 260.103C106.275 259.532 107.068 259.133 107.921 258.942C108.347 258.859 108.787 258.922 109.173 259.121C109.558 259.319 109.865 259.642 110.044 260.037C110.339 260.946 109.694 261.855 109.092 262.589C105.705 266.416 102.768 270.618 100.338 275.115C99.2164 277.362 98.3854 279.742 97.8651 282.199C105.109 292.558 112.09 293.226 118.098 291.156L116.106 272.17C115.969 271.365 115.969 270.543 116.106 269.739C116.188 269.338 116.367 268.965 116.629 268.651C116.891 268.338 117.226 268.094 117.605 267.943C118.034 267.846 118.48 267.868 118.897 268.007C119.313 268.146 119.684 268.397 119.969 268.731C120.522 269.413 120.925 270.204 121.151 271.053C123.091 277.089 123.209 283.564 121.49 289.667C124.86 287.915 127.782 285.649 130.09 284.422L130.473 284.203C130.603 279.124 129.523 274.087 127.322 269.509C126.151 267.089 124.674 264.811 123.634 262.326C121.959 258.254 121.536 253.774 122.42 249.46C122.538 248.657 122.833 247.89 123.284 247.215C123.509 246.876 123.823 246.606 124.193 246.436C124.562 246.266 124.971 246.202 125.374 246.252C125.763 246.35 126.12 246.549 126.41 246.827C126.7 247.105 126.912 247.454 127.027 247.839C127.251 248.61 127.351 249.413 127.322 250.215C127.541 257.481 129.524 264.584 133.1 270.91C134.572 273.185 135.864 275.572 136.962 278.05C137.005 278.149 137.042 278.252 137.072 278.356C140.182 274.914 143.104 271.306 145.826 267.549C145.3 263.683 143.167 260.136 141.208 256.709C138.394 251.733 135.837 246.617 133.548 241.379C132.826 239.747 132.126 238.094 131.436 236.452C131.032 235.488 130.703 234.207 131.513 233.561C132.323 232.915 133.45 233.484 134.26 234.064C142.81 240.246 148.89 249.264 151.417 259.512C153.048 257.037 154.492 254.738 155.619 252.81C156.874 250.675 157.992 248.462 158.967 246.186C157.627 242.031 155.467 238.188 152.616 234.883C149.765 231.579 146.28 228.88 142.368 226.947C141.786 226.714 141.252 226.376 140.792 225.951C140.566 225.736 140.41 225.459 140.343 225.154C140.277 224.849 140.304 224.532 140.42 224.243C140.913 223.268 142.346 223.487 143.353 223.892C147.363 225.669 151.19 227.837 154.777 230.363C156.622 231.485 158.333 232.815 159.876 234.327C160.671 235.17 161.332 236.13 161.834 237.174C162.809 233.078 162.932 228.826 162.195 224.681C161.977 223.487 161.78 222.195 161.594 220.859ZM129.314 213.621C128.871 213.79 128.397 213.861 127.924 213.829C127.326 213.883 126.724 213.801 126.162 213.588C125.886 213.478 125.651 213.283 125.492 213.032C125.333 212.78 125.257 212.484 125.276 212.187C125.325 211.978 125.425 211.784 125.566 211.621C125.707 211.459 125.885 211.334 126.086 211.256C126.176 211.212 126.272 211.179 126.37 211.158C126.526 211.141 126.684 211.141 126.841 211.158C127.589 211.088 128.343 211.213 129.029 211.519C129.273 211.601 129.49 211.745 129.661 211.937C129.832 212.129 129.95 212.362 130.003 212.614C129.993 212.829 129.923 213.038 129.801 213.216C129.68 213.394 129.511 213.534 129.314 213.621Z" fill="#84F752"/>
<path d="M184.528 209.351C185.592 213.715 187.54 217.815 190.251 221.396C190.292 220.163 190.525 218.944 190.94 217.782C191.792 215.631 192.894 213.588 194.223 211.694C196.641 207.683 199.445 203.916 202.594 200.449C203.403 199.617 204.706 198.795 205.603 199.529C205.842 199.763 206.006 200.063 206.074 200.39C206.142 200.718 206.112 201.059 205.986 201.369C205.724 201.978 205.353 202.534 204.892 203.011C201.908 206.569 199.666 210.688 198.298 215.126C196.93 219.564 196.463 224.231 196.926 228.852C198.851 230.654 200.89 232.329 203.031 233.867C204.957 235.269 207.408 236.9 210.013 238.62C208.112 227.525 210.202 216.116 215.911 206.416C216.458 205.497 217.344 204.467 218.384 204.741C219.423 205.015 219.686 206.416 219.697 207.533C219.697 209.439 219.762 211.344 219.762 213.26C219.751 219.357 219.434 225.449 218.81 231.513C218.373 235.707 217.815 240.098 218.953 244.083C223.201 246.593 227.585 248.867 232.083 250.894C232.083 250.785 232.083 250.664 232.083 250.555C232.104 247.662 232.338 244.774 232.784 241.915C233.555 234.198 232.428 226.409 229.501 219.228C229.152 218.46 228.92 217.644 228.812 216.808C228.761 216.382 228.821 215.951 228.986 215.556C229.151 215.161 229.415 214.815 229.753 214.552C230.123 214.331 230.547 214.215 230.978 214.215C231.41 214.215 231.833 214.331 232.204 214.552C232.933 215.02 233.553 215.64 234.02 216.37C236.759 220.213 238.283 224.79 238.397 229.509C238.463 232.378 237.992 235.236 237.894 238.105C237.719 243.526 238.844 248.91 241.177 253.807H241.647C244.416 254.015 248.213 254.967 252.294 255.23C247.996 250.01 245.332 243.638 244.634 236.911C244.491 235.987 244.547 235.042 244.798 234.141C244.93 233.691 245.184 233.285 245.531 232.97C245.879 232.655 246.307 232.443 246.768 232.356C247.195 232.344 247.618 232.437 248 232.628C248.382 232.819 248.711 233.102 248.957 233.451C249.454 234.171 249.824 234.971 250.051 235.816L256.168 255.274C262.897 254.727 269.452 251.047 272.067 237.82C270.504 235.639 268.665 233.67 266.596 231.962C262.303 228.614 257.64 225.77 252.699 223.487C251.791 223.027 250.762 222.392 250.664 221.407C250.668 220.942 250.828 220.492 251.117 220.129C251.407 219.766 251.81 219.51 252.261 219.403C253.175 219.224 254.119 219.276 255.008 219.556C261.43 221.055 267.504 223.776 272.899 227.571C272.789 224.322 272.386 221.09 271.695 217.914C267.688 214.174 262.983 211.261 257.849 209.343C252.716 207.425 247.255 206.538 241.778 206.734C239.754 206.822 237.631 207.051 235.771 206.23C233.911 205.409 232.543 203.099 233.528 201.325C233.901 200.804 234.375 200.363 234.922 200.03C235.469 199.697 236.078 199.478 236.712 199.387C239.288 198.829 241.933 198.663 244.558 198.894C253.182 199.479 261.48 202.426 268.544 207.413C266.53 202.257 264.081 197.283 261.223 192.543C256.953 190.124 252.112 188.899 247.206 188.995C241.144 188.93 235.169 190.09 229.107 190.594C228.373 190.695 227.625 190.632 226.919 190.408C226.56 190.287 226.249 190.056 226.031 189.747C225.813 189.438 225.698 189.067 225.704 188.689C225.82 188.147 226.127 187.665 226.568 187.331C228.582 185.535 231.328 184.834 233.976 184.298C240.568 182.991 247.283 182.408 254.001 182.557H254.537C253.101 180.647 251.56 178.819 249.92 177.082C248.549 175.807 247.045 174.683 245.433 173.731L224.435 179.371C223.609 179.655 222.73 179.749 221.863 179.644C221.431 179.575 221.035 179.361 220.74 179.037C220.446 178.712 220.271 178.297 220.244 177.86C220.244 176.765 221.469 176.195 222.432 175.834C228.268 173.732 234.271 172.131 240.378 171.049C233.462 167.851 224.238 165.432 216.25 167.884C203.119 171.903 201.149 179.261 201.149 179.261C201.149 179.261 197.867 176.666 187.296 182.743C180.02 186.915 180.523 193.813 182.153 200.514C184.449 196.874 187.65 193.894 191.443 191.864C192.395 191.371 193.632 190.944 194.463 191.58C194.829 191.948 195.051 192.434 195.091 192.952C195.131 193.469 194.986 193.984 194.682 194.405C194.027 195.215 193.206 195.875 192.275 196.343C188.665 198.597 185.642 201.679 183.455 205.332C183.882 206.723 184.243 208.048 184.528 209.351ZM210.691 183.63C210.642 183.367 210.661 183.096 210.748 182.843C210.834 182.589 210.984 182.363 211.183 182.185C211.729 181.578 212.423 181.125 213.197 180.871C213.348 180.803 213.506 180.752 213.667 180.717H213.985C214.214 180.706 214.443 180.75 214.651 180.848C214.859 180.945 215.04 181.092 215.177 181.276C215.327 181.557 215.382 181.88 215.335 182.195C215.288 182.511 215.14 182.802 214.915 183.028C214.458 183.471 213.909 183.808 213.306 184.013C212.856 184.25 212.359 184.389 211.851 184.418C211.601 184.417 211.358 184.341 211.151 184.201C210.945 184.06 210.784 183.862 210.691 183.63Z" fill="#84F752"/>
<g opacity="0.3">
<path d="M238.147 175.659L242.076 183.061L254.506 181.966C254.506 181.966 247.667 174.191 245.38 173.655L238.147 175.659Z" fill="black"/>
</g>
<g opacity="0.3">
<path d="M245.226 189.018C245.226 189.018 248.99 198.38 265.907 201.303C265.907 201.303 262.175 193.43 261.431 192.631C260.687 191.832 254.439 188.426 245.226 189.018Z" fill="black"/>
</g>
<path d="M139.631 113.815C138.072 111.701 135.937 110.082 133.482 109.15C132.83 108.962 132.23 108.624 131.731 108.165C131.37 107.705 131.545 107.004 132.355 106.654C133.186 106.383 134.086 106.417 134.893 106.752C137.481 107.547 139.768 109.104 141.459 111.22C143.91 107.606 145.42 103.916 139.839 101.814C131.709 98.7478 128.525 100.182 128.525 100.182C128.525 100.182 127.956 96.2951 117.375 94.368C110.908 93.1854 102.635 94.6307 96.2119 96.4594C101.127 96.908 106.009 97.6613 110.831 98.715C111.63 98.8902 112.538 99.1858 112.429 99.7552C112.319 100.325 111.52 100.62 110.765 100.73C110.035 100.812 109.297 100.778 108.577 100.631L91.5067 97.9595C90.006 98.4767 88.5434 99.0987 87.1297 99.8209C86.2543 100.303 84.5254 101.354 82.326 102.843H82.7746C88.4098 102.649 94.0517 102.85 99.6588 103.445C101.696 103.528 103.694 104.035 105.524 104.934C105.808 105.121 106.082 105.361 106.049 105.646C106.016 105.931 105.382 106.424 104.747 106.588C104.107 106.724 103.451 106.768 102.799 106.719C97.6891 106.577 92.7432 106.04 87.5346 106.172C83.2648 106.219 79.0291 106.939 74.9836 108.307C71.9162 110.767 69.0443 113.461 66.3939 116.366C73.3753 113.547 80.7649 111.872 88.2787 111.406C90.4958 111.243 92.7234 111.291 94.9316 111.548C95.9383 111.69 96.9888 111.942 97.3499 112.523C97.9189 113.453 96.376 114.713 94.6581 115.183C92.9435 115.547 91.1872 115.672 89.4386 115.556C79.942 115.552 70.5753 117.764 62.0825 122.016C61.0352 123.638 60.1796 125.376 59.533 127.195C64.8841 125.055 70.46 123.526 76.1545 122.64C76.9349 122.477 77.736 122.436 78.529 122.52C79.2512 122.629 79.8092 123.056 79.6232 123.615C79.4372 124.173 78.4086 124.502 77.5551 124.71C73.0398 125.987 68.6192 127.578 64.3257 129.473C62.3725 130.371 60.5047 131.445 58.7451 132.681C58.9093 139.7 63.9537 141.561 69.6875 141.736L78.0366 131.279C78.395 130.789 78.8268 130.357 79.3168 129.998C79.9316 129.586 80.656 129.369 81.3959 129.374C81.6981 129.359 81.9974 129.44 82.2509 129.605C82.5045 129.77 82.6993 130.011 82.8075 130.294C82.8727 130.806 82.769 131.325 82.512 131.772C80.8816 135.353 77.5442 138.846 73.0797 141.682C76.5812 141.474 80.0062 140.893 82.4245 140.74H82.8293C85.3355 138.478 87.1492 135.55 88.0598 132.298C88.4209 130.765 88.4647 129.254 88.968 127.721C90.1073 124.823 92.1236 122.353 94.7347 120.658C95.2892 120.234 95.9055 119.898 96.5621 119.662C97.2384 119.402 97.9828 119.379 98.6739 119.596C98.7851 119.641 98.8858 119.708 98.9695 119.794C99.0533 119.88 99.1184 119.982 99.1606 120.094C99.2027 120.206 99.2211 120.326 99.2146 120.446C99.2081 120.566 99.1767 120.683 99.1226 120.79C98.8629 121.281 98.5226 121.725 98.1159 122.104C94.5049 125.969 92.3164 130.185 91.7802 134.269C91.7135 135.826 91.4638 137.369 91.0361 138.868C91.0361 138.933 91.0361 138.999 90.9595 139.054C94.7347 138.035 99.046 136.656 103.281 135.199C104.878 133.01 105.086 130.721 105.371 128.487C105.795 125.194 106.475 121.94 107.406 118.753C107.712 117.731 108.03 116.713 108.358 115.698C108.446 115.322 108.64 114.979 108.918 114.711C109.195 114.443 109.544 114.261 109.923 114.187C110.268 114.128 110.622 114.171 110.943 114.311C111.264 114.451 111.537 114.682 111.728 114.975C115.131 119.99 115.088 126.177 111.728 132.068C114.278 131.104 116.587 130.195 118.458 129.418C120.559 128.542 122.583 127.611 124.476 126.637C125.612 124.374 125.957 121.796 125.455 119.315C124.953 116.833 123.633 114.592 121.708 112.95C121.4 112.73 121.158 112.431 121.007 112.085C120.979 111.875 121.024 111.661 121.136 111.481C121.248 111.301 121.419 111.166 121.62 111.099C122.029 110.952 122.469 110.916 122.895 110.995C123.322 111.074 123.72 111.265 124.049 111.548C126.139 113.234 127.981 115.206 129.521 117.406C130.335 118.348 130.969 119.432 131.392 120.604C131.556 121.232 131.556 121.892 131.392 122.52C134.048 120.779 136.35 118.549 138.176 115.95C138.548 115.282 139.084 114.559 139.631 113.815ZM118.578 103.106C118.177 103.1 117.778 103.034 117.396 102.909C116.957 102.83 116.539 102.658 116.171 102.405C116.096 102.352 116.036 102.283 115.994 102.202C115.952 102.121 115.93 102.031 115.93 101.94C115.93 101.848 115.952 101.759 115.994 101.678C116.036 101.597 116.096 101.527 116.171 101.474C116.498 101.268 116.878 101.157 117.265 101.157H117.571L117.954 101.233C118.506 101.324 119.026 101.554 119.465 101.901C119.705 102.109 119.88 102.394 119.661 102.668C119.366 102.941 118.981 103.097 118.578 103.106Z" fill="#84F752"/>
<path d="M298.845 154.482C295.87 149.909 292.272 145.774 288.154 142.196C286.195 140.378 284.215 138.616 282.18 136.886C281.985 136.717 281.848 136.492 281.787 136.242C281.725 135.992 281.742 135.73 281.836 135.49C281.929 135.25 282.094 135.045 282.309 134.903C282.523 134.761 282.776 134.688 283.033 134.696C286.797 134.838 290.518 137.225 293.516 139.776C299.158 144.6 303.964 150.324 307.741 156.715C308.327 153.541 308.43 150.296 308.047 147.091C307.472 140.428 305.452 133.971 302.128 128.17L301.515 128.005C297.072 126.91 292.422 126.45 288.132 124.786C287.586 124.612 287.09 124.308 286.688 123.899C286.494 123.688 286.376 123.42 286.35 123.135C286.324 122.85 286.393 122.564 286.546 122.322C286.762 122.122 287.022 121.974 287.304 121.891C287.587 121.807 287.886 121.79 288.176 121.841C291.721 121.965 295.239 122.505 298.659 123.45C295.317 119.656 290.863 117.016 285.933 115.906C270.613 112.446 269.081 120.877 269.081 120.877C268.786 120.275 262.615 110.398 247.416 114.307C236.889 117.023 231.494 122.377 229.47 128.859C230.838 128.29 232.217 127.764 233.584 127.25C238.27 125.347 243.114 123.863 248.061 122.815C253.041 121.78 258.208 122.105 263.019 123.757C263.774 124.042 264.617 124.479 264.814 125.268C264.874 125.689 264.792 126.119 264.58 126.488C264.367 126.857 264.038 127.145 263.643 127.305C262.838 127.597 261.981 127.717 261.126 127.655C249.17 127.75 237.667 132.248 228.813 140.291C229.635 146.042 231.009 151.7 232.917 157.186C236.365 152.437 240.32 148.079 244.713 144.189C249.648 140.072 255.721 137.017 262.144 136.798C263.038 136.704 263.94 136.875 264.737 137.291C266.291 138.287 266.215 140.74 265.077 142.196C263.803 143.54 262.2 144.526 260.426 145.054C254.856 147.152 249.582 149.964 244.735 153.42C240.999 156.147 237.814 159.558 235.346 163.471C236.88 167.049 238.691 170.502 240.763 173.797C247.008 167.065 254.39 161.486 262.571 157.318C262.978 157.033 263.445 156.845 263.936 156.767C264.427 156.689 264.929 156.724 265.405 156.869C265.868 157.173 266.203 157.636 266.346 158.171C266.49 158.707 266.431 159.276 266.182 159.77C265.669 160.738 264.915 161.556 263.993 162.147C259.54 165.431 254.856 168.574 251.355 172.877C249.173 175.489 247.67 178.6 246.978 181.933C251.698 187.218 257.631 191.277 264.267 193.758C268.067 193.409 271.774 192.378 275.209 190.714C275.545 183.717 274.86 176.709 273.174 169.91C272.994 169.483 272.914 169.02 272.938 168.558C272.963 168.095 273.092 167.644 273.316 167.238C273.524 167.047 273.769 166.901 274.035 166.809C274.301 166.716 274.584 166.68 274.865 166.702C275.146 166.723 275.42 166.802 275.669 166.934C275.919 167.066 276.138 167.248 276.314 167.468C276.981 168.401 277.361 169.509 277.409 170.655L280.002 188.262C282.936 186.536 285.721 184.57 288.329 182.382C288.933 171.755 285.55 161.286 278.842 153.025C278.101 152.262 277.527 151.352 277.157 150.354C276.991 149.848 277.002 149.302 277.189 148.804C277.376 148.306 277.728 147.887 278.186 147.616C279.225 147.156 280.374 147.835 281.271 148.558C286.392 152.774 289.336 159.212 290.43 165.771C291.14 170.61 291.209 175.521 290.638 180.378L291.732 179.283C295.802 175.568 299.52 171.484 302.839 167.085C302.598 162.613 301.224 158.275 298.845 154.482Z" fill="#84F752"/>
<path d="M106.258 155.872C110.611 156.345 114.88 157.402 118.951 159.015C120.935 159.745 122.887 160.475 124.805 161.205C125.659 161.555 126.687 160.701 126.337 159.935C125.243 157.471 122.31 155.774 119.465 154.602C113.92 152.377 108.06 151.036 102.1 150.627C104.507 149.219 107.08 148.115 109.759 147.343C115.145 145.582 120.811 144.839 126.468 145.153L126.764 145.503C128.876 148.098 130.452 151.054 132.935 153.365C133.233 153.683 133.611 153.914 134.03 154.033C134.263 154.095 134.509 154.09 134.739 154.018C134.97 153.946 135.175 153.811 135.332 153.628C135.433 153.435 135.482 153.219 135.472 153.002C135.462 152.784 135.395 152.573 135.277 152.39C134.226 150.051 132.844 147.876 131.174 145.93C134.917 146.805 138.251 148.929 140.628 151.952C147.511 161.041 141.175 164.774 141.175 164.774C141.733 164.774 151.286 165.683 152.238 177.06C152.883 184.933 150.049 190.254 145.41 193.693C145.497 192.598 145.541 191.503 145.585 190.408C145.857 186.72 145.743 183.013 145.246 179.349C144.747 175.701 143.076 172.315 140.486 169.702C140.283 169.456 140.023 169.264 139.73 169.14C139.437 169.016 139.118 168.964 138.801 168.99C138.46 169.066 138.15 169.246 137.915 169.505C137.68 169.764 137.531 170.089 137.487 170.435C137.465 171.054 137.6 171.669 137.881 172.22C141.022 180.093 140.453 189.389 136.426 197.766C131.63 199.065 126.738 199.977 121.796 200.492C124.627 196.744 127.055 192.706 129.04 188.448C130.999 183.838 131.83 178.812 130.276 174.465C130.104 173.832 129.718 173.278 129.182 172.899C127.968 172.187 126.02 173.031 125.166 174.257C124.447 175.471 124.086 176.865 124.127 178.275C123.924 182.752 123.084 187.176 121.632 191.415C120.389 194.896 118.515 198.118 116.106 200.92C112.865 201.057 109.618 200.965 106.389 200.646C110.022 194.542 112.51 187.825 113.732 180.827C113.852 180.082 113.918 179.239 113.327 178.79C112.915 178.585 112.449 178.515 111.996 178.589C111.542 178.664 111.123 178.88 110.799 179.206C110.185 179.866 109.752 180.673 109.541 181.549C108.085 185.579 106.849 189.707 104.343 193.419C102.768 195.784 100.695 197.776 98.2699 199.255C92.9935 197.95 88.1406 195.311 84.1761 191.59C83.4266 188.905 83.2551 186.091 83.6728 183.334C89.1697 180.859 94.9454 179.058 100.874 177.969C101.675 177.927 102.43 177.583 102.986 177.005C103.082 176.817 103.132 176.609 103.132 176.397C103.131 176.186 103.08 175.978 102.982 175.79C102.885 175.603 102.744 175.441 102.571 175.319C102.399 175.197 102.2 175.118 101.99 175.089C101.033 174.947 100.055 175.045 99.1453 175.374L84.3731 179.327C84.9686 176.776 85.7926 174.284 86.8351 171.881C94.9555 168.07 104.082 166.961 112.878 168.716C113.719 168.96 114.599 169.046 115.471 168.968C116.358 168.815 117.299 168.18 117.375 167.402C117.452 166.625 116.609 166.001 115.8 165.65C111.051 163.614 105.109 163.734 99.5721 165.125C95.4823 166.217 91.5262 167.759 87.7762 169.724C87.9512 169.362 88.1263 168.99 88.3123 168.629C90.2294 164.655 92.4999 160.862 95.0966 157.296C98.6695 156.016 102.478 155.53 106.258 155.872Z" fill="#84F752"/>
<path d="M153.944 149.128C156.867 145.603 160.254 142.491 164.011 139.875C165.806 138.554 167.629 137.273 169.482 136.032C169.661 135.911 169.801 135.74 169.883 135.541C169.965 135.341 169.987 135.121 169.945 134.909C169.903 134.698 169.799 134.503 169.647 134.35C169.494 134.197 169.3 134.093 169.088 134.05C166.057 133.743 162.785 135.342 160.072 137.181C154.909 140.699 150.352 145.033 146.58 150.014C146.513 147.231 146.837 144.452 147.543 141.758C148.811 136.171 151.221 130.907 154.622 126.297L155.137 126.232C158.824 125.772 162.599 125.947 166.221 125.027C166.687 124.946 167.125 124.746 167.491 124.447C167.673 124.283 167.802 124.067 167.858 123.829C167.915 123.59 167.897 123.339 167.808 123.111C167.663 122.918 167.474 122.763 167.257 122.658C167.04 122.554 166.801 122.502 166.561 122.509C163.706 122.197 160.823 122.252 157.982 122.673C161.04 119.85 164.936 118.104 169.077 117.702C181.781 116.519 181.935 123.899 181.935 123.899C182.252 123.418 188.402 115.698 200.066 120.812C208.131 124.348 211.786 129.571 212.595 135.331C211.578 134.685 210.538 134.072 209.51 133.48C206.018 131.311 202.328 129.478 198.491 128.006C194.65 126.549 190.472 126.226 186.454 127.075C186.116 127.114 185.793 127.234 185.511 127.425C185.229 127.615 184.997 127.871 184.834 128.17C184.727 128.516 184.737 128.888 184.861 129.228C184.986 129.568 185.219 129.858 185.524 130.053C186.123 130.395 186.794 130.593 187.482 130.633C197.125 132.185 205.798 137.398 211.698 145.186C210.332 149.992 208.534 154.665 206.325 159.147C204.183 154.717 201.563 150.535 198.512 146.675C195.077 142.58 190.612 139.262 185.502 138.331C184.796 138.146 184.049 138.188 183.368 138.452C182.011 139.12 181.76 141.222 182.482 142.602C183.319 143.878 184.483 144.906 185.852 145.58C190.069 148.04 193.934 151.06 197.342 154.559C200.018 157.362 202.141 160.646 203.601 164.238C201.939 167.104 200.066 169.842 197.998 172.429C193.899 166.019 188.689 160.394 182.613 155.818C182.332 155.532 181.987 155.318 181.606 155.194C181.225 155.071 180.82 155.04 180.425 155.106C180.012 155.328 179.689 155.686 179.51 156.119C179.331 156.552 179.306 157.033 179.44 157.482C179.731 158.366 180.248 159.159 180.939 159.782C184.079 163.132 187.439 166.351 189.693 170.414C191.122 172.937 191.935 175.762 192.067 178.659C187.712 182.59 182.447 185.374 176.748 186.762C173.742 186.013 170.906 184.702 168.388 182.897C168.993 176.893 170.41 170.999 172.601 165.377C172.798 165.029 172.92 164.643 172.957 164.245C172.995 163.847 172.948 163.445 172.82 163.067C172.68 162.882 172.502 162.729 172.298 162.62C172.094 162.511 171.869 162.447 171.638 162.434C171.407 162.42 171.176 162.457 170.96 162.542C170.745 162.626 170.55 162.757 170.39 162.924C169.732 163.651 169.285 164.545 169.099 165.508C167.677 170.428 166.258 175.345 164.843 180.258C162.703 178.433 160.723 176.429 158.923 174.268C159.71 165.194 163.688 156.693 170.15 150.277C170.839 149.699 171.405 148.988 171.813 148.186C172.013 147.781 172.074 147.321 171.987 146.878C171.9 146.435 171.67 146.032 171.332 145.733C170.566 145.218 169.548 145.667 168.76 146.182C164.142 149.193 160.991 154.351 159.306 159.825C158.13 163.88 157.465 168.066 157.325 172.286L156.537 171.191C153.731 167.522 151.266 163.604 149.173 159.486C149.905 155.699 151.542 152.145 153.944 149.128Z" fill="#84F752"/>
<g opacity="0.3">
<path d="M114.693 202.223C114.212 202.376 120.624 207.698 128.174 206.022H132.267C132.267 206.022 138.351 208.365 143.45 206.351C148.549 204.336 149.775 202.934 149.775 202.934C149.775 202.934 139.719 201.577 136.578 205.179C136.578 205.179 129.969 197.525 114.693 202.223Z" fill="black"/>
</g>
<g opacity="0.3">
<path d="M175.677 31.21C175.677 31.21 173.007 44.4482 174.101 47.0871C175.644 50.5472 178.172 47.9521 178.172 47.9521C178.172 47.9521 181.006 32.7101 175.677 31.21Z" fill="black"/>
</g>
<path d="M260.633 39.0609C255.556 37.0242 250.019 36.1373 245.259 33.4656C244.241 32.8962 243.125 31.7793 243.661 30.7391C244.066 29.9616 245.128 29.874 246.014 29.8959C258.254 30.3573 270.058 34.561 279.837 41.9406C280.209 31.845 279.366 21.607 274.508 13.7122C271.395 12.7604 268.174 12.2013 264.922 12.0479C258.904 11.7084 252.886 12.3107 246.835 12.1355C245.972 12.1651 245.112 12.0199 244.307 11.7084C243.895 11.5777 243.533 11.3229 243.271 10.9788C243.009 10.6348 242.859 10.2182 242.843 9.78588C242.826 9.35358 242.943 8.92664 243.177 8.56329C243.412 8.19994 243.753 7.91789 244.154 7.75559C244.917 7.39523 245.741 7.17988 246.583 7.12051C253.918 6.24999 261.33 6.24999 268.665 7.12051C264.408 3.5728 258.576 1.09816 250.697 0.00318612C250.697 0.00318612 237.654 -0.522401 225.781 11.9274C225.781 11.9274 204.389 -6.36955 184.999 12.7487C176.081 21.5084 174.297 33.4656 176.639 45.9483C184.909 36.89 195.508 30.2802 207.278 26.841C208.733 26.4139 210.736 26.2825 211.338 27.6732C211.473 28.0803 211.487 28.5184 211.376 28.9331C211.265 29.3477 211.035 29.7206 210.714 30.0054C210.072 30.5667 209.329 31.0014 208.525 31.2866C201.792 33.9215 195.432 37.4259 189.606 41.7107C185.236 45.003 181.523 49.0891 178.663 53.7554C182.072 64.0298 186.984 73.7419 193.239 82.5751C194.464 73.5744 196.872 64.6285 201.632 56.9199C206.61 48.8718 214.38 42.2691 223.593 40.1449C225.836 39.6303 228.681 39.6193 229.863 41.5902C230.219 42.3173 230.358 43.1318 230.263 43.936C230.168 44.7402 229.843 45.4997 229.327 46.1234C228.256 47.3899 226.971 48.4574 225.53 49.277C211.684 58.7147 201.861 72.9883 197.988 89.2982C201.347 93.7876 204.258 97.5324 207.015 100.598C208.515 95.1142 210.41 89.7458 212.683 84.5351C215.66 77.9652 219.698 71.8553 225.223 67.3002C226.152 66.4239 227.278 65.7852 228.506 65.4388C229.128 65.2836 229.781 65.314 230.386 65.5261C230.991 65.7381 231.52 66.1227 231.909 66.6323C232.719 67.9353 232.128 69.6325 231.461 71.0122C228.178 77.8995 223.243 83.9 219.501 90.5684C216.623 95.6929 214.423 101.518 214.434 107.321C221 111.778 228.397 113.212 240.565 111.263C244.701 110.606 248.29 109.971 251.573 107.223C255.107 103.226 253.324 96.0432 250.872 91.302C248.421 86.5608 244.624 82.5422 242.392 77.7353C241.637 76.1038 241.232 73.8044 242.731 72.8079C243.924 72.0195 245.522 72.6327 246.758 73.3445C251.287 75.9536 255.011 79.7607 257.52 84.3482C260.03 88.9356 261.228 94.1261 260.983 99.3501C264.654 95.5155 267.78 91.1936 270.273 86.506C265.768 73.0584 256.64 61.6468 244.515 54.3029C242.797 53.2736 240.948 52.2662 239.842 50.58C238.737 48.8937 238.748 46.2986 240.401 45.1818C242.25 43.9335 244.712 45.1818 246.572 46.4081C253.608 51.0508 258.926 57.0403 264.419 63.4349C269.354 69.1726 272.199 73.8919 273.983 78.4032C276.329 72.3108 277.835 65.9267 278.458 59.4274C278.579 58.0696 278.71 56.679 278.852 55.2665C274.813 47.9357 268.382 42.2149 260.633 39.0609ZM220.595 15.8584C221.355 16.1017 222.059 16.4966 222.663 17.0191C222.862 17.3321 222.943 17.7061 222.891 18.0736C222.839 18.4411 222.657 18.7778 222.378 19.0229C221.809 19.5002 221.105 19.7874 220.365 19.8441C218.774 20.0705 217.152 19.9434 215.616 19.4718C214.998 19.337 214.448 18.9879 214.062 18.4863C213.846 17.9933 213.832 17.4353 214.022 16.9318C214.212 16.4283 214.592 16.0194 215.08 15.7927C216.075 15.376 217.164 15.2396 218.231 15.3985C219.037 15.4358 219.834 15.5907 220.595 15.8584Z" fill="#84F752"/>
<g opacity="0.3">
<path d="M240.345 116.848C240.345 116.848 250.193 120.965 256.518 118.775C262.842 116.585 262.405 115.161 262.405 115.161C262.405 115.161 255.445 110.42 240.345 116.848Z" fill="black"/>
</g>
<path d="M130.062 203.579C125.499 199.331 120.652 194.918 114.579 193.484C110.994 192.83 107.33 192.723 103.713 193.166C96.6772 193.681 89.488 194.261 83.1305 197.393C79.2604 199.363 75.9048 202.212 73.3321 205.713C70.7594 209.213 69.041 213.267 68.3145 217.551L71.6847 214.627C80.5043 209.153 89.871 203.875 100.19 202.725C114.415 201.148 128.115 207.532 140.972 213.752L130.062 203.579Z" fill="#84F752"/>
<g opacity="0.3">
<path d="M130.062 203.579C125.499 199.331 120.652 194.918 114.579 193.483C110.994 192.83 107.33 192.722 103.713 193.166C96.6772 193.681 89.488 194.261 83.1305 197.393C79.2604 199.363 75.9048 202.212 73.3321 205.713C70.7594 209.213 69.041 213.267 68.3145 217.551L71.6847 214.627C80.5043 209.153 89.871 203.875 100.19 202.725C114.415 201.148 128.115 207.532 140.972 213.751L130.062 203.579Z" fill="black"/>
</g>
<path d="M62.5938 208.518C62.5938 208.518 79.5764 122.989 89.5011 120.504L71.9933 204.401L62.5938 208.518Z" fill="#84F752"/>
<g opacity="0.3">
<path d="M62.5938 208.518C62.5938 208.518 79.5764 122.989 89.5011 120.504L71.9933 204.401L62.5938 208.518Z" fill="black"/>
</g>
<path d="M0.0230832 144.319C-0.458382 146.027 6.58852 173.686 21.4811 185.545C36.3737 197.404 44.4055 204.817 44.4055 204.817C44.4055 204.817 25.869 170.193 16.3601 163.481C6.85114 156.769 0.0230832 144.319 0.0230832 144.319Z" fill="#84F752"/>
<path d="M51.5937 116.551C49.2848 117.701 43.562 181.023 56.1238 202.353H66.0814L51.5937 116.551Z" fill="#84F752"/>
<g opacity="0.3">
<path d="M0.0230832 144.319C-0.458382 146.027 6.58852 173.686 21.4811 185.545C36.3737 197.403 44.4055 204.816 44.4055 204.816C44.4055 204.816 25.869 170.193 16.3601 163.481C6.85114 156.769 0.0230832 144.319 0.0230832 144.319Z" fill="black"/>
</g>
<g opacity="0.3">
<path d="M51.5937 116.551C49.2848 117.701 43.562 181.023 56.1238 202.353H66.0814L51.5937 116.551Z" fill="black"/>
</g>
<path d="M68.4251 189.838C68.4251 189.312 101.756 133.26 105.301 135.209C108.846 137.159 79.5973 184.746 79.0392 185.337C78.4812 185.929 67.3418 189.838 67.3418 189.838" fill="#84F752"/>
<g opacity="0.3">
<path d="M68.4251 189.838C68.4251 189.312 101.756 133.261 105.301 135.21C108.846 137.159 79.5973 184.746 79.0392 185.337C78.4812 185.929 67.3418 189.838 67.3418 189.838" fill="black"/>
</g>
<path d="M59.9668 263.2C61.1923 263.2 56.9248 317.106 56.9248 317.106L72.6271 315.671L70.9201 212.985L59.6057 211.726L59.9668 263.2Z" fill="#FFB53D"/>
<path d="M79.7483 188.666C70.945 197.609 65.3042 209.187 63.6848 221.635L63.5098 222.906L65.5779 220.267C87.0255 201.14 105.304 178.728 119.732 153.868C105.113 165.792 92.0694 176.172 79.7483 188.666Z" fill="#84F752"/>
<path d="M113.684 217.08C110.314 214.014 106.637 211.146 102.326 209.7C98.0262 208.459 93.5084 208.167 89.0853 208.846C79.7389 209.926 70.7181 212.935 62.5938 217.683L63.5129 220.551L89.0853 218.23C92.4497 217.754 95.8645 217.754 99.2289 218.23C102.598 219.047 105.825 220.364 108.804 222.139C115.194 225.548 121.493 229.118 127.701 232.848C123.608 227.104 118.909 221.817 113.684 217.08Z" fill="#84F752"/>
<path d="M37.7736 139.162C35.2678 140.016 34.1298 169.712 40.9907 185.337C47.8516 200.962 60.687 218.701 60.687 218.701L67.3728 210.445C67.3728 210.445 49.0005 189.213 46.4291 168.628C43.8576 148.042 37.7736 139.162 37.7736 139.162Z" fill="#84F752"/>
<path d="M69.256 208.922C69.256 208.922 71.4445 198.433 58.7841 196.144C46.1238 193.856 38.9455 195.049 29.5132 199.867C22.432 203.745 15.6442 208.137 9.2041 213.007C15.0381 212.47 20.7412 210.96 26.0773 208.539C35.5206 204.422 45.2374 202.145 53.8163 203.995C62.3951 205.846 66.0827 211.331 66.0827 211.331L69.256 208.922Z" fill="#84F752"/>
<path d="M6.53363 231.096C7.62787 232.41 29.6987 219.654 35.4216 217.365C41.1444 215.077 45.2697 212.646 55.7197 215.931L54.6255 210.456C54.6255 210.456 47.5676 203.229 35.6732 207.773C23.7789 212.317 3.39316 227.373 6.53363 231.096Z" fill="#84F752"/>
<path d="M14.4007 122.277C13.8317 123.372 16.4031 160.842 31.2739 185.337C46.1446 209.831 60.304 222.905 60.304 222.905C60.304 222.905 61.3983 210.981 61.1904 210.127C60.9825 209.273 36.7013 181.548 30.6939 162.496C24.6865 143.443 17.8257 115.697 14.4007 122.277Z" fill="#84F752"/>
<path d="M71.2899 116.551C69.7141 117.12 58.3122 134.07 60.6757 172.099C63.0393 210.127 63.7834 221.635 63.7834 221.635C63.7834 221.635 70.1737 175.406 71.3227 161.193C72.4716 146.98 71.2899 116.551 71.2899 116.551Z" fill="#84F752"/>
<path d="M61.1902 260.014C59.4613 259.773 57.8418 255.558 48.88 260.299C39.9182 265.04 30.2779 288.254 31.011 287.542C31.7442 286.83 51.3311 264.766 57.2181 263.803C63.1051 262.839 66.0814 262.576 66.0814 262.576L61.1902 260.014Z" fill="#84F752"/>
<path d="M37.5771 293.706C37.5771 293.706 42.731 268.675 52.5464 265.128C62.3617 261.58 64.386 261.23 67.6797 265.128C70.9733 269.026 67.6797 269.508 67.6797 269.508C67.6797 269.508 69.0147 266.891 64.2985 266.42C59.5823 265.949 54.6692 270.449 50.3688 273.187C46.0685 275.924 37.5771 293.706 37.5771 293.706Z" fill="#84F752"/>
<path d="M119.799 267.635C117.359 262.228 113.507 257.579 108.649 254.178C102.236 249.656 95.0801 244.805 87.694 246.009C80.3079 247.214 68.8184 262.576 68.8184 262.576C68.8184 262.576 81.4021 254.912 87.7049 253.97C94.0078 253.028 112.938 261.624 119.799 267.635Z" fill="#84F752"/>
<path d="M69.1026 267.055C70.744 266.025 85.2974 265.719 94.5984 270.526C103.899 275.333 115.663 285.669 115.663 285.669C115.663 285.669 99.0738 266.102 95.1236 264.23C91.1734 262.357 76.6638 258.481 70.5908 262.346C64.5177 266.212 69.1026 267.055 69.1026 267.055Z" fill="#84F752"/>
<path d="M35.8271 226.278C35.8271 226.278 38.6175 242.21 46.9009 253.127C55.1843 264.044 63.588 265.237 63.588 265.237L67.8446 263.507C67.8446 263.507 50.4462 244.586 44.406 236.987C38.3658 229.388 35.8271 226.278 35.8271 226.278Z" fill="#84F752"/>
<path d="M56.9244 258.81C56.9244 258.81 52.8429 251.703 42.6336 250.532C32.4244 249.36 15.6387 244.225 15.8357 245.823C16.0327 247.422 28.9666 256.937 41.6816 258.843C54.3967 260.748 61.1919 263.223 61.1919 263.223L56.9244 258.81Z" fill="#84F752"/>
<path d="M69.8794 215.339C69.6824 216.018 62.9091 229.574 63.117 238.925C63.3249 248.276 64.9772 263.201 64.9772 263.201L68.9165 261.744C68.9165 261.744 71.2253 242.32 71.4442 232.246C71.663 222.172 71.4442 210.817 71.4442 210.817L69.8794 215.339Z" fill="#84F752"/>
<path d="M28.0361 308.412L28.9881 322.964H32.7523C32.7523 322.964 39.1208 371.91 46.9118 375.523C50.507 376.964 54.3147 377.804 58.1824 378.009V378.074H75.2964V377.899C79.4216 377.527 83.3828 376.804 85.9543 375.523C93.6139 371.68 100.114 322.964 100.114 322.964H103.878L104.83 308.412H28.0361Z" fill="#FF4F36"/>
<path d="M87.0262 172.022C79.2024 179.118 70.8095 185.874 65.0538 194.743C59.2981 203.612 56.5625 215.285 61.1146 224.822L63.2155 226.344C64.1347 211.978 72.9543 199.495 81.4456 187.877C92.0487 173.358 111.264 154.459 113.266 144.341C105.217 154.206 96.4459 163.458 87.0262 172.022Z" fill="#84F752"/>
<path d="M94.8403 214.77C94.0634 216.588 72.2333 234.731 68.8193 248.78C65.4053 262.828 65.4053 266.672 65.4053 266.672H68.8193C68.8193 266.672 78.1532 253.455 82.9569 245.769C87.7606 238.082 94.8403 214.77 94.8403 214.77Z" fill="#84F752"/>
<g opacity="0.3">
<path d="M119.799 267.635C117.359 262.228 113.507 257.579 108.649 254.178C102.236 249.656 95.0801 244.805 87.694 246.009C80.3079 247.214 68.8184 262.576 68.8184 262.576C68.8184 262.576 81.4021 254.911 87.7049 253.97C94.0078 253.028 112.938 261.624 119.799 267.635Z" fill="black"/>
</g>
<path d="M43.4541 218.361C43.4541 218.361 51.6718 246.732 56.388 254.659C59.295 259.455 63.6473 263.205 68.8186 265.368C68.8186 265.368 63.1723 245.659 60.4586 241.859C57.7449 238.06 43.4541 218.361 43.4541 218.361Z" fill="#84F752"/>
<path d="M257.697 171.214C257.814 171.327 257.922 171.448 258.021 171.576H258.022L258.832 172.573L258.837 172.579C259.511 173.435 260.612 174.717 261.836 176.481L262.499 177.402C265.796 182.021 268.781 186.854 271.437 191.871L272.216 193.358C276.081 200.809 279.515 208.477 282.503 216.323L283.175 218.106C286.526 227.09 289.729 237.04 292.574 247.577L292.575 247.578C297.709 266.787 301.641 286.299 304.35 305.998L304.739 308.763C305.601 315.058 306.138 320.224 306.54 323.94L306.541 323.943C306.76 326.062 306.892 327.72 306.979 328.838V328.839L307.078 330.109H307.077C307.092 330.262 307.092 330.416 307.077 330.569L306.095 330.644C306.051 330.472 306.024 330.297 306.015 330.12L306.014 330.106V330.093C306.014 329.974 305.997 329.821 305.967 329.611C305.938 329.411 305.898 329.158 305.864 328.883V328.879C305.732 327.718 305.558 326.106 305.316 324.007V324.006C304.835 319.772 304.103 313.657 302.999 306.131V306.129C300.175 286.511 296.2 267.076 291.095 247.924C288.068 236.727 284.658 226.199 281.108 216.798L280.512 215.241C277.496 207.464 274.05 199.861 270.19 192.467C267.416 187.176 264.295 182.074 260.848 177.195L260.842 177.186C259.653 175.429 258.641 174.201 257.957 173.254L257.19 172.236L257.191 172.235C257.087 172.103 256.993 171.963 256.912 171.815L257.697 171.214Z" fill="#3D5564" stroke="#3D5564"/>
<path d="M349.341 203.95C349.47 203.93 349.64 203.959 349.772 204.091L349.998 204.317L349.889 204.616C349.84 204.75 349.775 204.878 349.698 204.999L349.7 204.999L349.186 205.898L349.182 205.904L347.168 209.298L347.167 209.3L345.704 211.746C345.179 212.653 344.616 213.642 344.075 214.693L344.072 214.698C342.896 216.919 341.517 219.233 340.186 221.985L340.182 221.992C339.492 223.36 338.769 224.797 337.99 226.3C337.219 227.789 336.58 229.35 335.812 231.01L335.811 231.014C334.265 234.282 332.86 237.82 331.314 241.572C324.875 257.91 320.397 274.957 317.974 292.352C317.48 296.39 316.958 300.177 316.708 303.76L316.707 303.765C316.563 305.587 316.368 307.284 316.281 308.953C316.193 310.634 316.129 312.225 316.052 313.759V313.766C315.856 316.806 315.9 319.558 315.855 322.01V325.395C315.855 326.44 315.856 327.373 315.92 328.215L315.921 328.234V328.253C315.921 329.933 315.987 331.237 316.009 332.195V333.208C316.026 333.357 316.025 333.507 316.004 333.656L315.011 333.634C314.998 333.502 314.999 333.369 315.009 333.236L315.001 332.806C314.993 332.649 314.979 332.475 314.949 332.282L314.943 332.245V332.207C314.943 331.278 314.836 330.004 314.758 328.287L314.757 328.276V328.264C314.757 327.412 314.682 326.496 314.637 325.427C314.592 324.374 314.637 323.188 314.637 322C314.637 319.57 314.636 316.781 314.746 313.694V313.691C314.812 312.159 314.878 310.549 314.943 308.874C315.009 307.191 315.209 305.422 315.338 303.646C315.569 300.027 316.086 296.175 316.566 292.159L316.567 292.151L316.795 290.508C319.214 273.548 323.644 256.934 329.991 241.018L329.994 241.01C331.554 237.266 332.995 233.669 334.577 230.391L335.134 229.179C335.684 227.96 336.221 226.734 336.772 225.647L336.773 225.646L338.962 221.354C340.325 218.594 341.771 216.182 342.941 214.068L342.942 214.066C343.554 212.974 344.094 212.002 344.635 211.097C344.908 210.639 345.187 210.21 345.446 209.81C345.707 209.407 345.947 209.037 346.153 208.683L346.157 208.675L346.161 208.668L348.263 205.318L348.268 205.31L348.825 204.456C348.868 204.372 348.906 204.298 348.941 204.243C348.96 204.212 348.988 204.17 349.021 204.131C349.034 204.117 349.074 204.071 349.135 204.03C349.164 204.011 349.236 203.966 349.341 203.95Z" fill="#3D5564" stroke="#3D5564"/>
<path d="M327.375 175.803C327.397 175.979 327.397 176.157 327.375 176.332V176.334L327.232 177.451C327.112 178.547 326.949 179.998 326.741 181.899V181.903L324.815 198.326L324.814 198.329C323.129 212.203 320.799 231.298 318.249 252.387V252.388C316.957 262.959 315.667 272.993 314.672 282.154C313.677 291.312 312.978 299.559 312.617 306.5C312.257 313.442 312.202 319.081 312.257 322.957V322.964C312.257 324.903 312.322 326.404 312.354 327.438L312.355 327.446V328.589C312.375 328.755 312.374 328.923 312.351 329.089L311.356 329.061C311.344 328.909 311.344 328.756 311.355 328.604C311.355 328.317 311.353 327.977 311.275 327.541L311.271 327.514L311.269 327.486C311.203 326.464 311.115 324.947 311.06 322.991L311.021 321.443C310.942 317.643 310.969 312.544 311.257 306.44C311.586 299.465 312.222 291.166 313.196 281.992C314.171 272.823 315.386 262.756 316.721 252.2L323.461 198.163L323.462 198.161C324.348 191.274 325.07 185.69 325.573 181.738V181.735C325.825 179.829 326.034 178.336 326.176 177.287V177.284L326.34 176.124C326.349 176.003 326.365 175.883 326.39 175.764L327.375 175.803Z" fill="#3D5564" stroke="#3D5564"/>
<path d="M289.076 207.3L289.081 207.311L289.413 208.22L289.414 208.223L290.607 211.672L290.608 211.674L291.461 214.169L291.464 214.179C291.76 215.101 292.051 216.13 292.374 217.186L292.377 217.196C292.994 219.362 293.791 221.812 294.472 224.571C295.145 227.299 295.995 230.326 296.665 233.602C297.327 236.839 298.155 240.344 298.854 244.021L299.383 246.819C300.611 253.429 301.801 260.606 302.798 268.137C304.547 281.006 305.773 293.007 306.738 302.959L307.626 312.185V312.186L308.906 325.544V325.546C309.036 326.952 309.139 328.082 309.222 328.932C309.232 329.022 309.243 329.108 309.253 329.191H309.254L309.385 330.133L309.389 330.163C309.391 330.193 309.395 330.223 309.4 330.252C309.417 330.306 309.433 330.361 309.444 330.416L308.482 330.681C308.476 330.662 308.472 330.641 308.466 330.622C308.45 330.549 308.424 330.478 308.388 330.414L308.336 330.321L308.326 330.214C308.309 330.028 308.251 329.667 308.248 329.255C308.241 329.181 308.234 329.105 308.227 329.026C308.129 328.189 307.991 327.078 307.824 325.697L307.517 323.081C307.189 320.215 306.801 316.606 306.357 312.352L305.402 303.125C304.378 293.18 303.119 281.207 301.38 268.371V268.367C300.287 259.807 298.866 251.704 297.488 244.305V244.304C296.766 240.626 296.079 237.145 295.306 233.917C294.527 230.669 293.84 227.657 293.12 224.927C292.398 222.192 291.702 219.741 291.108 217.554L290.661 215.992C290.518 215.498 290.379 215.023 290.244 214.544C290.114 214.084 289.978 213.656 289.843 213.246L289.45 212.053C288.98 210.576 288.616 209.396 288.355 208.57L288.353 208.56C288.241 208.18 288.157 207.887 288.084 207.668L288.086 207.667C288.036 207.525 288.004 207.377 287.994 207.227L288.956 207.004L289.076 207.3Z" fill="#3D5564" stroke="#3D5564"/>
<path d="M269.701 237.425L269.736 237.463L269.764 237.508L270.157 238.165L270.162 238.172L270.166 238.18L271.586 240.748L272.078 241.624C273.278 243.784 274.832 246.754 276.651 250.338L277.664 252.333C282.356 261.663 286.606 271.209 290.399 280.939L291.205 283.027L291.206 283.031C293.661 289.612 295.744 295.897 297.465 301.678L297.468 301.685C298.287 304.592 299.089 307.364 299.727 309.992C300.361 312.608 300.953 315.042 301.457 317.269C301.962 319.499 302.337 321.564 302.695 323.336C303.058 325.13 303.312 326.639 303.51 327.949C303.707 329.252 303.848 330.133 303.958 330.849L303.964 330.887V330.925C303.964 331.181 304.021 331.32 304.067 331.613C304.106 331.779 304.109 331.95 304.072 332.117L303.092 332.009L303.084 332.01V332.015C303.084 332.017 303.085 332.019 303.085 332.021C303.085 332.025 303.085 332.029 303.085 332.032C303.085 332.038 303.086 332.043 303.086 332.046V332.047C303.084 332.035 303.075 331.998 303.051 331.932L303.038 331.899L303.03 331.865L302.866 331.12L302.864 331.112L302.863 331.103C302.731 330.387 302.539 329.447 302.306 328.215C302.075 326.995 301.792 325.428 301.4 323.664C301 321.863 300.636 319.873 300.09 317.653C299.54 315.418 298.996 313.003 298.298 310.415C297.598 307.822 296.833 305.065 296.002 302.178V302.177C294.266 296.408 292.18 290.159 289.734 283.603L288.806 281.193C284.141 269.236 279.188 258.664 275.396 250.972V250.971C273.363 246.879 271.69 243.587 270.511 241.325L270.509 241.321L269.174 238.704L269.167 238.691L269.168 238.69L268.846 238.013C268.791 237.919 268.749 237.819 268.721 237.715C268.715 237.696 268.71 237.678 268.706 237.659C268.705 237.656 268.704 237.653 268.703 237.65L268.704 237.649C268.697 237.615 268.692 237.58 268.692 237.546L269.68 237.442C269.672 237.408 269.663 237.385 269.657 237.374L269.701 237.425Z" fill="#3D5564" stroke="#3D5564"/>
<path d="M309.4 279.275C309.4 283.943 309.51 288.383 309.619 292.532C309.729 296.682 309.991 300.529 310.134 304.077H310.133C310.461 311.122 310.735 316.826 310.921 320.817V320.821C310.997 322.769 311.064 324.289 311.107 325.364V326.567C311.116 326.722 311.111 326.877 311.093 327.031L310.107 327.076C310.075 326.923 310.053 326.767 310.043 326.611L310.042 326.594V326.577C310.042 326.285 310.041 325.929 309.962 325.483L309.957 325.454L309.955 325.425C309.889 324.33 309.791 322.823 309.671 320.882V320.88C309.441 316.899 309.102 311.186 308.697 304.149L308.696 304.145C308.522 300.627 308.226 296.748 308.116 292.581C308.007 288.423 307.876 283.971 307.843 279.29L307.828 275.733C307.829 267.334 308.081 258.263 308.752 248.822C309.519 238.029 310.835 227.799 312.236 218.538C313.638 209.28 315.072 201.008 316.265 194.013C317.458 187.01 318.453 181.434 319.087 177.505V177.503C319.246 176.539 319.391 175.679 319.519 174.927C319.646 174.175 319.754 173.533 319.842 173.003L319.844 172.995C319.929 172.528 319.997 172.118 320.052 171.832C320.071 171.672 320.105 171.514 320.159 171.363L321.128 171.476C321.144 171.628 321.144 171.782 321.131 171.935L321.126 172.076C321.117 172.221 321.096 172.373 321.073 172.519C321.041 172.726 321.006 172.932 320.974 173.172L320.973 173.176C320.82 174.266 320.599 175.76 320.327 177.688L320.326 177.691C319.746 181.604 318.837 187.258 317.688 194.243C316.539 201.231 315.14 209.571 313.772 218.764C312.406 227.955 311.094 238.189 310.352 248.935C309.608 259.684 309.357 269.943 309.4 279.273V279.275Z" fill="#3D5564" stroke="#3D5564"/>
<path d="M264.365 158.324C261.936 150.9 259.146 143.586 255.994 136.425C251.366 125.869 245.216 114.93 234.689 110.255C229.831 108.065 223.452 107.769 219.819 111.656C216.711 114.941 216.722 120.263 218.32 124.533C219.917 128.804 222.806 132.439 225.049 136.403C228.212 142.02 230.05 148.261 232.249 154.316C234.449 160.372 237.151 166.438 241.649 171.048C246.146 175.657 252.777 178.636 259.069 177.289L262.899 172.668C263.883 171.832 264.665 170.784 265.188 169.603C265.711 168.422 265.961 167.138 265.919 165.846C265.815 163.271 265.29 160.73 264.365 158.324Z" fill="#84F752"/>
<g opacity="0.3">
<path d="M248.346 122.245C248.346 122.245 243.521 165.146 255.492 177.749C255.492 177.749 257.385 178.702 259.748 176.49C261.4 174.957 251.246 126.822 251.246 126.822L248.346 122.245Z" fill="black"/>
</g>
<path d="M385.661 181.965C385.041 181.977 384.427 181.846 383.867 181.582C383.594 181.438 383.38 181.205 383.258 180.922C383.137 180.639 383.116 180.323 383.199 180.027C383.335 179.8 383.516 179.603 383.73 179.449C383.945 179.294 384.188 179.185 384.447 179.129C388.297 177.787 392.341 177.088 396.418 177.059C399.241 172.909 400.663 168.737 399.7 164.883C397.621 156.89 384.381 161.752 370.856 167.325C357.331 172.898 347.21 179.501 340.217 193.068C333.225 206.635 342.307 212.887 342.307 212.887C342.307 212.887 342.647 216.018 355.865 212.887C369.083 209.755 373.942 197.557 383.67 189.892C386.673 187.544 389.503 184.982 392.139 182.228L385.661 181.965Z" fill="#84F752"/>
<path d="M346.017 74.6134C346.017 74.6134 333.794 73.1352 322.009 94.8923C310.224 116.649 307.27 157.076 314.536 166.438C321.801 175.8 325.478 152.576 324.449 153.003C323.421 153.43 346.017 75.5551 346.017 75.5551" fill="#84F752"/>
<g opacity="0.3">
<path d="M346.017 74.6134C346.017 74.6134 333.794 73.1352 322.009 94.8923C310.224 116.649 307.27 157.076 314.536 166.438C321.801 175.8 325.478 152.576 324.449 153.003C323.421 153.43 346.017 75.5551 346.017 75.5551" fill="black"/>
</g>
<path d="M346.017 74.6136C334.844 81.5229 327.152 93.1515 323.037 105.612C321.14 111.752 319.634 118.006 318.529 124.336C316.516 134.618 314.481 144.944 314.152 155.412C314.01 159.792 313.408 166.602 316.22 169.986C317.993 172.121 318.31 173.993 321.09 174.125L332.032 143.531C335.895 132.833 337.667 122.19 340.786 110.682C342.756 103.51 346.596 92.3303 347.122 86.7788C347.68 80.6688 349.715 75.4677 346.017 74.6136Z" fill="#84F752"/>
<g opacity="0.3">
<path d="M335.851 130.6C335.851 130.6 310.301 142.426 316.155 170.019L320.598 175.899L335.851 130.6Z" fill="black"/>
</g>
<path d="M387.346 119.475C386.623 119.023 385.778 118.808 384.927 118.862C374.737 118.52 364.572 120.069 354.945 123.428C345.738 126.482 337.351 131.602 330.423 138.396C323.65 145.283 318.824 154.273 317.763 163.876C317.095 169.92 318.036 176.402 321.735 181.231C325.434 186.06 332.305 188.688 337.897 186.301H337.492C341.119 185.519 344.327 183.42 346.498 180.41C349.638 176.172 351.05 170.96 353.063 166.088C356.761 157.206 362.532 149.339 369.893 143.148C366.973 143.212 364.08 142.589 361.445 141.33C366.744 140.747 371.834 138.933 376.309 136.032C380.783 133.131 384.517 129.223 387.214 124.621C388.155 122.968 388.823 120.614 387.346 119.475Z" fill="#84F752"/>
<path d="M267.91 103.313C265.853 104.101 245.314 111.668 251.923 148.886C251.923 148.886 253.663 172.537 257.132 176.019C259.58 178.371 262.26 180.47 265.131 182.282H259.266C259.266 182.282 258.872 200.021 271.39 206.284C283.908 212.547 289.992 211.42 289.992 211.42C294.223 210.347 298.033 208.021 300.922 204.747C303.812 201.473 305.646 197.402 306.187 193.068C308.616 177.41 300.278 149.576 292.629 136.71C284.98 123.844 282.507 97.7505 267.91 103.313Z" fill="#84F752"/>
<path d="M273.338 225.183C271.073 214.299 261.979 206.284 252.886 199.9C243.011 192.956 232.516 186.937 221.536 181.921C217.159 179.939 212.224 178.078 207.716 179.731L207.541 179.808C207.094 180.021 206.717 180.358 206.455 180.779C206.193 181.2 206.057 181.688 206.064 182.184V182.501C207.103 191.874 213.723 199.857 220.617 206.306C227.511 212.755 235.444 217.935 242.414 224.275L249.45 223.596C246.977 224.34 245.347 227.538 245.883 230.242C246.529 233.472 249.166 235.903 251.781 237.907C256.266 241.322 261.159 244.165 266.345 246.371C267.059 246.701 267.835 246.872 268.621 246.875C272.353 246.875 273.173 242.999 273.447 239.889C273.896 234.972 274.333 229.946 273.338 225.183Z" fill="#84F752"/>
<path d="M339.025 321.234L311.833 321.07H308.551H305.268L278.076 321.234C277.934 322.932 262.899 365.898 292.903 378.085H324.111C354.202 365.898 339.168 322.932 339.025 321.234Z" fill="#4AB5F7"/>
<g opacity="0.3">
<path d="M218.581 113.398C218.581 113.398 235.455 114.657 242.655 129.592C249.855 144.528 241.615 171.059 241.615 171.059C235.433 165.398 233.605 157.394 229.403 146.389C225.574 136.326 216.645 119.015 217.049 117.723C217.454 116.431 218.581 113.398 218.581 113.398Z" fill="black"/>
</g>
<g opacity="0.3">
<path d="M213.1 198.192C213.1 198.017 222.215 199.484 230.915 186.564C230.915 186.564 216.952 177.804 208.899 179.402C200.845 181.001 213.1 198.192 213.1 198.192Z" fill="black"/>
</g>
</g>
<defs>
<clipPath id="clip0_644_4554">
<rect width="400" height="370" fill="white"/>
</clipPath>
</defs>
</svg>
