<svg xmlns="http://www.w3.org/2000/svg" xmlns:xlink="http://www.w3.org/1999/xlink" viewBox="0 0 400 370">
  <defs>
    <path id="aa" d="M9.314 34.154c2.357-2.112 5.152-4.042 7.682-6.597L.31 0l9.004 34.154z"/>
    <path id="c" d="M.642 7.331L5.879 27.7c4.695-2.763 9.391-5.525 13.646-8.469L8.447.636C6.05 2.78 3.215 4.741.642 7.331z"/>
    <path id="e" d="M.065 8.649l5.13 19.513 20.585-8.57L13.784.368C9.06 3.07 4.34 5.768.065 8.648z"/>
    <path id="g" d="M.743 9.22L5.82 27.663l28.065-7.184L21.517.644.743 9.22z"/>
    <path id="i" d="M.944 8.342l4.774 18.592c11.76-1.436 23.696-3.319 35.018-4.933L28.353.821.944 8.342z"/>
    <path id="k" d="M.372 5.181l8.112 30.3 30.52-12.924 8.719-3.694L35.878.525C23.955 1.867 11.851 3.655.372 5.181z"/>
  </defs>
  <g fill="none" fill-rule="evenodd">
    <g transform="translate(103 60)">
      <mask id="b" fill="#fff">
        <use xlink:href="#aa"/>
      </mask>
      <path fill="#FE4A4A" d="M-2.3-6.328L30.1 7.148 16.302 42.303l-32.4-13.475z" mask="url(#b)"/>
    </g>
    <g transform="translate(111 87)">
      <mask id="d" fill="#fff">
        <use xlink:href="#c"/>
      </mask>
      <path fill="#F7EF4C" d="M1.4-7.458L30.54 4.478l-13.2 33.123-29.14-11.936z" mask="url(#d)"/>
    </g>
    <g transform="translate(117 106)">
      <mask id="f" fill="#fff">
        <use xlink:href="#e"/>
      </mask>
      <path fill="#84F752" d="M2.195-9.544l34.82 14.123-14.428 35.85-34.821-14.123z" mask="url(#f)"/>
    </g>
    <g transform="translate(122 125)">
      <mask id="h" fill="#fff">
        <use xlink:href="#g"/>
      </mask>
      <path fill="#4AB5F7" d="M3.972-11.608L45.403 5.029 30.12 42.63l-41.432-16.64z" mask="url(#h)"/>
    </g>
    <g transform="translate(127 144)">
      <mask id="j" fill="#fff">
        <use xlink:href="#i"/>
      </mask>
      <path fill="#A54AF6" d="M4.739-14.028L52.479 5.48 36.761 44.818l-47.74-19.507z" mask="url(#j)"/>
    </g>
    <g transform="translate(133 166)">
      <mask id="l" fill="#fff">
        <use xlink:href="#k"/>
      </mask>
      <path fill="#8387F7" d="M4.298-17.654L58.594 4.58l-19.42 48.715-54.296-22.235z" mask="url(#l)"/>
    </g>
    <path fill="#A54AF6" d="M154.077 137.652c-25.183 8.099-40.36 28.3-45.512 60.627l.082.079c8.778-9.564 16.328-18.68 20.618-26.149 0 0 10.263-21.409 24.812-34.557M355.358 270.23c-9.482-3.3-59.114-15.664-76.99-54.308-15.986-34.56-56.492-83.292-103.942-81.423 2.93 8.584 3.785 22.706-7.005 30.133 0 0 118.54 15.227 119.71 205.368 57.076-.738 99.26-32.77 99.26-60.654 0-30.772-23.251-36.934-31.033-39.115"/>
    <path fill="#EFF6F7" d="M142.143 370h144.993c0-.176-.003-.348-.004-.525C285.96 179.335 167.42 164.11 167.42 164.11c10.79-7.429 9.936-21.551 7.006-30.133-.897-2.626-1.986-4.739-2.998-5.976-6.16 1.156-12.042 4.854-17.351 9.653-14.55 13.147-24.813 34.557-24.813 34.557-4.29 7.468-11.841 16.584-20.618 26.148-21.47 23.395-50.29 49.478-56.766 60.725-9.122 15.845 9.602 55.698 33.128 52.817 23.525-2.88 84.797-39.127 84.797-39.127 19.555 24.307-10.493 81.5-27.663 97.227"/>
    <path stroke="#4A4A4A" stroke-linecap="round" stroke-linejoin="round" stroke-width="3.622" d="M125.324 214.117c0 6.137 4.974 11.11 11.11 11.11 6.136 0 11.11-4.973 11.11-11.11"/>
    <path fill="#4A4A4A" d="M77.682 292.78a4.566 4.566 0 10-9.132 0 4.566 4.566 0 009.132 0"/>
    <path fill="#4AB5F7" d="M165 77h-4a3 3 0 000 6h4v4a3 3 0 006 0v-4h4a3 3 0 000-6h-4v-4a3 3 0 00-6 0v4z"/>
    <path fill="#A54AF6" d="M225 48h-4a3 3 0 000 6h4v4a3 3 0 006 0v-4h4a3 3 0 000-6h-4v-4a3 3 0 00-6 0v4z"/>
    <path fill="#F7EF4C" d="M32.1 119.1h-5.2a3.9 3.9 0 000 7.8h5.2v5.2a3.9 3.9 0 107.8 0v-5.2h5.2a3.9 3.9 0 000-7.8h-5.2v-5.2a3.9 3.9 0 00-7.8 0v5.2z"/>
    <path fill="#84F752" d="M20.35 199.35h-4.2a3.15 3.15 0 100 6.3h4.2v4.2a3.15 3.15 0 106.3 0v-4.2h4.2a3.15 3.15 0 100-6.3h-4.2v-4.2a3.15 3.15 0 10-6.3 0v4.2z"/>
    <path fill="#FE4A4A" d="M133.9 26.9h-2.8a2.1 2.1 0 100 4.2h2.8v2.8a2.1 2.1 0 104.2 0v-2.8h2.8a2.1 2.1 0 100-4.2h-2.8v-2.8a2.1 2.1 0 10-4.2 0v2.8z"/>
  </g>
</svg>