<svg
  xmlns="http://www.w3.org/2000/svg"
  xmlns:xlink="http://www.w3.org/1999/xlink" viewBox="0 0 78 78">
  <style>
    circle {
      fill: rgba(13,14,20,.5);
    }
    @media (prefers-color-scheme: dark) {
      circle {
        fill: rgba(255,255,255,.2);
      }
    }
  </style>
  <defs>
    <circle id="a" cx="39" cy="39" r="39"/>
    <path id="c" d="M9.1 25.3c1.7-1.5 3.6-2.8 5.4-4.6L2.9 1.4 9 25.3z"/>
    <path id="e" d="M.7 5.3l3.6 14.3c3.3-2 6.6-3.9 9.5-6L6.1.7C4.4 2.3 2.5 3.7.7 5.4z"/>
    <path id="g" d="M.5 7.5L4 21.1l14.3-6L10 1.7C6.7 3.6 3.4 5.5.5 7.5z"/>
    <path id="i" d="M.4 9.1l3.5 13c6.5-1.8 13-3.4 19.6-5.1L14.9 3 .4 9.1z"/>
    <path id="k" d="M0 5.7l3.4 13c8.1-1 16.4-2.3 24.3-3.4L19.1.5 0 5.7z"/>
  </defs>
  <g fill="none" fill-rule="evenodd">
    <use xlink:href="#a"/>
    <use fill="#0D0E14" fill-rule="nonzero" xlink:href="#a"/>
    <g mask="url(#b)">
      <g transform="translate(22.3 7.2)">
        <mask id="d" fill="#fff">
          <use xlink:href="#c"/>
        </mask>
        <path fill="#FE4A4A" d="M1.1-3l22.5 9.4L14 31l-22.5-9.4z" mask="url(#d)"/>
      </g>
    </g>
    <g mask="url(#b)">
      <g transform="translate(30.3 27.2)">
        <mask id="f" fill="#fff">
          <use xlink:href="#e"/>
        </mask>
        <path fill="#F7EF4C" d="M1.2-5l20.3 8.4-9.2 23.1L-8 18.1z" mask="url(#f)"/>
      </g>
    </g>
    <g mask="url(#b)">
      <g transform="translate(34.3 39.3)">
        <mask id="h" fill="#fff">
          <use xlink:href="#g"/>
        </mask>
        <path fill="#84F752" d="M1.9-5.2l24.3 9.9-10.1 25-24.2-9.9z" mask="url(#h)"/>
      </g>
    </g>
    <g mask="url(#b)">
      <g transform="translate(38.3 51.3)">
        <mask id="j" fill="#fff">
          <use xlink:href="#i"/>
        </mask>
        <path fill="#4AB5F7" d="M2.7-5.4L31.5 6.2 20.8 32.5-8 20.8z" mask="url(#j)"/>
      </g>
    </g>
    <g mask="url(#b)">
      <g transform="translate(42.3 67.4)">
        <mask id="l" fill="#fff">
          <use xlink:href="#k"/>
        </mask>
        <path fill="#A54AF6" d="M2.7-9.9L35.9 3.7l-11 27.5-33.2-13.6z" mask="url(#l)"/>
      </g>
    </g>
    <path fill="#A54AF6" d="M60.5 62.8c-17.5 5.7-28 19.8-31.7 42.4h.1A115 115 0 0043.2 87s7.2-15 17.3-24.2zM146.9 117.5c-11.1-24.1-39.3-58.2-72.3-56.9 2 6 2.7 15.9-4.8 21 0 0 82.4 10.7 83.2 143.5 39.7-.5 69-22.9 69-42.4 0-21.5-16.2-25.8-21.6-27.3-6.6-2.3-41-11-53.5-37.9z" mask="url(#b)"/>
    <path fill="#EFF6F7" d="M52.2 225H153v-.3C152.2 92 69.8 81.3 69.8 81.3c7.5-5.2 6.9-15 4.8-21-.6-1.9-1.3-3.3-2-4.2-4.3.8-8.4 3.4-12.1 6.7C50.4 72 43.2 87 43.2 87A115 115 0 0129 105.2c-15 16.4-35 34.6-39.5 42.4-6.3 11.1 6.7 39 23 37 16.4-2 59-27.4 59-27.4 13.6 17-7.3 57-19.2 67.9z" mask="url(#b)"/>
  </g>
</svg>