<svg xmlns="http://www.w3.org/2000/svg" xmlns:xlink="http://www.w3.org/1999/xlink" viewBox="0 0 13 16">
  <defs>
    <path id="aaa" d="M6.095 12.19c.838 0 1.524-.685 1.524-1.523 0-.838-.686-1.524-1.524-1.524s-1.524.686-1.524 1.524.686 1.523 1.524 1.523zm4.572-6.857h-.762V3.81A3.81 3.81 0 006.095 0a3.81 3.81 0 00-3.81 3.81v1.523h-.761C.686 5.333 0 6.02 0 6.857v7.62C0 15.313.686 16 1.524 16h9.143c.838 0 1.523-.686 1.523-1.524V6.857c0-.838-.685-1.524-1.523-1.524zM3.81 3.84c0-1.277 1.024-2.315 2.285-2.315 1.261 0 2.286 1.038 2.286 2.315v1.494H3.81V3.84zm6.857 10.637H1.524V6.857h9.143v7.62z"/>
  </defs>
  <use fill="#FFF" fill-rule="evenodd" xlink:href="#aaa"/>
</svg>