<?xml version="1.0" encoding="UTF-8"?>
<svg width="400px" height="370px" viewBox="0 0 400 370" version="1.1" xmlns="http://www.w3.org/2000/svg" xmlns:xlink="http://www.w3.org/1999/xlink">
    <!-- Generator: Sketch 46 (44423) - http://www.bohemiancoding.com/sketch -->
    <title>Artboard</title>
    <desc>Created with Sketch.</desc>
    <defs>
        <path d="M9.31411111,34.1541667 C11.6705,32.0415278 14.4660556,30.1116667 16.9962222,27.5566667 L0.309777778,0 L9.31411111,34.1541667 Z" id="path-1"></path>
        <path d="M0.641904762,7.33117241 L5.87904762,27.6997241 C10.5742857,24.9373793 15.2704762,22.1750345 19.5247619,19.2311724 L8.44666667,0.636275862 C6.05142857,2.77875862 3.2152381,4.74068966 0.641904762,7.33117241 Z" id="path-3"></path>
        <path d="M0.0654814815,8.64876667 L5.19422222,28.1619 C12.0562963,25.3054 18.9183704,22.4479333 25.7804444,19.5924 L13.7838519,0.3683 C9.06148148,3.06916667 4.34103704,5.7681 0.0654814815,8.64876667 Z" id="path-5"></path>
        <path d="M0.743142857,9.21972414 L5.81885714,27.6630345 C15.1746857,25.2675862 24.5295429,22.8731034 33.8844,20.4786207 L21.5171429,0.644 C14.5918286,3.50193103 7.66748571,6.36082759 0.743142857,9.21972414 Z" id="path-7"></path>
        <path d="M0.943953488,8.34203571 L5.71806977,26.9344286 C17.4774419,25.4976429 29.4141628,23.6153571 40.7358837,22.0011429 L28.3529302,0.820607143 C19.2156512,3.32871429 10.0802791,5.83585714 0.943953488,8.34203571 Z" id="path-9"></path>
        <path d="M0.37248,5.18108108 L8.48352,35.4804324 L39.00384,22.5574054 L47.72256,18.863027 L35.87808,0.525405405 C23.95488,1.86713514 11.8512,3.65545946 0.37248,5.18108108 Z" id="path-11"></path>
    </defs>
    <g id="Page-2" stroke="none" stroke-width="1" fill="none" fill-rule="evenodd">
        <g id="Artboard">
            <g id="Group" transform="translate(13.000000, 22.000000)">
                <g id="Page-1" transform="translate(36.000000, 38.000000)">
                    <g id="Group-3" transform="translate(54.000000, 0.000000)">
                        <mask id="mask-2" fill="white">
                            <use xlink:href="#path-1"></use>
                        </mask>
                        <g id="Clip-2"></g>
                        <polygon id="Fill-1" fill="#FE4A4A" mask="url(#mask-2)" points="-2.30019444 -6.32838889 30.0999167 7.14758333 16.3015833 42.3031389 -16.0975833 28.8281389"></polygon>
                    </g>
                    <g id="Group-6" transform="translate(62.000000, 27.000000)">
                        <mask id="mask-4" fill="white">
                            <use xlink:href="#path-3"></use>
                        </mask>
                        <g id="Clip-5"></g>
                        <polygon id="Fill-4" fill="#F7EF4C" mask="url(#mask-4)" points="1.40019048 -7.45775172 30.5401905 4.47797241 17.3401905 37.6010069 -11.7998095 25.6652828"></polygon>
                    </g>
                    <g id="Group-9" transform="translate(68.000000, 46.000000)">
                        <mask id="mask-6" fill="white">
                            <use xlink:href="#path-5"></use>
                        </mask>
                        <g id="Clip-8"></g>
                        <polygon id="Fill-7" fill="#84F752" mask="url(#mask-6)" points="2.19488148 -9.54438333 37.0156222 4.57861667 22.5865852 40.4293833 -12.2341556 26.3063833"></polygon>
                    </g>
                    <g id="Group-12" transform="translate(73.000000, 65.000000)">
                        <mask id="mask-8" fill="white">
                            <use xlink:href="#path-7"></use>
                        </mask>
                        <g id="Clip-11"></g>
                        <polygon id="Fill-10" fill="#4AB5F7" mask="url(#mask-8)" points="3.97158857 -11.6083172 45.4030171 5.02947586 30.1195314 42.6286483 -11.3118971 25.9898897"></polygon>
                    </g>
                    <g id="Group-15" transform="translate(78.000000, 84.000000)">
                        <mask id="mask-10" fill="white">
                            <use xlink:href="#path-9"></use>
                        </mask>
                        <g id="Clip-14"></g>
                        <polygon id="Fill-13" fill="#A54AF6" mask="url(#mask-10)" points="4.73902791 -14.0277536 52.4782837 5.47878214 36.7619349 44.8177821 -10.9773209 25.3112464"></polygon>
                    </g>
                    <g id="Group-18" transform="translate(84.000000, 106.000000)">
                        <mask id="mask-12" fill="white">
                            <use xlink:href="#path-11"></use>
                        </mask>
                        <g id="Clip-17"></g>
                        <polygon id="Fill-16" fill="#8387F7" mask="url(#mask-12)" points="4.298016 -17.6536216 58.593696 4.57978378 39.174816 53.2945946 -15.121824 31.0602162"></polygon>
                    </g>
                    <g id="Group-29" transform="translate(0.000000, 68.000000)">
                        <path d="M105.077382,9.65243889 C79.8935017,17.750796 64.7171097,37.9520341 59.5654903,70.2792008 L59.6471097,70.3579468 C68.4245472,60.7941452 75.9748142,51.6788119 80.2651097,44.2094627 C80.2651097,44.2094627 90.5280188,22.8001452 105.077382,9.65243889" id="Fill-19" fill="#A54AF6"></path>
                        <path d="M306.358015,142.230698 C296.87577,138.929127 247.243543,126.566 229.368912,87.9218651 C213.382089,53.3619603 172.875861,4.62969048 125.426231,6.49942857 C128.356844,15.082746 129.211447,29.2051746 118.421373,36.6322698 C118.421373,36.6322698 236.96143,51.8590635 238.130986,242 C295.206895,241.261516 337.39064,209.230127 337.39064,181.346349 C337.39064,150.573937 314.139697,144.411579 306.358015,142.230698" id="Fill-21" fill="#A54AF6"></path>
                        <path d="M93.1430057,241.999616 L238.136364,241.999616 C238.135403,241.823878 238.132523,241.651981 238.131562,241.475283 C236.961045,51.334346 118.420989,36.1085127 118.420989,36.1085127 C129.211062,28.6804571 128.35742,14.5580286 125.426807,5.97567143 C124.529955,3.35016349 123.441057,1.23746508 122.428977,-0.000384126984 C116.268159,1.1558381 110.386767,4.85402063 105.07767,9.65272698 C90.5273466,22.8004333 80.2653977,44.2097508 80.2653977,44.2097508 C75.9751023,51.6781397 68.423875,60.7944333 59.6473977,70.3582349 C38.1767159,93.7534889 9.35645455,119.835711 2.88068182,131.082949 C-6.24147727,146.928187 12.4829545,186.781362 36.0085227,183.90041 C59.5340909,181.019457 120.806193,144.773235 120.806193,144.773235 C140.361222,169.07983 110.31283,226.272497 93.1430057,241.999616" id="Fill-23" fill="#EFF6F7"></path>
                        <path d="M76.3235688,86.1168524 C76.3235688,92.2542413 81.297546,97.2277254 87.4343585,97.2277254 C93.5702108,97.2277254 98.5441881,92.2542413 98.5441881,86.1168524" id="Stroke-25" stroke="#4A4A4A" stroke-width="3.622" stroke-linecap="round" stroke-linejoin="round"></path>
                        <path d="M28.6820847,164.779337 C28.6820847,162.257543 26.6377608,160.213027 24.116204,160.213027 C21.5946472,160.213027 19.5503233,162.257543 19.5503233,164.779337 C19.5503233,167.30113 21.5946472,169.345646 24.116204,169.345646 C26.6377608,169.345646 28.6820847,167.30113 28.6820847,164.779337" id="Fill-27" fill="#4A4A4A"></path>
                    </g>
                </g>
                <path d="M152,55 L148,55 L148,55 C146.343146,55 145,56.3431458 145,58 C145,59.6568542 146.343146,61 148,61 L152,61 L152,65 C152,66.6568542 153.343146,68 155,68 C156.656854,68 158,66.6568542 158,65 L158,61 L162,61 C163.656854,61 165,59.6568542 165,58 C165,56.3431458 163.656854,55 162,55 L162,55 L158,55 L158,51 C158,49.3431458 156.656854,48 155,48 C153.343146,48 152,49.3431458 152,51 L152,51 L152,55 Z" id="Combined-Shape" fill="#4AB5F7"></path>
                <path d="M212,26 L208,26 L208,26 C206.343146,26 205,27.3431458 205,29 C205,30.6568542 206.343146,32 208,32 L212,32 L212,36 C212,37.6568542 213.343146,39 215,39 C216.656854,39 218,37.6568542 218,36 L218,32 L222,32 C223.656854,32 225,30.6568542 225,29 C225,27.3431458 223.656854,26 222,26 L222,26 L218,26 L218,22 C218,20.3431458 216.656854,19 215,19 C213.343146,19 212,20.3431458 212,22 L212,22 L212,26 Z" id="Combined-Shape" fill="#A54AF6"></path>
                <path d="M19.1,97.1 L13.9,97.1 L13.9,97.1 C11.7460895,97.1 10,98.8460895 10,101 C10,103.153911 11.7460895,104.9 13.9,104.9 L13.9,104.9 L19.1,104.9 L19.1,110.1 C19.1,112.253911 20.8460895,114 23,114 C25.1539105,114 26.9,112.253911 26.9,110.1 L26.9,104.9 L32.1,104.9 C34.2539105,104.9 36,103.153911 36,101 L36,101 C36,98.8460895 34.2539105,97.1 32.1,97.1 L32.1,97.1 L26.9,97.1 L26.9,91.9 C26.9,89.7460895 25.1539105,88 23,88 L23,88 C20.8460895,88 19.1,89.7460895 19.1,91.9 L19.1,91.9 L19.1,97.1 Z" id="Combined-Shape" fill="#F7EF4C"></path>
                <path d="M7.35,177.35 L3.15,177.35 L3.15,177.35 C1.41030304,177.35 -2.13051432e-16,178.760303 0,180.5 C2.13051432e-16,182.239697 1.41030304,183.65 3.15,183.65 L7.35,183.65 L7.35,187.85 L7.35,187.85 C7.35,189.589697 8.76030304,191 10.5,191 C12.239697,191 13.65,189.589697 13.65,187.85 L13.65,187.85 L13.65,183.65 L17.85,183.65 C19.589697,183.65 21,182.239697 21,180.5 L21,180.5 L21,180.5 C21,178.760303 19.589697,177.35 17.85,177.35 L17.85,177.35 L13.65,177.35 L13.65,173.15 C13.65,171.410303 12.239697,170 10.5,170 L10.5,170 C8.76030304,170 7.35,171.410303 7.35,173.15 L7.35,173.15 L7.35,177.35 Z" id="Combined-Shape" fill="#84F752"></path>
                <path d="M120.9,4.9 L118.1,4.9 L118.1,4.9 C116.940202,4.9 116,5.84020203 116,7 C116,8.15979797 116.940202,9.1 118.1,9.1 L120.9,9.1 L120.9,11.9 C120.9,13.059798 121.840202,14 123,14 C124.159798,14 125.1,13.059798 125.1,11.9 L125.1,9.1 L127.9,9.1 C129.059798,9.1 130,8.15979797 130,7 C130,5.84020203 129.059798,4.9 127.9,4.9 L127.9,4.9 L125.1,4.9 L125.1,2.1 C125.1,0.940202025 124.159798,-1.77635684e-15 123,-1.77635684e-15 L123,-1.77635684e-15 C121.840202,-1.77635684e-15 120.9,0.940202025 120.9,2.1 L120.9,2.1 L120.9,4.9 Z" id="Combined-Shape" fill="#FE4A4A"></path>
            </g>
        </g>
    </g>
</svg>