<svg viewBox="0 0 28 49">
  <g fill="none" fill-rule="evenodd">
    <path fill="#B1060F" d="M.4277428.5673919s0 47.5051648.0386206 47.5051648c0 0 .8496552-.0755249 1.8537932-.1510499 1.0041379-.1132873 2.355862-.2265747 3.0510344-.3020996 1.0427587-.0755249 4.2096552-.2643371 4.5572414-.3020996.115862 0 .1544828-21.2224981.1544828-21.2224981L.4277428.5673919Z"/>
    <path fill="#9D030F" d="M10.0829152 32.6654762v-5.4377931L.4277428.5673919z"/>
    <path fill="#B1060F" d="m17.691191.6051544-.0386207 22.1287969 9.5393104 25.3386054h-.0772414.0772414c.0386207-.0377625 0-47.4674023 0-47.4674023H17.691191Z"/>
    <path fill="#9D030F" d="M17.6525703 16.276572v5.3245057l9.1144828 25.3386054z"/>
    <path fill="#E50914" d="M.4277428.5673919s16.8772413 46.7121533 16.915862 46.7121533c0 0 9.8096552.7930115 9.8482759.7930115L10.0442945.5673919H.4277428Z"/>
  </g>
</svg>