<svg viewBox="0 0 28 23" xmlns="http://www.w3.org/2000/svg"><path d="M28 2.76a11.433 11.433 0 01-3.296.904A5.805 5.805 0 0027.232.488a11.502 11.502 0 01-3.648 1.392A5.744 5.744 0 0013.8 7.12a16.314 16.314 0 01-11.84-6 5.691 5.691 0 00-.776 2.888 5.76 5.76 0 002.552 4.784 5.717 5.717 0 01-2.6-.72v.072a5.75 5.75 0 004.608 5.632c-.48.128-.992.2-1.512.2-.368 0-.728-.04-1.08-.104a5.759 5.759 0 005.368 3.992 11.503 11.503 0 01-7.136 2.456c-.464 0-.92-.024-1.368-.08a16.246 16.246 0 008.808 2.584c10.568 0 16.344-8.752 16.344-16.344 0-.248-.008-.496-.016-.744A11.995 11.995 0 0028 2.76z" fill="#55ACEE" fill-rule="nonzero"/></svg>