<svg xmlns="http://www.w3.org/2000/svg" viewBox="0 0 186 199">
  <g fill="none" fill-rule="evenodd">
    <path fill="#FFF" d="M1.5 98l98.262-64.905L181 64.5l2.5 61.5L5 197.5z"/>
    <g fill="#006AFF" fill-rule="nonzero">
      <path d="M122.098 48.116c.901-.235 1.316.056 1.889.646 3.252 3.392 13.684 15.335 16.52 18.593.525.592.199 1.268-.193 1.634-19.639 16.554-41.323 39.79-53.282 56.279-.235.368-.034.36.166.299 21.478-10.21 72.186-27.089 95.113-32.107l-1.027-29.407L88.467-4.674.512 70.311l1.123 32.15c27.428-17.733 91.34-45.957 120.463-54.345z"/>
      <path d="M52.908 174.219c-.74.432-1.356.352-1.984-.236l-17.566-19.628c-.47-.547-.535-.85.04-1.73 12.362-19.656 37.917-50.508 54.437-63.745.296-.213.186-.468-.166-.299-17.466 6.408-66.932 29.902-85.14 41.116l2.398 68.669 180.777-6.314-2.309-66.127c-24.488 5.072-97.52 29.75-130.487 48.294z"/>
    </g>
  </g>
</svg>