<?xml version="1.0" encoding="UTF-8"?>
<svg width="500px" height="500px" viewBox="0 0 500 500" version="1.1" xmlns="http://www.w3.org/2000/svg" xmlns:xlink="http://www.w3.org/1999/xlink">
    <!-- Generator: Sketch 43.2 (39069) - http://www.bohemiancoding.com/sketch -->
    <title>Slice</title>
    <desc>Created with Sketch.</desc>
    <defs></defs>
    <g id="Page-1" stroke="none" stroke-width="1" fill="none" fill-rule="evenodd">
        <g id="julialogo" transform="translate(20.000000, 86.000000)">
            <path d="M0.0708974993,267.440235 C0.0708974993,256.854246 2.19628123,245.9658 6.14342244,234.774897 C9.7869374,223.583995 16.1630886,213.300463 23.1464923,203.319387 C30.7371484,193.338312 39.8459358,184.567064 50.4728545,176.703187 C61.0997731,168.839309 72.9411968,163.09263 85.9971254,158.858234 C79.3173479,153.414011 72.9411968,147.667331 67.1722981,141.618195 C61.4033994,135.569058 56.2417532,129.519922 51.6873595,123.168328 C47.436592,116.816735 43.793077,110.465142 41.3640671,104.113548 C38.9350571,97.761955 37.7205521,91.4103617 37.7205521,85.0587683 C37.7205521,76.892434 38.6314309,69.0285565 40.4531883,61.7695927 C42.2749458,54.5106289 44.7039558,47.5541219 47.7402183,41.2025285 C50.7764807,34.8509352 54.7236219,29.1042555 58.9743894,24.2649462 C63.2251569,19.1231802 67.7795506,14.8887846 72.6375705,11.2593027 C77.4955905,7.62982079 82.6572367,4.90770935 88.1225091,3.09296839 C93.5877815,1.27822744 98.7494277,0.0684001303 104.2147,0.0684001303 C111.198104,0.0684001303 118.181508,1.88314109 124.861285,5.512623 C131.844689,9.74701857 137.309961,15.7961551 142.775234,23.6600326 C148.240506,31.5239101 152.187647,42.109899 155.22391,54.8130857 C158.260172,67.5162724 159.778303,82.9415705 159.778303,100.786523 C159.778303,106.230746 158.867425,115.909365 157.349293,130.124835 C155.831162,144.340306 154.313031,157.648407 153.098526,170.65405 C157.956546,173.678618 162.814566,176.703187 167.672586,179.425298 C172.530606,182.14741 177.692252,185.171978 182.853898,187.894089 C183.764777,188.499003 185.282908,189.406373 186.801039,190.011287 C188.319171,190.918658 189.837302,191.826028 191.355433,192.733399 C192.873564,193.640769 194.088069,194.850596 194.998948,195.757967 C195.909827,196.665337 196.517079,197.572708 196.517079,198.480078 C196.517079,199.387449 196.213453,199.992362 195.6062,200.899733 C194.998948,201.504646 194.088069,202.412017 193.177191,203.016931 C192.266312,203.621844 191.355433,204.226758 190.444554,204.831672 C189.533676,205.436585 188.926423,205.739042 188.319171,206.041499 C187.104666,206.646413 185.282908,207.251326 183.157524,207.251326 C178.603131,207.251326 173.441484,206.343956 167.36896,204.529215 C161.296435,203.016931 155.22391,200.597276 149.151385,197.572708 C145.811496,212.090635 141.560729,225.398736 136.702709,237.799466 C131.844689,249.897739 126.379416,260.786184 120.610518,270.464803 C114.841619,280.143421 108.769094,288.612212 102.089316,295.568719 C95.7131653,302.827683 89.0333878,308.574363 82.3536104,313.413672 C75.673833,318.252981 69.2976818,321.580007 62.6179044,323.999661 C55.9381269,326.419316 49.865602,327.629143 43.793077,327.629143 C37.4169259,327.629143 31.6480272,326.419316 26.486381,323.697204 C21.0211085,321.27755 16.4667148,317.345611 12.5195736,312.506302 C8.57243241,307.364536 5.53616994,301.315399 3.10715997,293.753978 C1.28540249,285.890101 0.0708974993,277.42131 0.0708974993,267.440235 Z M30.4335222,275.001655 C30.4335222,283.16799 31.9516534,289.217126 34.9879159,293.451522 C38.0241784,297.685917 42.2749458,299.803115 47.436592,299.803115 C52.5982382,299.803115 58.6707631,297.38346 65.3505406,292.846608 C72.030318,288.309756 78.7100954,281.050792 85.3898729,271.67463 C92.0696503,261.996012 98.4458015,249.897739 104.518326,235.077354 C110.590851,220.25697 115.752498,202.714474 120.003265,182.449866 L115.448871,179.425298 C107.250963,180.937582 99.6603065,183.659694 92.3732766,187.591632 C85.0862466,191.523571 78.1028429,196.060424 72.030318,201.504646 C65.6541668,206.948869 60.1888944,212.695549 55.0272482,219.349599 C49.865602,225.701193 45.6148345,232.355243 41.9713196,238.706836 C38.3278046,245.360886 35.5951684,251.71248 33.7734109,258.064073 C31.3444009,264.415666 30.4335222,270.162346 30.4335222,275.001655 Z M68.6904293,77.7998045 C68.6904293,84.1513978 70.2085605,90.5029912 72.9411968,96.5521277 C75.673833,102.903721 79.6209742,108.952858 84.4789941,115.001994 C89.3370141,121.051131 95.409539,127.100267 102.392943,133.149404 C109.376346,139.19854 116.967003,144.94522 125.164911,150.994356 C126.07579,140.105911 126.986669,128.310094 128.201174,116.211821 C129.415679,104.113548 129.719305,91.1079049 129.719305,77.4973477 C129.719305,68.1211861 129.112052,60.2573086 127.897547,53.9057152 C126.683042,47.5541219 125.164911,42.109899 123.039527,38.1779602 C120.914144,34.2460215 118.78876,31.2214532 116.056124,29.4067123 C113.323488,27.5919713 110.590851,26.6846008 107.554589,26.6846008 C104.518326,26.6846008 101.78569,27.2895145 98.7494277,28.8017986 C95.7131653,30.3140828 92.6769028,32.1288237 89.9442666,34.5484783 C87.2116304,36.9681329 84.4789941,39.9927012 81.7463579,43.3197263 C79.3173479,46.6467514 76.888338,50.2762333 75.0665805,53.9057152 C73.244823,57.5351971 71.7266918,61.4671359 70.5121868,65.3990746 C68.9940555,70.2383838 68.6904293,74.1703226 68.6904293,77.7998045 Z" id="Shape" fill="#202020" fill-rule="nonzero"></path>
            <path d="M241.150138,151.59927 L241.150138,157.648407 C241.150138,160.068061 240.846511,162.790173 240.239259,165.814741 C239.632006,168.839309 239.024754,172.468791 238.113875,176.703187 C237.202996,180.937582 236.595744,184.567064 236.292118,187.289176 C235.684865,190.011287 235.381239,192.430942 235.077613,194.548139 C234.773986,196.665337 234.47036,198.177621 234.47036,199.084992 L234.47036,203.319387 C234.47036,204.529215 234.773986,205.739042 234.773986,206.646413 C235.077613,207.553783 235.381239,208.461153 235.988491,208.76361 C236.595744,209.368524 237.202996,209.670981 238.113875,209.670981 C239.32838,209.670981 240.846511,209.368524 242.364643,208.76361 C244.1864,208.158697 246.008157,207.251326 247.829915,206.343956 C249.651672,205.436585 251.777056,204.226758 253.598814,203.016931 C255.724197,201.807103 257.545955,200.294819 259.367712,199.084992 C261.18947,197.572708 262.707601,196.36288 264.225732,194.850596 C265.743864,193.338312 266.958369,192.128485 267.869247,190.918658 L267.869247,195.757967 L267.869247,199.992362 L267.869247,204.226758 L267.869247,209.066067 C266.654742,210.275894 265.136611,211.485722 263.314854,212.695549 C261.493096,213.905376 259.671339,215.41766 257.545955,216.627488 C255.420571,217.837315 252.991561,219.349599 250.562551,220.559427 C248.133541,221.769254 245.704531,222.979081 243.275521,223.886452 C240.846511,224.793822 238.417501,225.701193 235.988491,226.003649 C233.559481,226.608563 231.434098,226.91102 229.61234,226.91102 C227.486956,226.91102 225.968825,226.608563 224.450694,225.701193 C222.932563,224.793822 221.718058,223.886452 220.807179,222.374167 C219.8963,220.861883 218.985421,219.349599 218.074543,217.232401 C217.46729,215.115204 216.860038,212.998006 216.252785,210.578351 C214.431028,212.998006 212.305644,215.41766 210.18026,217.534858 C208.054877,219.652056 205.929493,221.466797 203.500483,222.979081 C201.375099,224.491365 198.946089,225.701193 196.517079,226.608563 C194.391696,226.91102 191.962686,227.515934 189.837302,227.515934 C188.015544,227.515934 186.497413,227.213477 184.675656,226.608563 C183.157524,226.003649 181.639393,225.096279 180.424888,223.583995 C179.210383,222.071711 178.299504,220.25697 177.692252,218.139772 C177.084999,215.720117 176.781373,212.998006 176.781373,209.368524 C176.781373,202.412017 177.388626,196.967794 178.299504,193.035855 C179.817636,187.591632 181.335767,179.122841 182.853898,168.234396 C182.853898,167.327025 183.157524,166.419655 183.461151,164.90737 C183.764777,163.395086 184.068403,161.882802 184.675656,160.370518 C185.282908,158.858234 185.890161,157.043493 186.497413,155.531209 C187.408292,153.716468 188.015544,152.204184 189.230049,150.994356 C190.140928,149.784529 191.355433,148.574702 192.873564,147.667331 C194.391696,146.759961 195.909827,146.457504 197.427958,146.155047 C200.160594,146.155047 202.285978,146.759961 203.500483,147.667331 C204.714988,148.574702 205.32224,149.482072 205.32224,150.6919 C204.714988,154.321382 204.411362,157.950863 203.804109,161.277889 C203.196857,164.604914 202.589604,167.931939 201.982352,171.561421 C201.375099,175.190903 200.767847,178.820384 199.856968,183.05478 C198.946089,187.289176 198.642463,190.616201 198.03521,193.035855 C197.427958,195.45551 197.124332,197.572708 196.820705,199.084992 C196.517079,200.597276 196.517079,201.504646 196.517079,201.504646 C196.517079,202.412017 196.517079,203.621844 196.820705,204.529215 C197.124332,205.436585 197.427958,206.343956 197.731584,206.948869 C198.03521,207.553783 198.642463,208.158697 199.249715,208.76361 C199.856968,209.066067 200.46422,209.368524 201.375099,209.368524 C202.589604,209.368524 203.804109,209.066067 205.018614,208.461153 C206.233119,207.85624 207.447624,206.948869 208.662129,205.739042 C209.876634,204.529215 210.787513,203.319387 211.698392,201.504646 C212.60927,199.689906 213.216523,197.875165 213.520149,195.45551 L222.628936,151.296813 C222.932563,150.086986 223.843441,148.877159 225.665199,147.969788 C227.486956,147.062418 229.61234,146.759961 232.04135,146.759961 C234.773986,146.759961 236.89937,147.364875 238.417501,148.272245 C240.239259,148.877159 241.150138,150.086986 241.150138,151.59927 Z" id="Shape" fill="#202020" fill-rule="nonzero"></path>
            <path d="M275.459903,227.213477 C272.423641,227.213477 269.691005,226.003649 267.261995,223.281538 C264.832985,220.861883 262.403975,217.232401 260.582217,212.998006 C258.76046,208.76361 257.242329,203.924301 256.33145,198.177621 C255.420571,192.430942 254.813319,186.684262 254.813319,180.332669 C254.813319,174.888446 255.724197,167.931939 257.242329,159.160691 C258.76046,150.389443 259.671339,145.85259 259.671339,145.85259 C259.671339,145.85259 260.885844,141.315738 263.314854,132.54449 C265.743864,123.773242 268.172873,116.514278 270.601883,111.070055 C273.030893,105.625833 275.459903,100.786523 278.496166,95.9472141 C281.228802,91.4103617 284.265065,87.1759661 287.301327,83.848941 C290.33759,80.5219159 293.677478,77.7998045 297.017367,75.6826067 C300.357256,73.5654089 303.697144,72.6580384 307.340659,72.6580384 C309.769669,72.6580384 311.895053,73.2629521 313.716811,74.1703226 C315.234942,75.0776931 316.753073,76.2875204 317.663952,78.1022613 C318.57483,79.6145455 319.182083,81.4292864 319.789335,83.5464842 C320.092962,85.663682 320.396588,87.4784229 320.396588,89.5956207 C320.396588,94.7373868 319.789335,99.8791528 318.57483,105.323376 C317.360325,110.767599 315.842194,115.909365 313.716811,121.353587 C311.591427,126.79781 309.162417,132.242033 306.429781,137.383799 C303.697144,142.828022 300.964508,148.272245 297.928246,153.414011 C294.891983,158.858234 292.159347,164 289.123085,169.141766 C286.086822,174.283532 283.354186,179.425298 280.925176,184.264607 C280.62155,184.869521 280.317923,185.474435 280.014297,186.381805 C279.710671,187.289176 279.407045,188.196546 279.103418,189.103917 C278.799792,190.011287 278.496166,191.221114 278.19254,192.430942 C277.888913,193.640769 277.585287,194.548139 277.585287,195.757967 L277.585287,197.270251 C277.585287,198.782535 277.585287,199.992362 277.888913,201.504646 C278.19254,202.714474 278.496166,203.924301 279.103418,205.134128 C279.407045,206.343956 280.014297,206.948869 280.62155,207.553783 C281.228802,208.158697 281.532428,208.461153 282.139681,208.461153 C283.05056,208.461153 284.265065,208.158697 285.783196,207.85624 C286.997701,207.553783 288.515832,206.948869 290.033963,206.041499 C291.552095,205.134128 293.070226,204.529215 294.891983,203.621844 C296.713741,202.714474 297.928246,201.807103 299.446377,200.597276 C303.089892,198.177621 306.733407,195.757967 310.376922,192.733399 L317.663952,209.973438 C312.805932,213.300463 307.644286,216.325031 302.786266,218.744686 C300.660882,219.954513 298.535498,220.861883 296.106488,222.071711 C293.677478,223.281538 291.552095,224.188908 289.123085,224.793822 C286.694075,225.398736 284.568691,226.306106 282.443307,226.91102 C279.407045,227.213477 277.281661,227.213477 275.459903,227.213477 Z M275.459903,163.09263 C277.888913,158.858234 280.62155,153.716468 283.354186,148.272245 C286.086822,142.828022 288.819458,137.081342 291.248468,131.334663 C293.677478,125.587983 295.802862,119.841303 297.624619,114.094624 C299.446377,108.347944 300.660882,102.903721 300.964508,98.0644119 L300.964508,94.1324731 C300.964508,93.2251026 300.660882,92.3177322 300.357256,92.3177322 C298.839124,92.3177322 297.320993,93.2251026 295.499236,95.3423004 C293.677478,97.4594982 292.159347,100.18161 290.33759,103.811092 C288.515832,107.440573 286.694075,112.884796 284.265065,121.051131 C281.836055,128.915008 280.62155,132.846947 280.62155,132.846947 C280.62155,132.846947 280.014297,136.476429 278.496166,143.735393 C276.978035,150.994356 275.76353,157.34595 275.459903,163.09263 Z" id="Shape" fill="#202020" fill-rule="nonzero"></path>
            <path d="M351.670091,209.973438 C349.848334,211.788179 347.419324,213.60292 344.383061,215.720117 C341.346799,217.837315 338.310537,219.652056 334.970648,221.466797 C331.630759,223.281538 328.29087,224.491365 324.647355,225.701193 C321.00384,226.91102 317.663952,227.515934 314.627689,227.515934 C311.895053,227.515934 309.466043,227.213477 307.644286,226.306106 C305.822528,225.398736 304.000771,224.491365 303.089892,222.979081 C301.875387,221.466797 300.964508,219.954513 300.660882,217.837315 C300.053629,215.720117 299.750003,213.60292 299.750003,211.183265 C299.750003,207.85624 300.053629,203.924301 300.964508,199.387449 C302.482639,190.011287 303.393518,184.567064 304.000771,183.659694 C304.608023,181.240039 306.126154,176.098273 308.555164,168.234396 C310.680548,161.882802 311.895053,157.648407 312.502306,155.531209 C312.805932,154.018925 313.413184,152.809097 314.627689,151.901727 C315.842194,150.994356 317.056699,150.086986 318.57483,149.482072 C320.092962,148.877159 321.611093,148.272245 323.129224,147.969788 C324.647355,147.667331 326.165487,147.667331 327.379992,147.667331 C329.505375,147.667331 331.023507,147.969788 331.934385,148.877159 C332.845264,149.784529 333.14889,150.6919 333.14889,152.204184 C333.14889,153.414011 332.845264,155.228752 332.238012,157.34595 C331.630759,159.463148 331.023507,161.882802 330.416254,164.90737 C329.809002,167.629482 328.594497,171.258964 327.379992,175.493359 C325.86186,179.727755 324.950982,183.659694 324.647355,186.684262 C324.040103,189.70883 323.43285,192.733399 322.825598,195.757967 C322.218345,198.782535 321.611093,201.504646 321.611093,203.924301 C321.611093,206.343956 321.914719,208.158697 322.521972,209.670981 C323.129224,211.183265 324.040103,211.788179 325.86186,211.788179 C327.683618,211.788179 330.112628,211.183265 332.238012,209.670981 C334.667022,208.461153 337.096032,206.646413 339.525042,204.831672 C341.954051,203.016931 344.383061,200.899733 346.812071,198.782535 C349.241081,196.665337 351.366465,194.850596 352.884596,193.640769 L352.884596,209.973438 C352.884596,209.973438 351.670091,209.973438 351.670091,209.973438 Z M317.967578,131.032206 C317.967578,130.427292 317.967578,129.822379 318.271204,128.915008 C318.57483,128.007638 318.878457,127.402724 319.485709,126.79781 C320.092962,126.192897 321.00384,125.587983 321.914719,124.983069 C322.825598,124.378156 324.343729,124.378156 325.86186,124.378156 C326.772739,124.378156 327.683618,124.378156 328.594497,124.680613 C329.505375,124.983069 330.112628,125.285526 330.71988,125.587983 C331.327133,125.89044 331.934385,126.495354 332.238012,127.402724 C332.541638,128.007638 332.845264,128.915008 332.845264,130.124835 C332.845264,131.032206 332.845264,131.939576 332.541638,132.846947 C332.238012,133.754317 331.630759,134.359231 331.023507,135.266601 C330.416254,136.173972 329.505375,136.476429 328.594497,136.778886 C327.683618,137.081342 326.469113,137.383799 324.950982,137.383799 C322.521972,137.383799 320.700214,136.778886 319.789335,135.569058 C318.57483,134.359231 317.967578,132.846947 317.967578,131.032206 Z" id="Shape" fill="#202020" fill-rule="nonzero"></path>
            <path d="M459.357299,203.621844 L459.357299,204.529215 C459.357299,205.134128 459.357299,205.436585 459.053673,206.041499 C458.750046,206.646413 458.750046,207.251326 458.142794,207.85624 C457.535541,208.461153 457.231915,209.066067 456.624663,209.670981 C456.01741,210.275894 455.106531,210.578351 454.195653,211.183265 C453.284774,211.788179 452.070269,211.788179 450.552138,211.788179 C449.337633,211.788179 448.426754,211.788179 447.515875,211.485722 C446.604996,211.183265 445.694118,210.880808 445.086865,210.275894 C444.479613,209.670981 443.87236,209.066067 443.568734,208.158697 C443.265108,207.251326 442.961481,206.343956 442.961481,205.134128 C442.961481,204.226758 443.265108,203.016931 443.568734,202.10956 C443.87236,201.20219 444.479613,200.294819 445.086865,199.387449 C445.694118,198.480078 446.604996,197.875165 447.819501,197.572708 C449.034006,197.270251 450.248511,196.967794 451.766643,196.967794 C454.499279,196.967794 456.321036,197.572708 457.839168,198.782535 C458.750046,199.689906 459.357299,201.504646 459.357299,203.621844 Z" id="Shape" fill="#202020" fill-rule="nonzero"></path>
            <g id="Group" transform="translate(337.703284, 147.028218)">
                <path d="M40.3822908,48.1248355 C39.4714121,50.8469469 38.5605334,53.2666015 37.3460284,55.6862561 C36.1315234,58.1059107 34.6133921,60.2231085 33.0952609,62.0378495 C31.5771297,63.8525904 29.7553722,64.7599609 27.6299885,64.7599609 C26.4154835,64.7599609 25.5046047,64.4575041 24.593726,63.8525904 C23.9864735,63.2476768 23.379221,62.3403063 22.7719685,61.4329358 C22.4683423,60.2231085 22.164716,59.0132812 21.8610898,57.8034539 C21.5574635,56.5936266 21.5574635,55.3837993 21.5574635,54.173972 L21.5574635,54.173972 C21.5574635,55.3837993 21.5574635,56.8960834 21.8610898,58.1059107 C21.8610898,59.6181949 22.164716,60.8280222 22.7719685,61.7353926 C23.0755948,62.6427631 23.6828473,63.5501336 24.593726,64.1550472 C25.2009785,64.7599609 26.4154835,65.0624177 27.6299885,65.0624177 C29.7553722,65.0624177 31.5771297,64.1550472 33.0952609,62.3403063 C34.6133921,60.5255653 36.1315234,58.4083675 37.3460284,55.9887129 C38.5605334,53.5690583 39.7750383,51.1494037 40.3822908,48.1248355 C41.2931696,45.7051808 41.5967958,43.5879831 41.9004221,41.7732421 L47.972947,15.761955 L47.972947,15.761955 L41.9004221,41.4707853 C41.5967958,43.2855262 40.9895433,45.402724 40.3822908,48.1248355 Z" id="Shape"></path>
                <path d="M92.9096315,51.1494037 C91.3915003,44.7978104 89.2661166,40.260958 87.4443591,42.3781558 C86.8371066,42.9830694 84.7117229,45.7051808 82.5863392,48.4272923 C81.3718342,49.9395764 80.1573292,51.1494037 79.2464504,52.359231 C78.0319454,53.5690583 76.8174405,54.7788856 75.6029355,55.9887129 C74.3884305,57.1985402 73.1739255,58.1059107 71.6557943,59.0132812 C70.4412893,59.9206517 69.2267843,60.5255653 68.0122793,61.130479 C66.7977743,61.7353926 65.5832693,62.0378495 64.3687643,62.0378495 C62.8506331,62.0378495 61.9397544,61.4329358 61.3325019,59.9206517 C60.7252494,58.4083675 60.7252494,56.2911698 60.7252494,53.8715152 C60.7252494,50.8469469 61.0288756,47.5199218 61.9397544,43.2855262 C62.8506331,39.0511307 63.7615118,35.4216487 64.3687643,32.0946237 C64.9760168,28.7675986 65.5832693,25.4405735 66.1905218,22.4160052 C66.7977743,19.391437 67.1014006,16.3668687 67.1014006,13.9472141 C67.1014006,12.1324731 67.1014006,10.9226458 66.7977743,10.0152753 C66.4941481,9.10790486 66.1905218,8.20053438 65.5832693,7.59562072 C64.9760168,6.99070707 64.3687643,6.68825024 63.7615118,6.38579342 C63.1542594,6.08333659 62.2433806,6.08333659 61.3325019,6.08333659 L59.5107444,6.08333659 L57.6889869,6.08333659 L55.5636032,6.08333659 C54.9563507,6.08333659 54.3490982,5.78087977 53.4382195,5.47842294 C52.830967,5.17596611 52.2237145,4.87350929 51.9200882,4.26859563 C51.616462,3.66368198 51.0092095,3.05876833 50.7055832,2.45385468 C50.0983307,1.84894102 49.7947045,1.24402737 48.8838257,0.639113718 C48.2765733,0.0342000652 47.0620683,0.0342000652 45.8475633,0.0342000652 C42.2040483,0.0342000652 38.2569071,0.941570544 34.6133921,2.45385468 C30.9698772,3.96613881 27.6299885,6.08333659 24.2900998,8.80544803 C20.950211,11.5275595 17.9139486,14.5521277 15.1813123,18.1816096 C12.4486761,21.8110916 9.7160399,26.0454871 7.28702993,31.1872532 C4.85801995,36.3290192 3.03626247,40.8658716 1.82175748,45.1002672 C0.607252494,49.3346628 8.52651283e-14,53.5690583 8.52651283e-14,57.5009971 C8.52651283e-14,61.130479 0.607252494,64.4575041 1.82175748,67.1796155 C3.03626247,69.9017269 4.5543937,72.6238384 6.37615118,74.4385793 C8.19790867,76.5557771 10.3232924,78.0680613 13.0559286,78.9754317 C15.4849386,80.185259 18.2175748,80.4877159 20.6465848,80.4877159 C23.0755948,80.4877159 25.5046047,80.185259 27.9336147,79.2778886 C30.3626247,78.3705181 32.7916347,77.4631476 34.9170184,76.2533203 C37.0424021,75.043493 39.1677858,73.5312089 41.2931696,72.0189247 C43.1149271,70.5066406 44.9366845,68.9943565 46.1511895,67.4820723 C47.972947,71.7164679 50.0983307,75.043493 52.5273407,77.4631476 C54.9563507,79.8828022 57.9926132,80.7901727 61.6361281,80.7901727 C64.6723906,80.7901727 67.7086531,80.185259 70.7449155,78.6729749 C73.781178,77.1606908 76.5138142,75.3459498 79.2464504,73.228752 C80.4609554,72.3213816 81.3718342,71.4140111 82.5863392,70.2041838 C83.8008441,68.9943565 85.0153491,67.7845292 86.2298541,66.272245 C88.3552378,63.8525904 89.8733691,61.7353926 91.3915003,60.2231085 C91.3915003,60.2231085 94.4277628,57.5009971 92.9096315,51.1494037 Z M41.9004221,41.7732421 C41.5967958,43.5879831 41.2931696,45.7051808 40.3822908,48.4272923 C39.7750383,51.1494037 38.5605334,53.5690583 37.3460284,55.9887129 C36.1315234,58.4083675 34.6133921,60.5255653 33.0952609,62.3403063 C31.5771297,64.1550472 29.7553722,65.0624177 27.6299885,65.0624177 C26.4154835,65.0624177 25.2009785,64.7599609 24.593726,64.1550472 C23.6828473,63.5501336 23.0755948,62.6427631 22.7719685,61.7353926 C22.164716,60.8280222 21.8610898,59.6181949 21.8610898,58.1059107 C21.5574635,56.8960834 21.5574635,55.3837993 21.5574635,54.173972 L21.5574635,54.173972 C21.5574635,54.173972 21.5574635,54.173972 21.5574635,53.8715152 C21.5574635,51.4518605 21.8610898,49.0322059 22.4683423,46.3100945 C23.0755948,43.5879831 24.2900998,40.5634148 25.808231,36.9339329 C27.3263622,33.304451 28.8444935,30.2798827 30.3626247,27.8602281 C31.8807559,25.4405735 33.7025134,23.3233757 35.5242709,21.5086347 C37.3460284,19.6938938 39.1677858,18.1816096 41.5967958,16.6693255 C43.4185533,15.761955 45.8475633,15.1570414 47.972947,15.1570414 L47.972947,15.761955 C47.972947,15.761955 41.9004221,41.7732421 41.9004221,41.7732421 Z" id="Shape" fill="#202020" fill-rule="nonzero"></path>
            </g>
        </g>
    </g>
</svg>