<?xml version="1.0" encoding="UTF-8"?>
<svg width="74px" height="41px" viewBox="0 0 74 41" version="1.1" xmlns="http://www.w3.org/2000/svg" xmlns:xlink="http://www.w3.org/1999/xlink">
    <!-- Generator: Sketch 46.2 (44496) - http://www.bohemiancoding.com/sketch -->
    <title>Page 1</title>
    <desc>Created with Sketch.</desc>
    <defs></defs>
    <g id="Page-1" stroke="none" stroke-width="1" fill="none" fill-rule="evenodd">
        <g id="Artboard-Copy" transform="translate(-201.000000, -76.000000)" fill="#0D0E14">
            <g id="Page-1" transform="translate(201.000000, 76.000000)">
                <g id="Group-3">
                    <path d="M58.3568554,22.0995702 C58.318657,22.4110366 58.2318422,22.8041989 58.0981476,23.2722494 C57.9609803,23.7402999 57.7873509,24.1930323 57.5685778,24.6355528 C57.351541,25.0746692 57.0910968,25.4508116 56.7959267,25.7639799 C56.4972841,26.0771482 56.1639156,26.2320304 55.7975575,26.2320304 C55.5701029,26.2320304 55.3808468,26.1741623 55.2332618,26.0601282 C55.0839404,25.9426901 54.9641361,25.7963179 54.8755851,25.6090978 C54.7852978,25.4252816 54.7245275,25.2142334 54.6898016,24.9776551 C54.6550757,24.7427789 54.6359765,24.4993926 54.6359765,24.2509004 C54.6359765,23.827102 54.6950105,23.3743695 54.8078696,22.892703 C54.9207288,22.4127386 55.1186663,21.854482 55.3947372,21.2179334 C55.6725443,20.5830867 55.953824,20.0486582 56.2420488,19.6180518 C56.5285374,19.1823393 56.8428067,18.7993889 57.1848567,18.4623926 C57.5251704,18.1253963 57.8897922,17.858182 58.2769859,17.6624518 C58.6624432,17.4650196 59.0583184,17.3646015 59.4663476,17.3646015 L58.3568554,22.0995702 Z M39.5909853,14.2431304 C39.8583747,12.9274831 39.9903331,12.2705104 39.9903331,12.2705104 C39.9903331,12.2705104 40.2091062,11.5590737 40.6466524,10.1413063 C41.0824623,8.72524087 41.4575018,7.70063584 41.7717711,7.07089521 C42.0860404,6.44285659 42.402046,5.94246809 42.714579,5.57483572 C43.0288483,5.20550135 43.3222821,5.02168516 43.5948803,5.02168516 C43.6712772,5.02168516 43.7146846,5.12040126 43.7285749,5.32293947 C43.7424653,5.52377567 43.7494105,5.76545991 43.7494105,6.04969419 C43.6608595,6.94154308 43.4507678,7.90147204 43.1243445,8.93288508 C42.7961848,9.96770211 42.4072549,11.0025191 41.9610272,12.0390382 C41.5147996,13.0772592 41.0390549,14.0848442 40.5390021,15.0651972 C40.0354767,16.0438482 39.5632046,16.9237831 39.1152407,17.7084059 C39.1655932,16.7127349 39.3253323,15.5587777 39.5909853,14.2431304 L39.5909853,14.2431304 Z M15.9686998,14.3588665 C15.8419503,15.843012 15.7186734,17.2658854 15.6040779,18.6223808 C14.5640376,17.904136 13.6142845,17.1756793 12.7530825,16.4370106 C11.8936168,15.7000438 11.1522191,14.9545671 10.5288894,14.2022823 C9.90729596,13.4499976 9.41939722,12.6909048 9.07387463,11.9233021 C8.72835205,11.1574013 8.5547226,10.3863945 8.5547226,9.60857975 C8.5547226,9.13372128 8.62417438,8.65035279 8.76481423,8.1601763 C8.90198149,7.66999981 9.08776499,7.19514134 9.32042844,6.73389888 C9.55309189,6.27265642 9.82916271,5.83694398 10.143432,5.43016557 C10.4611739,5.02168516 10.798015,4.66596681 11.1539553,4.3596065 C11.511632,4.0532462 11.8762538,3.81326396 12.2530297,3.63965978 C12.6298056,3.46435361 13.0013726,3.37584952 13.3677307,3.37584952 C13.7445066,3.37584952 14.1039196,3.48647963 14.4442333,3.70433585 C14.7862833,3.92389407 15.0831896,4.27961242 15.3366886,4.77489492 C15.5884513,5.27017741 15.7881252,5.91353406 15.9374465,6.70496485 C16.0850315,7.49469364 16.1596922,8.46313261 16.1596922,9.60857975 C16.1596922,11.2884554 16.0954493,12.871317 15.9686998,14.3588665 L15.9686998,14.3588665 Z M13.0326259,28.9126831 C12.2756015,30.7287189 11.482115,32.2264804 10.6486937,33.4059675 C9.81874494,34.5871567 8.98879621,35.4585816 8.16232006,36.0202422 C7.33410763,36.5836047 6.5944462,36.866137 5.9415995,36.866137 C5.29743427,36.866137 4.78175483,36.6108368 4.38935229,36.1019382 C3.99694975,35.5913377 3.80248478,34.842457 3.80248478,33.85019 C3.80248478,33.2289594 3.92228909,32.5311387 4.16537031,31.7601319 C4.41018782,30.9874231 4.75571041,30.1993963 5.20714696,29.3943495 C5.65511092,28.5876007 6.19857108,27.7876599 6.83231854,26.9962291 C7.466066,26.2065003 8.17794671,25.4797456 8.96448809,24.819369 C9.75102946,24.1589923 10.60355,23.5888217 11.5185772,23.1088573 C12.4353406,22.6288928 13.3972477,22.2884924 14.4077711,22.0944642 L14.9581764,22.4297586 C14.4320792,24.9368071 13.7913866,27.0949452 13.0326259,28.9126831 L13.0326259,28.9126831 Z M66.6667605,22.1863723 C67.3109257,21.5566317 67.6529758,24.8040509 67.3803775,25.3912415 C67.1077793,25.9767301 66.8490714,26.0720422 66.4670867,26.4958406 C66.0851019,26.9179371 65.6579735,27.3196095 65.1822288,27.7025598 C64.7064841,28.0872122 64.1960136,28.4105926 63.6525534,28.6744028 C63.107357,28.9382131 62.5638968,29.0709692 62.0187004,29.0709692 C61.3606448,29.0709692 60.8119757,28.868431 60.3726933,28.4599506 C59.9334108,28.0514702 59.5531623,27.4574716 59.2354204,26.6796568 C58.9940755,26.9485731 58.7006417,27.2225954 58.3516465,27.5017236 C58.0026514,27.7774479 57.6206666,28.0310462 57.2056922,28.2574124 C56.7924542,28.4820766 56.3618531,28.6692968 55.9121529,28.812265 C55.4624526,28.9552331 55.0127524,29.0284192 54.5630521,29.0284192 C54.0873075,29.0284192 53.6237168,28.9331071 53.1757529,28.7424829 C52.7243163,28.5501567 52.3249686,28.2744324 51.9777097,27.9187141 C51.772827,27.7076659 51.6426049,27.4115176 51.4863384,27.1426013 C51.0574737,27.4183256 50.6251364,27.6906458 50.1459191,27.9289261 C49.5312709,28.2352864 48.9062049,28.4888846 48.2655123,28.6948268 C47.6265559,28.897365 47.0223255,28.9994851 46.447612,28.9994851 C45.9319326,28.9994851 45.4995953,28.9280011 45.1471275,28.7867349 C44.7946597,28.6471708 44.5099074,28.4514406 44.2928706,28.1978423 C44.1557034,28.0412582 44.0879879,27.8217 43.9994369,27.6191618 C43.9629747,27.6378838 43.9247762,27.6651158 43.888314,27.6855398 C43.5011204,27.877866 43.1017727,28.0701922 42.6885346,28.2608164 C42.2752965,28.4480366 41.8603222,28.6165348 41.4418752,28.7646089 C41.0234282,28.9109811 40.6153991,29.0318232 40.2195239,29.1186253 C39.8201762,29.2054273 39.4486092,29.2496794 39.1013503,29.2496794 C38.5683079,29.2496794 38.0717277,29.0233132 37.6150823,28.5688787 C37.1688546,28.1280603 36.7833973,27.5374657 36.4500287,26.8039029 C36.0628351,27.1221773 35.6565422,27.4625776 35.425615,27.6106518 C34.6477551,28.1110403 34.2136815,28.3118765 33.7691902,28.4803746 C33.3229625,28.6454688 32.8888889,28.7799269 32.4634968,28.882047 C32.0381046,28.9807631 31.6422295,29.0335252 31.279344,29.0335252 C30.9095133,29.0335252 30.5935077,28.9603391 30.3295909,28.817371 C30.0691468,28.6744028 29.8416922,28.4718646 29.6524361,28.2148624 C29.4614437,27.9544561 29.3017046,27.6463938 29.1697462,27.2872714 C29.0377879,26.9281491 28.9249287,26.5298807 28.8259599,26.0890622 C28.4700196,26.5400927 28.0932437,26.9553811 27.6973686,27.3315235 C27.2997572,27.7093679 26.8969368,28.0378542 26.4854351,28.3169825 C26.072197,28.5927067 25.6572226,28.812265 25.2353031,28.9705511 C24.8151198,29.1271353 24.4036181,29.2071294 24.0094792,29.2071294 C23.6830559,29.2071294 23.3774681,29.1543673 23.0909795,29.0471412 C22.8044909,28.9399151 22.5509919,28.7612049 22.3304825,28.5076067 C22.1065005,28.2557104 21.9311348,27.9221181 21.802649,27.5102337 C21.6758995,27.0983492 21.6116566,26.5860467 21.6116566,25.9767301 C21.6133929,25.7214299 21.6359648,25.5308057 21.6446462,25.2993334 C21.4119828,25.2533794 21.1827919,25.2091274 20.9258203,25.1393453 C20.1792137,24.9368071 19.4169805,24.6508708 18.6408569,24.2815364 C18.205047,26.0737442 17.6824224,27.7161759 17.0747193,29.2071294 C16.46528,30.6946788 15.7985429,32.0307502 15.0762444,33.2170454 C14.3522097,34.3982345 13.5882401,35.4296476 12.7808632,36.3078805 C11.9734863,37.1861133 11.1574279,37.9162721 10.3309518,38.4966546 C9.50273936,39.0787392 8.68320839,39.5161537 7.86541372,39.807196 C7.04761905,40.0982382 6.26281397,40.2446104 5.50926219,40.2446104 C4.7279297,40.2446104 4.00215864,40.0880262 3.33542158,39.7782619 C2.66694823,39.4684976 2.0852896,39.0055531 1.59044569,38.3894285 C1.09560178,37.7750059 0.704935534,37.0108072 0.423655838,36.1019382 C0.140639848,35.1913673 0,34.1293183 0,32.9174931 C0,31.6069518 0.25523528,30.2691784 0.763969544,28.9075771 C1.2744401,27.5408697 2.00021117,26.2490504 2.94128275,25.0304172 C3.88235432,23.811784 5.01441828,22.7225029 6.34268351,21.7676799 C7.66921245,20.811155 9.14853529,20.0844002 10.7841246,19.5891177 C9.94202184,18.9202311 9.15374418,18.2173044 8.42102793,17.4786356 C7.68831169,16.7382649 7.04935534,15.9842781 6.50589519,15.2132714 C5.96069874,14.4405626 5.53183402,13.6644498 5.21930102,12.881529 C4.90850432,12.1003102 4.75223783,11.3190915 4.75223783,10.5429787 C4.75223783,9.54049968 4.86336067,8.58737873 5.08734265,7.68191383 C5.30958833,6.77644892 5.61691245,5.93906408 6.00931498,5.16805731 C6.39824493,4.39705054 6.86183554,3.69752784 7.39661423,3.07289322 C7.93139291,2.44825859 8.50610636,1.91893606 9.12075458,1.47981962 C9.73366651,1.04240519 10.3743592,0.705408849 11.0428325,0.468830612 C11.7130422,0.233954377 12.3815155,0.114814258 13.0551977,0.114814258 C13.9476531,0.114814258 14.8071188,0.341180484 15.633595,0.792210935 C16.4600711,1.24494339 17.1962599,1.9597841 17.8386889,2.94354109 C18.4828541,3.92389407 18.9967972,5.19528934 19.3839909,6.7543229 C19.7694483,8.31505846 19.9639132,10.2008763 19.9639132,12.4100746 C19.9639132,13.0738552 19.8666807,14.2703624 19.6756884,16.0012981 C19.4829597,17.7288299 19.3041214,19.3882815 19.1357008,20.9779511 C19.7399313,21.3489875 20.3511069,21.7098119 20.970964,22.0638282 C21.3147503,22.2578564 21.6654818,22.4535866 22.0144769,22.6476148 C22.2714485,21.6740698 22.5127934,20.3465085 22.7385117,18.6223808 C22.7662924,18.4794126 22.8027546,18.2819804 22.8496346,18.0351902 C22.8947782,17.7849959 22.9659663,17.5160797 23.0597262,17.2233354 C23.1552224,16.9322931 23.2698178,16.6378468 23.4087214,16.3365925 C23.5476249,16.0353382 23.7108366,15.7630179 23.8983564,15.5196317 C24.0876125,15.2779474 24.3081219,15.0788132 24.5598846,14.9239311 C24.8133835,14.7673469 25.0981358,14.6856508 25.4141414,14.6754388 C25.9385023,14.6992668 26.3152782,14.7860689 26.5444691,14.9256331 C26.7719236,15.0686012 26.8847828,15.2439074 26.8847828,15.4549556 C26.7962318,16.1102263 26.6955267,16.7382649 26.5844039,17.3424755 C26.4750173,17.9449841 26.3604219,18.5543007 26.2510353,19.1670213 C26.1364399,19.7797419 26.0114267,20.4622446 25.8742594,21.2111254 C25.7370922,21.9634101 25.6259693,22.5625147 25.5443635,23.0169492 C25.4610214,23.4696816 25.3933059,23.83391 25.341217,24.1130383 C25.2926008,24.3955705 25.2648201,24.5385387 25.2648201,24.5470487 C25.2648201,24.7291629 25.282183,24.901065 25.3186452,25.0678612 C25.3516348,25.2312534 25.4037236,25.3810295 25.476648,25.5086797 C25.5443635,25.6397338 25.6329145,25.7469599 25.7423011,25.82355 C25.8516876,25.9069481 25.9819097,25.9443921 26.1294947,25.9443921 C26.3482678,25.9443921 26.5722498,25.889928 26.7997044,25.7758939 C27.0288952,25.6618598 27.2441957,25.4967656 27.4421333,25.2789094 C27.6504886,25.0814772 27.8345358,24.824475 27.9942749,24.5096047 C28.1522777,24.1998403 28.272082,23.845824 28.3519516,23.4407476 L29.9892772,15.5060156 C30.0361572,15.2728414 30.2306221,15.0771112 30.5691995,14.9154211 C30.907777,14.7571349 31.2932343,14.6754388 31.7238353,14.6754388 C32.2117341,14.6754388 32.600664,14.7622409 32.8854163,14.9375471 C33.1736412,15.1128533 33.3160173,15.3358155 33.3160173,15.6081358 C33.3160173,15.870244 33.3073358,16.2259624 33.2882366,16.6769928 C33.27261,17.1297253 33.2135759,17.6216038 33.1111346,18.1577343 C33.0086932,18.6921628 32.8871526,19.3372215 32.7430402,20.0946122 C32.600664,20.855407 32.4808597,21.4800416 32.3853635,21.9753241 C32.2916036,22.4723086 32.2099978,22.9080211 32.1388097,23.2790574 C32.0676216,23.6500938 32.0328957,23.9190101 32.0328957,24.0892102 C32.0328957,24.3632325 32.0381046,24.6134268 32.0467861,24.841495 C32.0554676,25.0729672 32.0797757,25.2703994 32.1231831,25.4405996 C32.1648541,25.6107998 32.2325696,25.7452579 32.3228569,25.835464 C32.4131442,25.9290741 32.5433663,25.9750281 32.7135232,25.9750281 C32.93056,25.9750281 33.196213,25.9222661 33.5070097,25.81504 C33.8195427,25.7078139 34.5296871,25.3129495 34.8318023,25.0610532 C35.1877427,24.7632029 35.4481869,24.5232207 35.6721688,24.3138745 C35.6565422,24.2338804 35.6322341,24.1640983 35.6148711,24.0841042 C35.4238787,23.0765192 35.3266463,22.0178742 35.3266463,20.9081691 C35.3266463,19.9550481 35.4690224,18.6836528 35.755511,17.0939832 C36.0419996,15.5043136 36.1826394,14.7094789 36.1826394,14.7094789 C36.1826394,14.7094789 36.3996762,13.9146441 36.8337498,12.3249745 C37.2678234,10.7370069 37.7001607,9.46220761 38.1359706,8.50398065 C38.5700442,7.54575369 39.0423163,6.64709679 39.5527869,5.81481796 C40.0632574,4.97913512 40.5962998,4.2540824 41.1588592,3.63285178 C41.717946,3.01502516 42.3030772,2.52825267 42.9125166,2.17423632 C43.5236922,1.82021996 44.141813,1.64321179 44.7738242,1.64321179 C45.2322059,1.64321179 45.6107181,1.72831187 45.9076244,1.90021404 C46.2080034,2.07211622 46.4424031,2.29848244 46.61256,2.57931272 C46.7844531,2.861845 46.9025211,3.18011932 46.9719729,3.53583768 C47.0414247,3.89325804 47.0778869,4.2574864 47.0778869,4.62511877 C47.0778869,5.54249769 46.966764,6.47689662 46.7462546,7.42831557 C46.524009,8.37973452 46.2253663,9.33796148 45.8485904,10.2995924 C45.4718145,11.2595214 45.0377409,12.2245564 44.5446333,13.1895913 C44.0497894,14.1580303 43.5358463,15.1162573 42.9993313,16.0676762 C42.4662889,17.0190952 41.9263013,17.9551961 41.3863138,18.877681 C40.8463262,19.8018679 40.3462734,20.7022268 39.889628,21.5838637 C39.8392754,21.6825798 39.7889229,21.81023 39.7316252,21.9651121 C39.6778001,22.1216963 39.6274475,22.2918964 39.577095,22.4723086 C39.5267425,22.6544228 39.4763899,22.846749 39.4277737,23.0526912 C39.3774211,23.2586334 39.3392227,23.4594696 39.3079694,23.6534978 L39.3079694,23.85944 C39.3079694,24.1147403 39.3357501,24.3632325 39.3895752,24.6032147 C39.4434003,24.839793 39.5111158,25.0559472 39.5909853,25.2482734 C39.6708549,25.4388976 39.7559333,25.5903757 39.8444843,25.7010058 C39.9347716,25.816742 40.0181138,25.871206 40.0979833,25.871206 C40.2924483,25.871206 40.5129577,25.83206 40.7595115,25.7554699 C41.0078016,25.6754758 41.2717183,25.5716537 41.5495255,25.4388976 C41.8290689,25.3061414 42.1155574,25.1546633 42.4089912,24.9827611 C42.7024249,24.810859 42.9871772,24.6389568 43.263248,24.4619486 C43.457713,24.3342985 43.6782224,24.1623963 43.8796326,24.0228322 C43.8848414,23.9921961 43.8865777,23.9649641 43.8917866,23.9326261 C44.1782752,22.2459424 44.3605861,21.2996294 44.442192,21.0902832 C44.5776229,20.6749948 44.8484848,19.7593179 45.2513052,18.3330405 C45.628081,17.1756793 45.8607445,16.4216926 45.9492955,16.0693782 C45.9979118,15.82429 46.1333427,15.6030297 46.3573247,15.4072996 C46.5622074,15.2319934 46.7931346,15.0856212 47.0501062,14.9732891 C47.308814,14.860957 47.5762034,14.7792609 47.8522742,14.7230949 C48.1300813,14.6686308 48.3801077,14.6431008 48.6040897,14.6431008 C49.0121189,14.6431008 49.289926,14.7179889 49.4357747,14.867765 C49.5816234,15.0192432 49.6545478,15.2200794 49.6545478,15.4719756 C49.6545478,15.6864278 49.6041953,15.9876821 49.5017539,16.3774405 C49.4010488,16.7689009 49.2847171,17.2114214 49.154495,17.7101079 C49.0260092,18.2104964 48.8332805,18.850449 48.576309,19.6350718 C48.32281,20.4179926 48.1474442,21.0885812 48.0519481,21.6400298 C47.9616607,22.1948823 47.8418564,22.7429269 47.6994803,23.2892694 C47.5571041,23.835612 47.4859161,24.3308945 47.4859161,24.7768189 C47.4859161,25.2142334 47.5362686,25.5597397 47.6352374,25.818444 C47.7342062,26.0737442 47.9373526,26.2047983 48.2446767,26.2047983 C48.6006171,26.2047983 48.9964922,26.0822542 49.4323021,25.838868 C49.868112,25.5971837 50.3091308,25.3027374 50.7536222,24.9589331 C50.7831392,24.9368071 50.8074473,24.9129791 50.8369643,24.890853 C50.8369643,24.884045 50.835228,24.877237 50.835228,24.870429 C50.835228,24.1453763 50.9394057,23.4016015 51.1494973,22.6357008 C51.3578526,21.871502 51.6808034,21.0460312 52.1200859,20.1558843 C52.5576321,19.2657374 53.0281679,18.4964326 53.5334295,17.84797 C54.0352186,17.2012093 54.585624,16.6344428 55.1829092,16.1510743 C55.7819308,15.6660038 56.4122057,15.2830534 57.0737339,14.9971171 C57.7369983,14.7128829 58.4106806,14.5699147 59.0982531,14.5699147 C59.327444,14.5699147 59.5062823,14.6141668 59.6347681,14.7026708 C59.7667265,14.7911749 59.8726405,14.889891 59.9577189,15.0039251 C60.0427973,15.1145553 60.1244031,15.2268874 60.2025364,15.3341135 C60.2824059,15.4430416 60.383111,15.5213337 60.501179,15.5706917 C60.6227196,15.6200498 60.7442603,15.6523878 60.8675372,15.6660038 C60.9925504,15.6813218 61.1210361,15.6881298 61.2495219,15.6881298 C61.3589085,15.6881298 61.4717676,15.6864278 61.5846268,15.6813218 C61.7009585,15.6762158 61.8120813,15.6745138 61.9232042,15.6745138 C62.0725255,15.6745138 62.211429,15.6881298 62.3399148,15.7170639 C62.4701369,15.7476999 62.5847323,15.810674 62.6837011,15.9093901 C62.7844062,16.0064041 62.8608032,16.1442663 62.9146283,16.3212745 C62.9684534,16.4965806 62.9962341,16.7365629 62.9962341,17.0429232 C62.9962341,17.5058676 62.9476179,18.0215742 62.8486491,18.5866387 C62.747944,19.1517033 62.6350849,19.7303839 62.5083354,20.3243825 C62.3798496,20.9183811 62.2340009,21.5957777 62.0707892,22.3548705 C61.9075775,23.1139633 61.8259717,23.7556179 61.8259717,24.2747284 C61.8259717,24.7189509 61.8659065,25.0678612 61.9509849,25.3180555 C62.0360633,25.5682497 62.2166379,25.6941978 62.494445,25.6941978 C62.7010641,25.6941978 62.9198372,25.6431378 63.1472917,25.5427197 C63.3764826,25.4405996 63.6039372,25.3078435 63.8383369,25.1461533 C64.0710004,24.9827611 64.3036638,24.7955409 64.5363273,24.5895987 C64.7689907,24.3836565 64.9895001,24.1692043 65.1961191,23.9462421 C65.6822816,23.4271316 66.0225953,22.819517 66.6667605,22.1863723 Z M46.6999969,11.6262198 C46.6999969,11.3470915 46.7434043,11.0730692 46.8354279,10.8058549 C46.9274515,10.5386407 47.0680914,10.3003604 47.2590838,10.0893122 C47.4500761,9.878264 47.6983662,9.71146784 48.0039541,9.58722171 C48.3078056,9.46127359 48.6689548,9.40000153 49.0856655,9.40000153 C49.8062277,9.40000153 50.3531604,9.56509569 50.7282,9.89017802 C51.1015033,10.2169623 51.2872868,10.6833108 51.2872868,11.2892234 C51.2872868,11.3198594 51.2855505,11.3981515 51.276869,11.5223976 C51.2681876,11.6449418 51.2386706,11.7913139 51.1917906,11.9547061 C51.1431744,12.1163962 51.0685137,12.2900004 50.9695449,12.4721146 C50.8688398,12.6559308 50.7282,12.824429 50.5458891,12.9793111 C50.3618419,13.1341933 50.132651,13.2618434 49.8531076,13.3639635 C49.5753005,13.4660836 49.2367231,13.5154416 48.8373754,13.5154416 C48.5161609,13.5154416 48.2244634,13.4796996 47.962283,13.4048115 C47.7035751,13.3299235 47.4795931,13.2175913 47.2920733,13.0661132 C47.1045535,12.914635 46.9587048,12.7206068 46.8562634,12.4840286 C46.7503495,12.2457484 46.6999969,11.9615141 46.6999969,11.6262198 Z M73.4391769,25.3730301 C73.8142165,25.6998144 74,26.1661629 74,26.7720755 C74,26.8027115 73.9947911,26.8827056 73.9861096,27.0052497 C73.9791645,27.1277939 73.9496475,27.272464 73.9027675,27.4375582 C73.8541513,27.5992483 73.7794906,27.7711505 73.6822581,27.9566687 C73.581553,28.1387829 73.4391769,28.3072811 73.2586023,28.4621632 C73.0745551,28.6170454 72.8436279,28.7446955 72.5658208,28.8485176 C72.2880137,28.9489357 71.9494363,28.9999957 71.5483523,28.9999957 C71.2288741,28.9999957 70.9371766,28.9625517 70.6749962,28.8876636 C70.414552,28.8127756 70.19057,28.7004434 70.0030502,28.5489653 C69.8172667,28.3974871 69.671418,28.2034589 69.5672403,27.9668807 C69.4630627,27.7303025 69.4109738,27.4443662 69.4109738,27.1107739 C69.4109738,26.8299436 69.4561175,26.5542193 69.5481411,26.288707 C69.6401647,26.0214928 69.7808046,25.7832125 69.9717969,25.5721643 C70.1627893,25.3611161 70.4110794,25.1943199 70.714931,25.0700738 C71.0170462,24.9458277 71.3781954,24.8828536 71.7966424,24.8828536 C72.5189409,24.8828536 73.0658736,25.0479478 73.4391769,25.3730301 Z" id="Fill-1"></path>
                </g>
            </g>
        </g>
    </g>
</svg>