<?xml version="1.0" encoding="UTF-8"?>
<svg width="13px" height="16px" viewBox="0 0 13 16" version="1.1" xmlns="http://www.w3.org/2000/svg" xmlns:xlink="http://www.w3.org/1999/xlink">
    <!-- Generator: Sketch 47.1 (45422) - http://www.bohemiancoding.com/sketch -->
    <title>ic_lock_outline copy</title>
    <desc>Created with Sketch.</desc>
    <defs>
        <path d="M6.0952381,12.1904762 C6.93333333,12.1904762 7.61904762,11.5047619 7.61904762,10.6666667 C7.61904762,9.82857143 6.93333333,9.14285714 6.0952381,9.14285714 C5.25714286,9.14285714 4.57142857,9.82857143 4.57142857,10.6666667 C4.57142857,11.5047619 5.25714286,12.1904762 6.0952381,12.1904762 L6.0952381,12.1904762 Z M10.6666667,5.33333333 L9.9047619,5.33333333 L9.9047619,3.80952381 C9.9047619,1.70666667 8.19809524,0 6.0952381,0 C3.99238095,0 2.28571429,1.70666667 2.28571429,3.80952381 L2.28571429,5.33333333 L1.52380952,5.33333333 C0.685714286,5.33333333 0,6.01904762 0,6.85714286 L0,14.4761905 C0,15.3142857 0.685714286,16 1.52380952,16 L10.6666667,16 C11.5047619,16 12.1904762,15.3142857 12.1904762,14.4761905 L12.1904762,6.85714286 C12.1904762,6.01904762 11.5047619,5.33333333 10.6666667,5.33333333 L10.6666667,5.33333333 Z M3.80952381,3.83940243 C3.80952381,2.5620915 4.8344086,1.52380952 6.0952381,1.52380952 C7.35606759,1.52380952 8.38095238,2.5620915 8.38095238,3.83940243 L8.38095238,5.33333333 L3.80952381,5.33333333 L3.80952381,3.83940243 L3.80952381,3.83940243 Z M10.6666667,14.4761905 L1.52380952,14.4761905 L1.52380952,6.85714286 L10.6666667,6.85714286 L10.6666667,14.4761905 L10.6666667,14.4761905 Z" id="path-1"></path>
    </defs>
    <g id="Page-2" stroke="none" stroke-width="1" fill="none" fill-rule="evenodd">
        <g id="Desktop-HD-Copy-4" transform="translate(-1022.000000, -590.000000)">
            <g id="ic_lock_outline-copy" transform="translate(1022.000000, 590.000000)">
                <mask id="mask-2" fill="white">
                    <use xlink:href="#path-1"></use>
                </mask>
                <use id="Mask" fill="#FFFFFF" xlink:href="#path-1"></use>
            </g>
        </g>
    </g>
</svg>