<?xml version="1.0" encoding="UTF-8"?>
<svg width="200px" height="108px" viewBox="0 0 200 108" version="1.1" xmlns="http://www.w3.org/2000/svg" xmlns:xlink="http://www.w3.org/1999/xlink">
    <!-- Generator: Sketch 46.2 (44496) - http://www.bohemiancoding.com/sketch -->
    <title>Page 1 Copy</title>
    <desc>Created with Sketch.</desc>
    <defs></defs>
    <g id="Page-1" stroke="none" stroke-width="1" fill="none" fill-rule="evenodd">
        <g id="Artboard-2" transform="translate(0.000000, -46.000000)" fill="#FFFFFF">
            <g id="Page-1-Copy" transform="translate(0.000000, 46.000000)">
                <g id="Group-3">
                    <path d="M157.721231,59.0451236 C157.617992,59.8772921 157.383357,60.9277343 157.02202,62.1782608 C156.651298,63.4287873 156.182029,64.6383874 155.590751,65.8207034 C155.004165,66.9939246 154.300262,67.9988931 153.502505,68.835609 C152.695362,69.6723249 151.794366,70.0861355 150.804209,70.0861355 C150.189467,70.0861355 149.677964,69.931525 149.279086,69.6268512 C148.875515,69.3130828 148.551719,68.922009 148.312392,68.4217985 C148.068372,67.9306826 147.904128,67.3668088 147.810275,66.7347246 C147.716421,66.1071876 147.664801,65.4569139 147.664801,64.792998 C147.664801,63.6607031 147.824353,62.4511029 148.129377,61.1641975 C148.434402,59.8818395 148.969368,58.3903024 149.715506,56.6895864 C150.466336,54.9934178 151.226551,53.5655439 152.005537,52.4150595 C152.779831,51.2509331 153.629207,50.2277751 154.553667,49.327396 C155.473434,48.4270169 156.458898,47.71308 157.505367,47.1901326 C158.547144,46.6626378 159.617077,46.394343 160.719858,46.394343 L157.721231,59.0451236 Z M107.002663,38.0544682 C107.725337,34.539352 108.081981,32.7840675 108.081981,32.7840675 C108.081981,32.7840675 108.67326,30.8832673 109.855817,27.0953089 C111.033682,23.3118979 112.047302,20.5743818 112.896679,18.8918552 C113.746055,17.2138761 114.600124,15.8769496 115.444808,14.8947179 C116.294185,13.9079388 117.087249,13.4168229 117.824001,13.4168229 C118.030479,13.4168229 118.147796,13.6805703 118.185338,14.2217073 C118.222879,14.7582968 118.24165,15.4040232 118.24165,16.1634338 C118.002323,18.5462552 117.434508,21.1109713 116.552282,23.8666769 C115.665364,26.6314773 114.614202,29.3962776 113.408182,32.1656254 C112.202161,34.9395205 110.916365,37.6315629 109.564871,40.2508475 C108.203991,42.8655846 106.92758,45.2165744 105.716867,47.3129115 C105.852955,44.6527007 106.284682,41.5695845 107.002663,38.0544682 L107.002663,38.0544682 Z M43.158648,38.3636893 C42.8160818,42.3289951 42.482901,46.1305956 42.1731836,49.7548487 C39.3622638,47.835859 36.7953636,45.889585 34.4677906,43.9160269 C32.1449102,41.9470161 30.1411326,39.9552685 28.4564577,37.9453314 C26.7764756,35.9353943 25.4578303,33.9072677 24.5239855,31.8564043 C23.5901407,29.8100882 23.1208719,27.7501301 23.1208719,25.6719824 C23.1208719,24.4032665 23.3085794,23.1118137 23.6886871,21.8021714 C24.0594094,20.4925291 24.561527,19.2238132 25.1903471,17.9914762 C25.8191673,16.7591392 26.5653046,15.5950127 27.4146811,14.5081915 C28.2734429,13.4168229 29.1838243,12.4664228 30.1458253,11.6478964 C31.1125189,10.82937 32.0979833,10.1881909 33.1162965,9.72435931 C34.1346097,9.2559803 35.1388449,9.01951711 36.129002,9.01951711 C37.1473152,9.01951711 38.1187015,9.3150961 39.0384683,9.89715933 C39.9629278,10.4837699 40.7653774,11.4341701 41.4505097,12.7574544 C42.1309494,14.0807388 42.6706085,15.7996443 43.0741797,17.9141709 C43.4730581,20.0241501 43.6748437,22.6116031 43.6748437,25.6719824 C43.6748437,30.1602356 43.5012142,34.3892888 43.158648,38.3636893 L43.158648,38.3636893 Z M35.2233133,77.2482417 C33.1773015,82.1002844 31.0327432,86.1019692 28.7802532,89.2532959 C26.5371485,92.40917 24.2940438,94.7374229 22.0603245,96.2380547 C19.8219125,97.7432338 17.8228276,98.4980971 16.058377,98.4980971 C14.3173899,98.4980971 12.9236617,97.8159917 11.8631143,96.4563284 C10.8025669,95.0921177 10.2769859,93.0912753 10.2769859,90.4401592 C10.2769859,88.7803695 10.6007813,86.9159482 11.2577576,84.85599 C11.9194266,82.7914845 12.8532714,80.6860527 14.0733702,78.5351471 C15.2840836,76.3796942 16.7528948,74.2424308 18.4657258,72.1279042 C20.1785568,70.017925 22.1025587,68.0761984 24.2283462,66.3118192 C26.3541337,64.5474401 28.6582433,63.0240714 31.1312897,61.7417134 C33.6090287,60.4593553 36.2087777,59.5498815 38.9399219,59.0314815 L40.4275038,59.9273131 C39.0056195,66.6255877 37.2740178,72.3916516 35.2233133,77.2482417 L35.2233133,77.2482417 Z M180.180434,59.2770394 C181.921421,57.5945128 182.84588,66.2708929 182.109128,67.8397352 C181.372376,69.4040302 180.673166,69.6586828 179.640775,70.7909777 C178.608383,71.9187252 177.453982,72.9919043 176.168186,74.0150623 C174.88239,75.0427677 173.502739,75.9067678 172.033928,76.61161 C170.560424,77.3164522 169.091613,77.671147 167.618109,77.671147 C165.83958,77.671147 164.356691,77.1300101 163.169441,76.0386415 C161.982191,74.947273 160.954493,73.3602412 160.095731,71.2820936 C159.443447,72.0005779 158.650383,72.7327043 157.707153,73.4784728 C156.763923,74.2151466 155.731531,74.8927046 154.609979,75.4975046 C153.493119,76.0977573 152.329333,76.5979679 151.113927,76.9799469 C149.898521,77.3619259 148.683115,77.5574628 147.467708,77.5574628 C146.181912,77.5574628 144.928964,77.3028101 143.718251,76.7935048 C142.498152,76.2796521 141.418834,75.5429783 140.480297,74.5925782 C139.926559,74.0287044 139.574608,73.2374622 139.152266,72.5189779 C137.993172,73.2556517 136.824693,73.9832308 135.529511,74.6198624 C133.8683,75.4383888 132.178932,76.1159468 130.44733,76.6661785 C128.720421,77.2073154 127.087366,77.4801575 125.534087,77.4801575 C124.140358,77.4801575 122.971879,77.289168 122.019263,76.9117364 C121.066648,76.5388521 120.297047,76.0159047 119.710461,75.3383467 C119.339739,74.9199888 119.156724,74.3333782 118.917397,73.7922413 C118.818851,73.8422623 118.715611,73.9150202 118.617065,73.9695886 C117.570596,74.4834413 116.491277,74.997294 115.374418,75.5065994 C114.257558,76.00681 113.136006,76.4569995 112.005068,76.8526206 C110.87413,77.2436943 109.771349,77.5665575 108.701416,77.7984733 C107.622098,78.0303892 106.617863,78.1486208 105.679325,78.1486208 C104.23867,78.1486208 102.896561,77.5438207 101.662385,76.3296732 C100.456364,75.1519046 99.4145872,73.5739675 98.5135912,71.6140515 C97.4671219,72.4644095 96.369033,73.3738833 95.7449055,73.7695044 C93.6425814,75.1064309 92.4694095,75.6430204 91.2680815,76.09321 C90.0620608,76.5343048 88.8888889,76.8935469 87.7391804,77.1663891 C86.589472,77.4301365 85.5195392,77.5711049 84.5387675,77.5711049 C83.539225,77.5711049 82.6851559,77.375568 81.9718673,76.993589 C81.2679642,76.61161 80.6532221,76.0704731 80.1417192,75.3838204 C79.6255235,74.6880729 79.1937963,73.8649992 78.837152,72.9055043 C78.4805077,71.9460094 78.1754831,70.8819251 77.9079999,69.7041565 C76.9459989,70.9092093 75.9276857,72.0187673 74.8577529,73.0237359 C73.7831274,74.0332518 72.6944239,74.910894 71.5822569,75.6566625 C70.4653973,76.3933363 69.343845,76.9799469 68.2035219,77.4028522 C67.0678915,77.8212102 65.9557245,78.0349365 64.8904844,78.0349365 C64.0082591,78.0349365 63.1823461,77.8939681 62.4080527,77.6074838 C61.6337592,77.3209996 60.9486268,76.8435259 60.3526555,76.1659679 C59.7472988,75.4929573 59.2733373,74.6016729 58.9260784,73.5012096 C58.5835122,72.4007463 58.4098828,71.0319883 58.4098828,69.4040302 C58.4145755,68.7219248 58.4755804,68.2126195 58.4990439,67.5941773 C57.8702237,67.4713983 57.250789,67.3531667 56.5562712,67.1667246 C54.5384155,66.6255877 52.4783256,65.8616297 50.3806943,64.8748506 C49.2028297,69.6632302 47.7903307,74.0514413 46.1478901,78.0349365 C44.5007567,82.009337 42.6987646,85.5790217 40.7466066,88.7485379 C38.7897559,91.904412 36.7249733,94.6601176 34.5428736,97.00656 C32.3607738,99.3530024 30.1552106,101.303824 27.9214913,102.854477 C25.6830793,104.409677 23.4681308,105.578351 21.2578749,106.355951 C19.047619,107.133551 16.9265242,107.524625 14.8898978,107.524625 C12.7781884,107.524625 10.816645,107.106267 9.01465292,106.278645 C7.20796818,105.451024 5.63591783,104.21414 4.29850186,102.567992 C2.96108589,100.926392 1.90523117,98.8846234 1.14501578,96.4563284 C0.380107697,94.023486 0,91.1859277 0,87.948201 C0,84.4467268 0.68982508,80.8724948 2.06478255,77.2345996 C3.44443271,73.5830623 5.40597614,70.1316092 7.94941283,66.875693 C10.4928495,63.6197768 13.5524818,60.7094606 17.1423879,58.1583866 C20.7276012,55.6027652 24.7257711,53.6610387 29.1462828,52.3377543 C26.8703293,50.5506383 24.7398491,48.6725749 22.759535,46.6990167 C20.7792208,44.7209112 19.0523117,42.7064267 17.5835005,40.6464686 C16.1099966,38.581963 14.9509028,36.5083628 14.106219,34.416573 C13.2662279,32.3293306 12.843886,30.2420883 12.843886,28.168488 C12.843886,25.4900877 13.144218,22.943561 13.7495747,20.5243607 C14.3502387,18.1051604 15.1808444,15.8678548 16.2413919,13.8078967 C17.2925539,11.7479385 18.5455015,9.87896985 19.9908493,8.21008543 C21.436197,6.541201 22.9894766,5.12696924 24.6506881,3.95374804 C26.3072068,2.7850742 28.0388085,1.88469514 29.8454933,1.25261085 C31.6568707,0.625073925 33.4635554,0.306758094 35.2843182,0.306758094 C37.6963596,0.306758094 40.01924,0.911558172 42.2529593,2.11661096 C44.4866786,3.32621111 46.4763782,5.2361061 48.2126726,7.86448538 C49.9536597,10.4837699 51.3426952,13.8806546 52.3891646,18.0460446 C53.4309412,22.215982 53.9565222,27.2544668 53.9565222,33.1569518 C53.9565222,34.9304257 53.6937317,38.1272261 53.1775361,42.7519004 C52.6566478,47.36748 52.173301,51.8011647 51.7181103,56.0484074 C53.3511655,57.0397338 55.0029916,58.0037761 56.6782811,58.9496288 C57.6074332,59.4680289 58.5553561,59.9909763 59.4985863,60.5093764 C60.1931041,57.9082813 60.8453877,54.3613335 61.4554371,49.7548487 C61.5305201,49.3728697 61.6290665,48.8453749 61.7557691,48.1860064 C61.877779,47.5175431 62.0701791,46.7990588 62.3235843,46.0169114 C62.5816821,45.2393113 62.8913995,44.4526164 63.2668145,43.6477321 C63.6422295,42.8428478 64.0833421,42.1152687 64.5901524,41.464995 C65.1016553,40.8192686 65.6976267,40.2872264 66.3780664,39.8734158 C67.0631988,39.4550579 67.8327995,39.2367842 68.6868687,39.2095 C70.1040603,39.2731631 71.1223736,39.5050789 71.7418083,39.8779632 C72.3565504,40.2599422 72.6615751,40.7283212 72.6615751,41.292195 C72.422248,43.042932 72.1500722,44.7209112 71.8497401,46.3352272 C71.5541008,47.9449958 71.2443834,49.5729539 70.9487441,51.2100068 C70.6390267,52.8470596 70.3011532,54.6705546 69.9304309,56.6713969 C69.5597086,58.681334 69.2593766,60.2820079 69.0388203,61.4961555 C68.8135713,62.7057556 68.6305564,63.6788926 68.4897758,64.4246611 C68.3583806,65.1795244 68.2832976,65.5615033 68.2832976,65.5842402 C68.2832976,66.0708087 68.3302244,66.5300929 68.4287709,66.9757351 C68.5179319,67.4122825 68.6587126,67.812451 68.8558054,68.1535037 C69.0388203,68.5036511 69.2781473,68.7901353 69.5737866,68.9947669 C69.869426,69.217588 70.2213775,69.3176301 70.620256,69.3176301 C71.2115346,69.3176301 71.8168913,69.1721143 72.4316334,68.8674406 C73.0510682,68.5627669 73.6329614,68.1216721 74.1679278,67.5396089 C74.7310503,67.0121141 75.2284752,66.3254613 75.6602025,65.4841981 C76.0872371,64.6565769 76.4110325,63.7107242 76.6268961,62.6284503 L81.0521006,41.428616 C81.1788031,40.8056265 81.7043841,40.282679 82.6194582,39.850679 C83.5345323,39.4277737 84.576309,39.2095 85.7400955,39.2095 C87.0587407,39.2095 88.1099027,39.4414158 88.8795035,39.9097948 C89.6584897,40.3781738 90.04329,40.9738791 90.04329,41.7014582 C90.04329,42.401753 90.0198266,43.3521531 89.968207,44.5572059 C89.9259729,45.7668061 89.7664215,47.0809957 89.4895529,48.5134169 C89.2126843,49.9412908 88.8841962,51.6647437 88.4947031,53.6883229 C88.1099027,55.7209968 87.7861073,57.3898812 87.5280095,58.7131656 C87.2746043,60.0409974 87.054048,61.2051238 86.8616478,62.1964503 C86.6692476,63.1877767 86.5753939,63.906261 86.5753939,64.3609979 C86.5753939,65.0931243 86.589472,65.7615876 86.6129354,66.370935 C86.6363988,66.9893772 86.7020965,67.516872 86.8194136,67.9716089 C86.9320382,68.4263458 87.115053,68.785588 87.3590727,69.0265985 C87.6030925,69.2767038 87.9550441,69.3994828 88.4149274,69.3994828 C89.0015134,69.3994828 89.7194946,69.2585144 90.5594857,68.9720301 C91.4041695,68.6855459 93.3234787,67.6305562 94.1400063,66.9575456 C95.1020073,66.1617561 95.8059104,65.520577 96.4112671,64.9612506 C96.369033,64.7475243 96.3033353,64.5610822 96.2564085,64.3473558 C95.7402128,61.6553134 95.4774223,58.8268498 95.4774223,55.8619653 C95.4774223,53.3154386 95.8622227,49.918554 96.6365161,45.6713113 C97.4108096,41.4240687 97.7909173,39.3004473 97.7909173,39.3004473 C97.7909173,39.3004473 98.3775033,37.176826 99.5506752,32.9295834 C100.723847,28.6868881 101.892326,25.2809087 103.070191,22.7207399 C104.243363,20.1605712 105.519774,17.7595603 106.899424,15.5358969 C108.279074,13.3031387 109.719729,11.3659595 111.24016,9.70616983 C112.751205,8.05547488 114.332641,6.75492735 115.979775,5.80907459 C117.631601,4.86322184 119.302197,4.39029546 121.010336,4.39029546 C122.249205,4.39029546 123.272211,4.61766391 124.074661,5.07694818 C124.886496,5.53623245 125.520008,6.14103253 125.979892,6.89134842 C126.444468,7.64621167 126.763571,8.49656968 126.951278,9.4469698 C127.138986,10.4019173 127.237532,11.3750543 127.237532,12.357286 C127.237532,14.8083179 126.9372,17.3048234 126.341229,19.8468027 C125.740565,22.388782 124.933422,24.9489507 123.915109,27.5182142 C122.896796,30.0829304 121.723624,32.6612886 120.390901,35.2396468 C119.053485,37.8270998 117.664449,40.3872685 116.214409,42.9292478 C114.773754,45.4712271 113.314328,47.97228 111.854902,50.436954 C110.395476,52.9061754 109.043982,55.3117336 107.809805,57.6672708 C107.673717,57.9310182 107.537629,58.2720708 107.382771,58.6858814 C107.237297,59.1042394 107.10121,59.5589763 106.965122,60.0409974 C106.829034,60.5275659 106.692946,61.0414186 106.56155,61.5916502 C106.425463,62.1418819 106.322223,62.6784714 106.237755,63.1968715 L106.237755,63.7471031 C106.237755,64.4292085 106.312838,65.0931243 106.458311,65.7343034 C106.603785,66.3663877 106.786799,66.9439035 107.002663,67.4577562 C107.218527,67.9670616 107.448468,68.3717774 107.687795,68.6673564 C107.931815,68.9765775 108.157064,69.1220933 108.372928,69.1220933 C108.898509,69.1220933 109.49448,69.0175038 110.160842,68.8128722 C110.831896,68.5991458 111.545185,68.3217563 112.296015,67.9670616 C113.051537,67.6123668 113.825831,67.2076509 114.618895,66.7483667 C115.411959,66.2890824 116.18156,65.8297981 116.927697,65.3568717 C117.453278,65.0158191 118.04925,64.5565348 118.593602,64.1836505 C118.60768,64.1017979 118.612372,64.02904 118.62645,63.94264 C119.400744,59.4361973 119.893476,56.9078601 120.114032,56.3485337 C120.480062,55.2389757 121.212121,52.7924912 122.300825,48.9817959 C123.319138,45.889585 123.947958,43.8751006 124.187285,42.9337952 C124.31868,42.278974 124.68471,41.6878161 125.290067,41.1648686 C125.843804,40.6964896 126.467931,40.3054159 127.162449,40.0052895 C127.86166,39.7051632 128.584333,39.4868895 129.330471,39.3368263 C130.081301,39.1913105 130.757048,39.1230999 131.362405,39.1230999 C132.465186,39.1230999 133.216016,39.3231842 133.610202,39.7233526 C134.004388,40.1280685 134.201481,40.664658 134.201481,41.3376686 C134.201481,41.9106371 134.065393,42.7155215 133.788524,43.756869 C133.516348,44.8027638 133.201938,45.9850798 132.849987,47.3174589 C132.502728,48.6543854 131.981839,50.3641961 131.287322,52.4605332 C130.602189,54.552323 130.128228,56.3439864 129.87013,57.8173339 C129.62611,59.2997762 129.302315,60.764029 128.917514,62.2237345 C128.532714,63.6834399 128.340314,65.0067243 128.340314,66.198135 C128.340314,67.3668088 128.476402,68.2899248 128.743885,68.9811248 C129.011368,69.6632302 129.560412,70.0133776 130.391018,70.0133776 C131.353019,70.0133776 132.422952,69.685967 133.600817,69.0356933 C134.778681,68.3899669 135.970624,67.603272 137.171952,66.6847035 C137.251727,66.6255877 137.317425,66.5619245 137.397201,66.5028087 C137.397201,66.4846193 137.392508,66.4664298 137.392508,66.4482403 C137.392508,64.5110611 137.674069,62.5238609 138.241885,60.4775448 C138.805007,58.4357761 139.677847,56.2303021 140.865097,53.8520282 C142.047654,51.4737542 143.319373,49.4183434 144.684945,47.6857958 C146.041131,45.9577956 147.528713,44.4435217 149.142998,43.1520689 C150.761975,41.8560687 152.465421,40.8329107 154.253335,40.0689527 C156.045941,39.3095421 157.866704,38.9275631 159.725009,38.9275631 C160.344443,38.9275631 160.82779,39.0457947 161.175049,39.2822579 C161.531693,39.518721 161.817947,39.7824684 162.047889,40.0871422 C162.277831,40.3827212 162.498387,40.6828475 162.709558,40.9693318 C162.925421,41.2603634 163.197597,41.4695423 163.5167,41.601416 C163.845188,41.7332898 164.173676,41.8196898 164.506857,41.8560687 C164.844731,41.896995 165.19199,41.9151845 165.539248,41.9151845 C165.834888,41.9151845 166.139912,41.9106371 166.444937,41.896995 C166.759347,41.8833529 167.059679,41.8788056 167.360011,41.8788056 C167.763582,41.8788056 168.138997,41.9151845 168.486256,41.9924898 C168.838208,42.0743424 169.147925,42.2425951 169.415408,42.5063425 C169.687584,42.7655425 169.894063,43.1338794 170.039536,43.6068058 C170.185009,44.0751848 170.260092,44.7163638 170.260092,45.5348902 C170.260092,46.7717746 170.128697,48.1496274 169.861214,49.6593539 C169.589038,51.1690804 169.284013,52.7151859 168.941447,54.3022177 C168.594188,55.8892495 168.200002,57.6991023 167.75889,59.7272289 C167.317777,61.7553555 167.097221,63.4697136 167.097221,64.8566612 C167.097221,66.0435245 167.205153,66.9757351 167.435094,67.6441984 C167.665036,68.3126616 168.153075,68.6491669 168.903905,68.6491669 C169.462335,68.6491669 170.053614,68.5127458 170.668356,68.2444511 C171.287791,67.9716089 171.902533,67.6169141 172.536046,67.1849141 C173.164866,66.7483667 173.793686,66.2481561 174.422506,65.6979244 C175.051326,65.1476928 175.647298,64.5747243 176.205727,63.9790189 C177.51968,62.5920714 178.439447,60.9686607 180.180434,59.2770394 Z M126.216208,31.0626666 C126.216208,30.3168981 126.333525,29.5847716 126.582238,28.8708347 C126.83095,28.1568978 127.211058,27.5202661 127.727253,26.9563924 C128.243449,26.3925186 128.914503,25.9468764 129.740416,25.6149185 C130.561637,25.2784132 131.537716,25.1147079 132.663961,25.1147079 C134.611426,25.1147079 136.089623,25.5558027 137.103243,26.4243502 C138.112171,27.297445 138.614289,28.5434241 138.614289,30.1622875 C138.614289,30.2441401 138.609596,30.4533191 138.586133,30.7852771 C138.562669,31.1126876 138.482893,31.5037614 138.356191,31.9403088 C138.224796,32.3723088 138.02301,32.8361405 137.755527,33.322709 C137.483351,33.8138248 137.103243,34.2640144 136.610511,34.6778249 C136.113086,35.0916355 135.493651,35.4326882 134.738129,35.7055303 C133.987299,35.9783725 133.072225,36.1102462 131.992906,36.1102462 C131.124759,36.1102462 130.336388,36.0147514 129.627792,35.8146672 C128.928581,35.6145829 128.323225,35.3144566 127.816414,34.9097408 C127.309604,34.5050249 126.915418,33.9866248 126.63855,33.3545406 C126.352296,32.7179089 126.216208,31.9584983 126.216208,31.0626666 Z M198.484262,67.7910784 C199.497882,68.6641732 200,69.9101523 200,71.5290157 C200,71.6108683 199.985922,71.8245947 199.962458,72.1520053 C199.943688,72.4794158 199.863912,72.8659422 199.737209,73.307037 C199.605814,73.739037 199.404029,74.1983213 199.141238,74.6939845 C198.869062,75.180553 198.484262,75.6307425 197.996222,76.0445531 C197.498797,76.4583637 196.87467,76.7994164 196.12384,77.0768059 C195.37301,77.3451007 194.457936,77.4815217 193.373925,77.4815217 C192.510471,77.4815217 191.722099,77.3814796 191.013503,77.1813954 C190.3096,76.9813111 189.704243,76.6811848 189.197433,76.2764689 C188.695316,75.8717531 188.30113,75.353353 188.019569,74.7212687 C187.738007,74.0891844 187.597227,73.3252265 187.597227,72.4339421 C187.597227,71.6836262 187.719236,70.9469525 187.967949,70.2375629 C188.216661,69.523626 188.596769,68.8869943 189.112965,68.3231205 C189.62916,67.7592468 190.300215,67.3136046 191.121435,66.9816467 C191.937963,66.6496888 192.914042,66.4814361 194.044979,66.4814361 C195.997137,66.4814361 197.475334,66.9225309 198.484262,67.7910784 Z" id="Fill-1"></path>
                </g>
            </g>
        </g>
    </g>
</svg>